<?xml version="1.0" encoding="UTF-8"?><svg id="a" xmlns="http://www.w3.org/2000/svg" viewBox="0 0 38.65 29.34"><defs><style>.b{fill:#ee8c3d;}</style></defs><path class="b" d="M2.04,29.34c-1.36-2.92-2.04-5.88-2.04-8.88,0-3.78,1.02-7.41,3.06-10.89C5.1,6.08,8.01,2.89,11.79,0l3.42,2.24c.51,.31,.77,.78,.77,1.43,0,.38-.09,.72-.28,1.05-.19,.32-.5,.72-.94,1.2-.41,.48-.88,1.08-1.4,1.81-.53,.73-1.01,1.56-1.45,2.5-.44,.94-.82,1.96-1.12,3.09-.31,1.12-.46,2.31-.46,3.57,0,.99,.11,2.01,.33,3.06,.22,1.05,.59,2.14,1.1,3.27,.1,.27,.15,.54,.15,.82,0,.51-.19,.98-.56,1.4-.37,.43-.9,.77-1.58,1.05l-7.7,2.86Z"/><path class="b" d="M24.72,29.34c-1.36-2.92-2.04-5.88-2.04-8.88,0-3.78,1.02-7.41,3.06-10.89,2.04-3.49,4.95-6.68,8.72-9.57l3.42,2.24c.51,.31,.77,.78,.77,1.43,0,.38-.09,.72-.28,1.05-.19,.32-.5,.72-.94,1.2-.41,.48-.88,1.08-1.4,1.81-.53,.73-1.01,1.56-1.45,2.5-.44,.94-.82,1.96-1.12,3.09-.31,1.12-.46,2.31-.46,3.57,0,.99,.11,2.01,.33,3.06,.22,1.05,.59,2.14,1.1,3.27,.1,.27,.15,.54,.15,.82,0,.51-.19,.98-.56,1.4-.37,.43-.9,.77-1.58,1.05l-7.7,2.86Z"/></svg>