<?xml version="1.0" encoding="UTF-8"?><svg id="a" xmlns="http://www.w3.org/2000/svg" viewBox="0 0 449.31 339.57"><defs><style>.b{fill:#6975cf;}.b,.c,.d,.e,.f,.g{stroke:#6975cf;stroke-miterlimit:10;}.c{fill:#fff;}.d{fill:#ee8c3d;}.e{fill:#edc883;}.f{fill:#8fbceb;}.g{fill:none;}</style></defs><path class="f" d="M36.58,46.13l46.1,71.21c.24,.37,.65,.59,1.09,.58l81-1.55c.98-.02,1.57-1.12,1.06-1.97L122.96,42.97c-.24-.39-.66-.63-1.11-.62l-84.24,1.77c-1,.02-1.59,1.16-1.04,2.01Z"/><path class="b" d="M34.77,48.87l46.1,71.21c.24,.37,.65,.59,1.09,.58l81-1.55c.98-.02,1.57-1.12,1.06-1.97L121.16,45.72c-.24-.39-.66-.63-1.11-.62l-84.24,1.77c-1,.02-1.59,1.16-1.04,2.01Z"/><path class="b" d="M127.98,132.37c-4.05-4.05-15.25,11.55-15.95,34.36-.7,22.81-2.5,36.32,6.95,42.17,9.45,5.85,24.76-5.85,24.76-5.85l2.65-37.97-10.75-24.15-7.65-8.55Z"/><path class="d" d="M209.01,197.29s-22.51,22.42-38.71,53.93c0,0-84.18-32.86-109.39-36.46-25.21-3.6-48.62-1.8-58.52,21.61-9.9,23.41,19.81,53.12,75.63,91.84,0,0,0,8.1,9,10.8H355.32s44.93-27.37,76.94-70.86c32.01-43.49,9.41-53.84,0-63.97-9.41-10.13-27.77-9.13-51,4.77-23.23,13.91-38.09,14.36-38.09,14.36l-40.52,10.73-9.45,3.23s-3.81-22.37-10.46-34.14l-28.26,2.63-27.91-.9-17.56-7.56Z"/><path class="e" d="M209.01,197.29s5.4,12.51,38.71,11.61c33.31-.9,35.01-5.78,35.01-5.78l-3.39-8.57-70.33,2.74Z"/><path class="f" d="M234.22,92.76s-14.41,7.2-29.71,25.21c-15.31,18.01-40.52,44.12-45.02,43.22,0,0-26.11-26.11-31.51-28.81,0,0,13.51,16.21,12.6,38.71-.9,22.51-6.3,40.52-21.61,37.81,0,0,22.51,23.41,39.62,14.41s48.62-52.22,48.62-52.22l1.8,12.6s-6.3,2.7-5.4,8.1c.9,5.4,18.91,13.51,37.81,11.7,18.91-1.8,34.21-2.7,41.42-12.6,7.2-9.9,19.81-43.22,19.81-43.22v86.36l40.52-10.73s-10.8-90.03-13.51-108.04c-2.7-18.01-3.6-34.21-18.01-38.71s-25.21-1.8-25.21-1.8l-52.22,18.01Z"/><path class="d" d="M221.46,61.8s-.74,7.55,1.96,12.05c0,0-7.66,6.24-3.38,15.27,4.28,9.04,24.99,13.54,33.99-2.67,9-16.21,0-36.58,0-36.58l-27.91-3.04-4.66,14.96Z"/><path class="b" d="M285.31,60.79c-1.22,4.79-22.06,4.54-46.55-1.67-24.49-6.21-43.36-16.04-42.14-20.83s22.06-2.74,46.55,3.47c24.49,6.21,43.36,14.24,42.14,19.03Z"/><path class="f" d="M220.04,23.31s3.38-15.19,16.88-21.49c13.51-6.3,33.99,11.47,35.9,21.49,1.91,10.02,.56,19.47,.56,19.47l-53.35-19.47Z"/><path class="e" d="M221.17,29.92s-5.85,26.82,4.95,42.13c0,0,5.44,.9,10.37,0l6.73,22.51s-2.7,7.2,1.8,7.2,28.82-26.62,28.82-26.62l-11.19-36.27-41.5-8.95Z"/><path class="d" d="M248.44,42.79s-10.99,15.2,0,32.58c0,0-8.13,8.18-1.72,19.53,6.41,11.36,18.12,11.36,22.62,4.16,4.5-7.2,9-20.71,17.11-24.31,0,0,.9-9-10.8-9.9,0,0-.9-15.31-8.1-19.81s-19.1-2.25-19.1-2.25Z"/><path class="f" d="M243.17,41.76c19.66,4.99,35.68,11.14,40.62,15.85-3.91-7.3-10.4-14.82-10.4-14.82-28.81-21.61-53.35-19.47-53.35-19.47-7.23,2.6-16.72,9.67-21.07,13.08,6.25-2.05,23.97,.23,44.19,5.36Z"/><path class="b" d="M95.57,294.43c14.41-11.7,35.11-1.8,42.32,1.8,7.2,3.6,12.6,9,21.61-.9,9-9.9,26.11,3.6,26.11,3.6,0,0,16.21-4.5,18.01,4.5l19.81-6.3-13.51-6.3s-2.7,4.5-16.21,1.8-42.99-14.99-42.99-14.99c0,0,2.93,7.34-4.28,7.34s-34.33-12.06-45.98-16.84-26.46-12.67-29.86-6.02c-3.4,6.65,7.41,12.95,2.01,21.05-5.16,7.74-30.67,2-62.09-12.9,12.35,16.72,35.68,35.85,67.49,57.92,2.25-16.66,3.15-22.06,17.56-33.76Z"/><path class="g" d="M87.02,331.8s-.9-18.91,11.7-28.81c12.6-9.9,27.4-11.68,27.4-11.68"/><path class="g" d="M121.68,336.75s9-12.6,8.1-27.91"/><path class="c" d="M237.82,302.54s0-4.5-4.5-6.3c-4.5-1.8-9.9,.9-9.9,.9l-19.68,6.3s-6.69,9.03-17.81,8.12c0,0,11.24,11.69,6.81,27.45h38.45s-3.71-6.3-3.71-18.01c0-11.7,2.7-15.31,2.7-15.31l7.65-3.15Z"/><path class="b" d="M355.32,339c3.15-13.96-13.06-13.96-25.66-13.96s-27.01-9-35.11-18.01c-8.1-9-12.6-15.31-18.01-18.91s-9.45-1.35-9.45-1.35l-35.9,52.22h124.14Z"/><g><path class="g" d="M236.49,72.05s3.13,0,5.83-1.8"/><path class="g" d="M159.49,161.18s12.15,7.65,17.56,16.66"/><path class="g" d="M165.18,165.28s7.82-1.4,15.02,3.1"/><path class="g" d="M209.01,183.69s14.09-5.4,30.9-22.51c16.82-17.11,44.73-45.92,44.73-45.92"/><path class="g" d="M252.97,166.73s14.93-10.5,19.92-17.25"/><path class="g" d="M228.7,158.1s14.53-12.23,22.63-32.04"/><line class="g" x1="302.65" y1="147.68" x2="312.1" y2="119.32"/><path class="g" d="M236.49,208.66s-10.15,31.71-11.84,77.43"/><path class="g" d="M226.91,257.25s-11.01,.69-12.2-9.87,8.71-40.93,8.71-40.93"/><line class="g" x1="150.72" y1="277.64" x2="88.82" y2="242.66"/><path class="g" d="M267.09,286.78s63.37-41.81,88.63-59.85"/></g><path class="e" d="M118.98,170.38s14.24-.74,13.2-31.76c0,0-12.56-18.12-20.76-20.52,0,0-5.49,3.91-11.8,1.21,0,0,2.45-13.47,.77-15.29s-4.35,0-4.35,0c0,0,2.73-7.78,0-10.2s-6.33,2.08-6.33,2.08c0,0,.9-6.3-1.8-6.3-2.7,0-5.4,2.7-8.1,9-2.7,6.3-5.4,11.7-5.4,11.7,0,0,1.8-19.81-2.7-22.51s-5.69,4.5-6.45,13.96c-.75,9.45-2.87,18.46,3.14,24.31,6.01,5.85,17.71,11.25,28.52,11.25l22.06,33.06Z"/><line class="g" x1="96.92" y1="137.32" x2="108.63" y2="137.32"/><path class="e" d="M267.09,286.78c-8.1,6.3-29.26,15.76-29.26,15.76l-7.65,3.15s-2.7,3.6-2.7,15.31,3.71,18.01,3.71,18.01l54.81-13.51c5.4-34.21-18.91-38.71-18.91-38.71Z"/></svg>