<?xml version="1.0" encoding="UTF-8"?><svg id="a" xmlns="http://www.w3.org/2000/svg" viewBox="0 0 39.12 49"><defs><style>.b{fill:#6975cf;}.c{fill:none;stroke:#edc883;stroke-linecap:round;stroke-linejoin:round;stroke-width:5px;}</style></defs><path class="b" d="M19.56,39.63c-2.78,1.98-5.52,3.94-8.26,5.9-1.16,.83-2.32,1.67-3.49,2.49-1.63,1.14-3.36,1.31-5.13,.4C.91,47.51,.02,45.99,.02,44.01,0,32.59-.02,21.17,.02,9.75,.04,4.29,4.32,.06,9.79,.03c6.5-.04,13.01-.03,19.51,0,5.5,.03,9.78,4.25,9.79,9.75,.04,11.4,.02,22.8,0,34.2,0,2-.89,3.54-2.68,4.45-1.77,.89-3.51,.72-5.13-.43-3.7-2.63-7.39-5.27-11.08-7.91-.2-.14-.4-.29-.65-.46Zm14.65,4.45v-.64c0-11.12,0-22.24,0-33.35,0-3.13-2.06-5.2-5.19-5.2-6.32,0-12.63,0-18.95,0-.47,0-.96,.04-1.42,.15-2.28,.55-3.75,2.47-3.75,4.9,0,11.18,0,22.35,0,33.53v.58c.23-.15,.39-.24,.53-.35,3.63-2.59,7.26-5.18,10.89-7.78,2.23-1.59,4.21-1.6,6.43-.02,2.02,1.44,4.03,2.88,6.05,4.32,1.77,1.26,3.53,2.52,5.4,3.85Z"/><polyline class="c" points="13.59 19 19.2 22.65 26.72 15.13"/></svg>