<?xml version="1.0" encoding="UTF-8"?><svg id="a" xmlns="http://www.w3.org/2000/svg" viewBox="0 0 65.8 74.7"><defs><style>.b{fill:#6975cf;}.c{fill:#edc883;}</style></defs><path class="b" d="M32.85,50.59c.41,.41,.64,.64,.86,.86,3.23,3.23,6.48,6.44,9.69,9.7,3.3,3.35,3.24,8.35-.09,11.45-2.98,2.77-7.72,2.82-10.64,0-3.4-3.29-6.71-6.67-10.05-10.01-.22-.22-.45-.45-.68-.68-.87,.66-1.67,1.36-2.55,1.93-5.13,3.33-11.96,2.38-16.18-2.22-4.03-4.39-4.29-11.42-.59-16.15,.47-.6,1.02-1.16,1.56-1.7,4.46-4.48,8.97-8.93,13.39-13.45,4.48-4.58,6.93-10.18,7.97-16.44,.45-2.74,.6-5.49,.37-8.26-.11-1.32,.37-2.23,1.4-2.69,1-.45,2.03-.22,2.96,.71,10.64,10.63,21.27,21.27,31.9,31.9,.93,.93,1.17,1.96,.72,2.96-.47,1.03-1.41,1.48-2.78,1.4-7.74-.46-14.97,1.1-21.36,5.65-2.06,1.47-3.87,3.3-5.9,5.05Zm.56-7.1c6.16-5.18,13.27-7.78,21.24-8.47L30.79,11.16c-.1,.9-.18,1.69-.29,2.47-.91,6.58-3.28,12.55-7.4,17.8q-.77,.98,.1,1.85c2.54,2.54,5.07,5.07,7.61,7.61,.84,.84,1.69,1.69,2.6,2.6Zm-14.48-7.58c-4.12,4.12-8.29,8.07-12.2,12.27-3.24,3.48-2.22,9.12,1.83,11.61,3.19,1.96,7,1.42,9.89-1.44,3.64-3.62,7.26-7.25,10.89-10.88,.18-.18,.35-.38,.55-.6l-10.95-10.95Zm6.37,22.5c3.6,3.6,7.11,7.18,10.71,10.67,1.32,1.28,3.4,.91,4.45-.61,.83-1.19,.64-2.77-.51-3.91-3.3-3.31-6.6-6.61-9.91-9.91-.16-.16-.34-.3-.53-.46l-4.22,4.22Z"/><path class="c" d="M56.04,17.45c.59-.17,1.18-.48,1.77-.5,1.83-.07,3.66-.05,5.5-.02,1.44,.02,2.51,1.11,2.48,2.46-.02,1.33-1.06,2.37-2.47,2.39-1.86,.03-3.72,.03-5.58,0-1.09-.02-1.87-.58-2.25-1.6-.36-.96-.12-1.83,.55-2.73Z"/><path class="c" d="M48.4,.93c.11,.34,.43,.89,.45,1.46,.07,1.88,.06,3.77,.01,5.65-.03,1.41-1.11,2.42-2.45,2.41-1.34-.01-2.37-1.04-2.39-2.46-.03-1.86-.02-3.72,0-5.57,.02-1.09,.59-1.87,1.59-2.26,.96-.37,1.82-.11,2.78,.76Z"/><path class="c" d="M59.45,9.79c-.64,.64-1.27,1.29-1.92,1.91-1.01,.97-2.48,.99-3.44,.06-.96-.92-1-2.42-.03-3.43,1.3-1.36,2.64-2.7,4-4,1.02-.97,2.5-.92,3.43,.04,.92,.96,.9,2.43-.07,3.44-.64,.67-1.31,1.32-1.97,1.97Z"/><path class="c" d="M14.69,54.55c-.92,.94-2.54,.92-3.51-.06-.85-.86-.83-2.4,.04-3.32,.93-.98,2.49-.98,3.5,0,.9,.87,.88,2.45-.03,3.38Z"/></svg>