<?xml version="1.0" encoding="UTF-8"?><svg id="a" xmlns="http://www.w3.org/2000/svg" viewBox="0 0 68.58 68.33"><defs><style>.b{fill:#6975cf;}</style></defs><path class="b" d="M25.18,24.88c-6.77-5.98-6.12-15.49-.8-20.79,5.24-5.22,13.62-5.44,19.07-.73,5.64,4.88,7.27,15.15-.05,21.54,.73,.27,1.44,.49,2.12,.8,1.84,.83,3.53,1.89,5.03,3.25,.18,.16,.52,.25,.76,.2,3.59-.63,7.2-.94,10.84-.97,1.6-.01,2.38,.75,2.38,2.36,0,1.83,.01,3.66,0,5.49,0,.39,.12,.57,.48,.74,2.18,1.04,3.38,2.79,3.52,5.2,.08,1.51,.08,3.04,0,4.55-.13,2.41-1.34,4.15-3.52,5.19-.36,.17-.48,.36-.47,.75,.02,1.85,.01,3.7,0,5.55,0,1.49-.76,2.27-2.26,2.29-5.26,.08-10.45,.67-15.48,2.29-3.71,1.19-7.24,2.79-10.45,4.99-1.47,1.01-2.66,.97-4.13-.02-4.51-3.01-9.47-5.01-14.78-6.13-3.59-.76-7.23-1.07-10.89-1.13-1.82-.03-2.49-.72-2.49-2.53,0-1.78,0-3.57,0-5.35,0-.36-.1-.54-.44-.7C1.29,50.64,.11,48.78,.03,46.23c-.04-1.34-.05-2.68,0-4.01,.09-2.52,1.27-4.36,3.56-5.44,.33-.16,.45-.32,.45-.69-.02-1.87-.01-3.75,0-5.62,0-1.48,.81-2.27,2.28-2.27,3.66,.02,7.3,.33,10.91,.96,.23,.04,.56,.01,.72-.13,2.04-1.86,4.39-3.19,7.01-4.04,.06-.02,.11-.05,.22-.11Zm7.1,37.99v-.77c0-2.34,0-4.68,0-7.02,0-5.06,0-10.12-.01-15.18,0-.26-.13-.65-.32-.76-1.89-1.05-3.76-2.13-5.71-3.04-4.05-1.87-8.35-2.94-12.77-3.45-1.76-.2-3.54-.31-5.39-.46,0,1.45-.01,2.8,.02,4.15,0,.13,.21,.31,.37,.38,2.42,1.16,3.6,3.09,3.63,5.75,.01,1.16,0,2.32,0,3.48-.01,2.68-1.18,4.64-3.63,5.82-.15,.07-.36,.25-.37,.39-.03,1.38-.02,2.75-.02,4.18,4.27,.13,8.42,.65,12.49,1.72,4.08,1.07,7.96,2.67,11.73,4.82Zm4.02,0c3.76-2.14,7.64-3.74,11.72-4.82,4.08-1.08,8.25-1.59,12.5-1.73,0-1.42,.02-2.76-.02-4.09,0-.17-.24-.39-.42-.48-2.32-1.14-3.51-3.01-3.57-5.59-.03-1.25-.02-2.5,0-3.74,.04-2.63,1.22-4.54,3.61-5.69,.17-.08,.38-.29,.38-.44,.03-1.33,.02-2.66,.02-3.99-.13-.03-.19-.05-.25-.05-3.19,.13-6.35,.45-9.48,1.12-5.04,1.07-9.72,3-14.1,5.71-.39,.24-.39,.53-.39,.89,0,7.38,0,14.76,0,22.13v.78ZM44.32,14.17c.01-5.58-4.48-10.16-10-10.19-5.5-.03-10.04,4.53-10.07,10.11-.03,5.52,4.47,10.07,10,10.09,5.52,.02,10.06-4.49,10.07-10.01ZM22.69,30.45c.27,.11,.44,.2,.62,.26,3.69,1.17,7.17,2.79,10.45,4.83,.4,.25,.69,.22,1.07-.02,3.29-2.04,6.77-3.66,10.46-4.83,.18-.06,.35-.15,.61-.26-.38-.22-.66-.4-.95-.56-2.1-1.13-4.35-1.68-6.73-1.69-2.52,0-5.04-.03-7.55,.01-1.04,.02-2.09,.1-3.12,.28-1.72,.3-3.31,.95-4.86,1.96Zm-14.63,13.75c0-.65,.02-1.29,0-1.94-.04-1.15-.89-2.01-1.99-2.02-1.09,0-1.98,.84-2.01,1.99-.03,1.34-.03,2.67,0,4.01,.02,1.15,.89,2.01,1.98,2.02,1.12,0,1.98-.86,2.01-2.06,.02-.67,0-1.34,0-2.01Zm56.48,.06c0-.67,.02-1.34,0-2.01-.04-1.15-.9-2-2-2.01-1.09,0-1.98,.85-2,2-.03,1.34-.03,2.67,0,4.01,.02,1.15,.9,2,1.99,2.01,1.09,0,1.96-.85,2-2,.02-.67,0-1.34,0-2.01Z"/></svg>