<?xml version="1.0" encoding="UTF-8"?><svg id="a" xmlns="http://www.w3.org/2000/svg" viewBox="0 0 57.98 57.99"><defs><style>.b{fill:#6975cf;}.c{fill:#edc883;}</style></defs><path class="b" d="M0,32.62c0-5.94,0-11.89,0-17.83,0-4.4,3.12-7.54,7.51-7.54,6.74,0,13.47,0,20.21,0,1.79,0,2.97,1.62,2.38,3.24-.36,.99-1.25,1.59-2.43,1.6-1.49,.01-2.98,0-4.47,0-5.19,0-10.38,0-15.57,0-1.88,0-2.78,.9-2.78,2.76,0,11.83,0,23.66,0,35.5,0,1.88,.9,2.79,2.76,2.79,11.04,0,22.08,0,33.12,0,1.82,0,2.76-.93,2.76-2.74,0-5.91,0-11.81,0-17.72,0-1.73,1.48-2.88,3.08-2.43,1.07,.3,1.75,1.25,1.76,2.49,0,2.42,0,4.83,0,7.25,0,3.47,0,6.94,0,10.42,0,4.46-3.13,7.59-7.58,7.59-11.06,0-22.12,0-33.17,0C3.11,57.99,0,54.87,0,50.4c0-5.93,0-11.85,0-17.78Z"/><path class="c" d="M57.98,7.99c-.04,1.38-.59,2.85-1.76,4.02-7.17,7.19-14.34,14.37-21.55,21.52-.41,.4-1.07,.67-1.65,.76-2.5,.36-5.01,.62-7.52,.92-1.56,.18-2.88-1.08-2.72-2.65,.28-2.59,.57-5.17,.94-7.75,.08-.54,.38-1.14,.76-1.52,7.13-7.17,14.28-14.32,21.44-21.46,1.7-1.7,3.78-2.14,6.11-1.6,3.38,.8,5.96,4.04,5.94,7.76ZM27.96,30.03c1.2-.14,2.31-.25,3.41-.42,.3-.05,.64-.23,.86-.44,6.76-6.74,13.51-13.49,20.26-20.24,.76-.76,.86-1.38,.4-2.34-.4-.83-1.04-1.37-1.92-1.64-.66-.21-1.23-.1-1.75,.42-6.82,6.84-13.65,13.66-20.48,20.5-.13,.13-.28,.29-.31,.45-.17,1.21-.31,2.42-.47,3.72Z"/></svg>