<?xml version="1.0" encoding="UTF-8" standalone="no"?>
<svg
   id="a"
   viewBox="0 0 77.01 65.97"
   version="1.1"
   sodipodi:docname="LINA_HOME_ELEMENTS-10.svg"
   inkscape:version="1.4 (e7c3feb100, 2024-10-09)"
   xmlns:inkscape="http://www.inkscape.org/namespaces/inkscape"
   xmlns:sodipodi="http://sodipodi.sourceforge.net/DTD/sodipodi-0.dtd"
   xmlns="http://www.w3.org/2000/svg"
   xmlns:svg="http://www.w3.org/2000/svg">
  <sodipodi:namedview
     id="namedview3"
     pagecolor="#ffffff"
     bordercolor="#666666"
     borderopacity="1.0"
     inkscape:showpageshadow="2"
     inkscape:pageopacity="0.0"
     inkscape:pagecheckerboard="0"
     inkscape:deskcolor="#d1d1d1"
     inkscape:zoom="3.0923193"
     inkscape:cx="66.616665"
     inkscape:cy="43.979934"
     inkscape:window-width="1720"
     inkscape:window-height="1374"
     inkscape:window-x="20"
     inkscape:window-y="20"
     inkscape:window-maximized="0"
     inkscape:current-layer="a" />
  <defs
     id="defs1">
    <style
       id="style1">.b{fill:#6975cf;}.c{fill:#edc883;}</style>
  </defs>
  <path
     style="fill:#6975cf;fill-rule:evenodd;stroke-linecap:round;stroke-linejoin:round;stroke-miterlimit:10;paint-order:markers stroke fill"
     d="m 6.3964844,37.285156 c -1.3334977,0 -2.5874255,0.332079 -3.6777344,1.064453 -1.0903089,0.732375 -2.12109375,2.070053 -2.12109375,3.757813 v 15.033203 c 0,1.687759 1.03078505,3.025438 2.12109375,3.757812 1.0903087,0.732375 2.3442361,1.064454 3.6777344,1.064454 h 9.2968746 a 2.8270227,2.8270227 0 0 0 0.0059,-0.0059 c 2.524606,-0.0015 5.143873,-0.935039 6.162109,-3.695312 l 5.892578,-15.113282 a 2.8270227,2.8270227 0 0 0 0,-0.002 c 0.644538,-1.658606 -0.133529,-3.616235 -1.203125,-4.544922 -1.069595,-0.928686 -2.365183,-1.316406 -3.746094,-1.316406 z m 0,5.652344 H 21.767578 l -5.191406,13.318359 a 2.8270227,2.8270227 0 0 0 -0.01758,0.04883 c 0.217099,-0.58939 -0.06517,0 -0.865235,0 a 2.8270227,2.8270227 0 0 0 -0.0039,0.0039 H 6.3964844 c -0.084807,0 -0.074809,-0.01694 -0.1445313,-0.0293 v -13.3125 c 0.069687,-0.01234 0.059783,-0.0293 0.1445313,-0.0293 z"
     id="path1" />
  <path
     style="fill:#6975cf;fill-rule:evenodd;stroke-linecap:round;stroke-linejoin:round;stroke-miterlimit:10;paint-order:markers stroke fill"
     d="m 25.378906,38.960937 0.05078,0.148438 a 2.6507601,2.6507601 0 0 0 -1.691406,0.417969 l -0.0039,0.0039 a 2.6507601,2.6507601 0 0 0 -0.449219,1.539062 L 22.865234,40.777344 17.789062,56.203125 A 2.6507601,2.6507601 0 0 0 19.339844,59.5 l 12.009765,4.701172 c 5.355351,2.096588 11.470439,2.22849 16.947266,0.373047 l 23.861328,-8.076172 c 0.0023,-7.35e-4 0.0036,-0.0032 0.0059,-0.0039 1.647036,-0.531519 3.034635,-1.593573 3.822266,-3.06836 0.788436,-1.476294 0.862419,-3.415167 0.04687,-5.011719 v -0.002 c -1.59123,-3.112843 -5.185664,-4.159158 -8.429687,-3.240234 a 2.6507601,2.6507601 0 0 0 -0.0625,0.01953 L 56.720703,48.546875 C 56.221542,45.646546 53.51336,43.740231 50.599609,43.625 l -4.933593,-0.195313 c -0.818509,-0.03361 -1.520787,-0.374509 -1.84375,-0.701171 -2.449647,-2.478448 -5.954656,-3.767578 -9.617188,-3.767579 z m 1.919922,5.300782 h 6.90625 c 2.376102,0 4.57409,0.906795 5.845703,2.193359 a 2.6507601,2.6507601 0 0 0 0.002,0 c 1.436291,1.452744 3.375963,2.190256 5.402344,2.271484 a 2.6507601,2.6507601 0 0 0 0.002,0 l 4.933594,0.195313 c 1.01969,0.04033 1.228516,0.566482 1.228516,0.488281 0,-0.07836 -0.264004,0.490235 -1.322266,0.490235 h -8.851563 a 2.6513672,2.6513672 0 0 0 0,5.302734 h 8.851563 0.130859 c 1.800577,0 3.587486,-0.265733 5.285157,-0.792969 l 13.341796,-4.138672 c 1.023202,-0.286108 2.146917,0.337618 2.257813,0.554688 0.05854,0.114485 0.05069,0.0049 -0.002,0.103515 -0.05265,0.09858 -0.261906,0.356308 -0.775391,0.521485 a 2.6507601,2.6507601 0 0 0 -0.03906,0.01172 l -23.900391,8.089843 c -4.244604,1.437991 -9.186813,1.32612 -13.3125,-0.289062 a 2.6507601,2.6507601 0 0 0 -0.002,0 l -9.673828,-3.785156 z"
     id="path2" />
  <path
     style="fill:#6975cf;fill-rule:evenodd;stroke-linecap:round;stroke-linejoin:round;stroke-miterlimit:10;paint-order:markers stroke fill"
     d="m 45.099609,1.0585937 c -4.37795,0 -8.521484,2.9220555 -8.521484,7.2949219 V 31.59375 c 0,4.377298 4.148736,7.292969 8.521484,7.292969 h 28.689453 a 2.6507601,2.6507601 0 0 0 2.650391,-2.650391 V 30.529297 A 2.6507601,2.6507601 0 0 0 75.28125,29.371094 2.6507601,2.6507601 0 0 0 76.439453,28.212891 V 3.7089844 A 2.6507601,2.6507601 0 0 0 73.789062,1.0585937 Z m 0,5.3007813 H 71.138672 V 25.5625 h -24.5625 c -1.533342,0 -2.972306,0.489755 -4.101563,1.439453 -0.24208,0.203588 -0.385775,0.526364 -0.59375,0.78125 V 8.3535156 c 0,-0.7536349 1.10613,-1.9941406 3.21875,-1.9941406 z"
     id="path3" />
</svg>
