<?xml version="1.0" encoding="UTF-8"?><svg id="a" xmlns="http://www.w3.org/2000/svg" viewBox="0 0 77.01 65.97"><defs><style>.b{fill:#6975cf;}.c{fill:#edc883;}</style></defs><path class="b" d="M38.5,65.97c-9.91,0-19.82,0-29.73,0C3.5,65.97,0,62.48,0,57.2,0,41.06,0,24.91,0,8.76,0,3.49,3.49,0,8.77,0c19.82,0,39.64,0,59.46,0,5.28,0,8.77,3.49,8.77,8.77,0,16.15,0,32.29,0,48.44,0,5.28-3.49,8.76-8.77,8.77-9.91,0-19.82,0-29.73,0ZM5.5,22.03v.87c0,11.45,0,22.9,0,34.35,0,2.17,1.04,3.22,3.2,3.22,19.85,0,39.7,0,59.54,0,2.22,0,3.25-1.03,3.25-3.26,0-11.42,0-22.84,0-34.27v-.91H5.5Zm0-5.6H71.5c0-2.58,0-5.09,0-7.61,0-2.33-1-3.32-3.36-3.32-19.76,0-39.52,0-59.28,0-.26,0-.52-.01-.77,0-1.38,.1-2.53,1.16-2.56,2.54-.05,2.77-.02,5.55-.02,8.38Z"/><path class="c" d="M64.57,13.74c-.49,0-.97,.02-1.46,0-1.44-.08-2.58-1.25-2.61-2.67-.03-1.46,1.08-2.72,2.56-2.8,1.05-.06,2.11-.06,3.17,0,1.43,.08,2.53,1.33,2.53,2.75,0,1.42-1.12,2.63-2.56,2.72-.54,.04-1.08,0-1.63,0Z"/><path class="c" d="M54.98,8.25c1.52-.01,2.78,1.25,2.77,2.77-.01,1.49-1.24,2.71-2.73,2.73-1.52,.01-2.78-1.25-2.77-2.77,.01-1.49,1.24-2.72,2.73-2.73Z"/></svg>