<?xml version="1.0" encoding="UTF-8"?><svg id="a" xmlns="http://www.w3.org/2000/svg" viewBox="0 0 59.77 59.74"><defs><style>.b{fill:#6975cf;}</style></defs><path class="b" d="M45.67,59.74H14.18c-.29-3.05,.35-5.79,2.61-8,1.15-1.13,2.53-1.86,4.09-2.26,.18-.05,.43-.23,.47-.4,.92-3.56,3.22-5.71,6.8-6.69v-.53c0-8,0-16,0-24,0-.4-.1-.6-.49-.78-1.18-.53-2.02-1.42-2.58-2.6-.08-.17-.35-.37-.53-.37-3.72-.02-7.44-.02-11.15-.01-.06,0-.11,.02-.23,.03,.1,.26,.18,.51,.28,.76,2.36,5.67,4.7,11.35,7.11,17,.44,1.03,.5,2.01,.31,3.06-.74,4.07-4.33,7.14-8.47,7.17-1.65,.01-3.32,.07-4.95-.12C3.23,41.51-.07,37.61,0,33.34c0-.26,.09-.53,.19-.78,2.47-5.96,4.96-11.91,7.44-17.87,.07-.17,.13-.35,.22-.58h-3.64c-.37,0-.66-.3-.66-.66v-2.19c0-.37,.3-.66,.66-.66h0c6.72,0,13.43,0,20.15,.01,.44,0,.65-.12,.84-.57,.46-1.1,1.31-2.01,2.44-2.42,.42-.15,.52-.33,.52-.69,0-1.72,0-3.43,0-5.17,0-.97,.79-1.75,1.75-1.75h0c.97,0,1.75,.79,1.75,1.75v.34c0,1.6,.01,3.19,0,4.79,0,.35,.08,.54,.43,.69,1.15,.5,2.02,1.33,2.53,2.47,.21,.46,.46,.55,.92,.55,6.68-.01,13.35,0,20.03,0h0c.4,0,.72,.32,.72,.72v2.04c0,.4-.32,.72-.72,.72h-3.62c.1,.27,.17,.46,.24,.64,2.38,5.72,4.74,11.46,7.17,17.16,.45,1.05,.51,2.05,.31,3.12-.78,4.11-4.36,7.12-8.55,7.14-1.63,0-3.28,.06-4.9-.13-4.21-.49-7.53-4.45-7.42-8.69,0-.24,.09-.5,.18-.72,2.47-5.96,4.96-11.91,7.44-17.87,.07-.18,.14-.35,.22-.58-.22-.01-.38-.03-.55-.03-3.56,0-7.13,0-10.69,0-.37,0-.57,.08-.74,.46-.52,1.18-1.4,2.04-2.59,2.58-.27,.12-.42,.24-.42,.58,.01,8.14,0,16.27,.01,24.41,0,.09,.02,.19,.03,.31,1.85,.42,3.42,1.3,4.69,2.69,1,1.1,1.69,2.38,2.03,3.82,.08,.32,.18,.48,.52,.57,3.88,.99,6.71,4.31,6.74,8.32,0,.63,0,1.25,0,1.91ZM10.51,16.9l-6.12,14.69h12.24l-6.12-14.69Zm38.78,0c-2.08,4.99-4.09,9.81-6.11,14.67h12.23l-6.11-14.67Zm-7.48,39.34c-.67-2.06-2.67-3.47-4.9-3.48-4.67-.01-9.34-.02-14.01,.01-.65,0-1.33,.14-1.93,.37-1.45,.55-2.43,1.59-3.02,3.1h23.86Zm-24.61-21.08H3.81c.75,1.81,2,3.09,3.88,3.3,1.86,.21,3.78,.21,5.63,0,1.88-.22,3.13-1.49,3.87-3.3Zm25.38-.02c.76,1.84,2.01,3.11,3.89,3.33,1.82,.22,3.69,.19,5.52,.02,1.78-.17,3.02-1.32,3.81-2.92,.06-.13,.09-.27,.14-.43h-13.36Zm-7.79,14.09c-.63-2.09-2.8-3.54-5.11-3.47-2.1,.07-4.23,1.64-4.65,3.47h9.76ZM29.88,14.09c.95,0,1.76-.78,1.77-1.73,0-.95-.78-1.76-1.73-1.77-.95,0-1.76,.78-1.76,1.73,0,.95,.78,1.76,1.73,1.77Z"/></svg>