<?xml version="1.0" encoding="UTF-8"?><svg id="a" xmlns="http://www.w3.org/2000/svg" viewBox="0 0 81.08 81.16"><defs><style>.b{fill:#6975cf;}.c{fill:#edc883;}</style></defs><path class="b" d="M40.55,81.16c-1.36-.11-2.77-.04-4.08-.35-3.31-.8-5.36-3.54-5.42-6.99-.02-1.16,.02-2.32-.02-3.48-.01-.33-.14-.73-.36-.97-1.37-1.49-2.01-3.23-2.01-5.25,0-3.42-1.15-6.33-3.56-8.84-10.89-11.39-6.25-30.13,8.73-35.04,8.86-2.91,18.4,.13,23.9,7.64,5.36,7.32,5.6,16.83,.67,24.41-.76,1.16-1.69,2.23-2.64,3.25-2.27,2.45-3.33,5.33-3.32,8.63,0,1.55-.37,2.97-1.25,4.25-.04,.07-.07,.15-.13,.2-1.07,.8-1.03,1.94-1.02,3.12,0,1.31,.06,2.67-.25,3.93-.8,3.29-3.51,5.32-6.93,5.41-.76,.02-1.53,0-2.3,0v.1Zm-.08-14.35c1.45,0,2.9,0,4.35,0,1.93,0,2.82-.87,2.83-2.79,.02-2.68,.58-5.22,1.74-7.64,.91-1.91,2.34-3.42,3.69-5.01,3.71-4.36,4.99-9.43,3.52-14.92-1.82-6.81-6.38-10.94-13.33-12.27-8.73-1.67-17.39,4.28-19.01,12.99-.87,4.68-.05,9.03,2.74,12.92,.92,1.28,2.08,2.38,3.05,3.63,2.38,3.05,3.34,6.58,3.36,10.41,.01,1.75,.94,2.67,2.71,2.68,1.45,0,2.9,0,4.35,0Zm-4.67,4.78c0,.89-.04,1.71,0,2.51,.08,1.23,1.03,2.16,2.28,2.19,1.63,.04,3.26,.04,4.9,0,1.15-.03,2.12-.84,2.25-1.95,.1-.9,.02-1.82,.02-2.75h-9.45Z"/><path class="c" d="M42.92,7.28c0,1.5,0,3,0,4.5-.01,1.54-.98,2.6-2.36,2.61-1.38,0-2.38-1.06-2.39-2.58-.01-3.08-.01-6.16,0-9.24C38.17,1.05,39.18-.01,40.57,0c1.35,.01,2.34,1.07,2.35,2.54,.01,1.58,0,3.16,0,4.74Z"/><path class="c" d="M7.21,42.91c-1.53,0-3.06,0-4.58,0C1.08,42.9,.01,41.93,0,40.56c-.01-1.41,1.06-2.39,2.65-2.4,3.03,0,6.06,0,9.09,0,1.6,0,2.67,.98,2.66,2.39,0,1.41-1.08,2.35-2.69,2.36-1.5,0-3,0-4.5,0Z"/><path class="c" d="M73.88,38.16c1.53,0,3.06,0,4.58,0,1.54,0,2.61,.97,2.62,2.35,.01,1.38-1.05,2.39-2.58,2.39-3.08,.01-6.16,.01-9.25,0-1.53,0-2.59-1.01-2.58-2.39,.01-1.38,1.08-2.34,2.62-2.35,1.53,0,3.06,0,4.58,0Z"/><path class="c" d="M13.95,11.25c.35,.19,1.01,.39,1.45,.82,2.23,2.16,4.42,4.37,6.6,6.58,1.01,1.03,1,2.44,.05,3.39-.95,.95-2.36,.97-3.39-.04-2.24-2.19-4.45-4.41-6.65-6.64-.75-.76-.94-1.69-.49-2.69,.41-.91,1.17-1.31,2.43-1.42Z"/><path class="c" d="M60.99,22.78c-1.26-.09-2.01-.51-2.43-1.4-.42-.89-.32-1.77,.33-2.51,.61-.69,1.28-1.33,1.93-1.98,1.6-1.6,3.2-3.21,4.81-4.8,.73-.73,1.6-1.02,2.6-.65,.89,.33,1.52,1,1.5,1.94,0,.65-.22,1.47-.65,1.92-2.19,2.31-4.46,4.55-6.75,6.77-.41,.39-1.03,.56-1.33,.71Z"/><path class="c" d="M39.38,28.7c2.32-.09,3.44,.8,3.53,2.2,.08,1.42-.98,2.44-2.62,2.52-3.2,.15-5.53,1.92-6.58,5-.43,1.28-1.36,2-2.47,1.93-1.11-.07-2.18-.92-2.19-2.02,0-.86,.23-1.79,.59-2.57,2.06-4.44,5.6-6.75,9.74-7.05Z"/></svg>