<?xml version="1.0" encoding="UTF-8"?><svg id="a" xmlns="http://www.w3.org/2000/svg" viewBox="0 0 81.68 68"><defs><style>.b{fill:#6975cf;}.c{fill:#edc883;}</style></defs><path class="b" d="M6.69,3.4c-.58,0-1.05,.02-1.53,0-1.01-.05-1.74-.78-1.73-1.72,.01-.91,.72-1.65,1.69-1.65C9.8,0,14.48,0,19.15,0c.96,0,1.91,0,2.87,.01,1.12,.03,1.8,.69,1.8,1.7,0,.99-.73,1.66-1.83,1.68-.44,.01-.89,0-1.41,0,.93,12.04,1.85,23.99,2.77,36.02l3.9-.86c0-.36,0-.67,0-.98,0-4.99,0-9.98,0-14.98,0-1.82,.77-2.42,2.58-2.06,16.39,3.27,32.78,6.54,49.17,9.81,2.5,.5,2.65,.67,2.65,3.24,0,9.59-.06,19.17,.03,28.76,.03,3.08-2.16,5.67-5.68,5.65-15.25-.07-30.5-.03-45.74-.03-8.18,0-16.36-.07-24.54,.03-3.55,.05-5.8-2.57-5.71-5.7,.13-4.48,.03-8.97,.03-13.46,0-2.26,1.03-3.88,3.06-4.91,.26-.13,.52-.53,.54-.82,.31-3.7,.58-7.41,.86-11.11,.46-5.93,.92-11.86,1.37-17.78,.27-3.57,.54-7.14,.82-10.81Zm23.98,61.18h.92c14.77,0,29.54,0,44.31,0,1.82,0,2.35-.54,2.35-2.39,0-9.19,0-18.37,0-27.56v-.94c-15.87-3.17-31.7-6.34-47.58-9.51v40.4Zm-3.46-22.51c-1.98,.43-3.87,.84-5.75,1.25-5.33,1.18-10.65,2.42-16.01,3.5-1.59,.32-2.06,1.11-2.05,2.56,.04,4.33,.01,8.65,.02,12.98,0,1.63,.59,2.22,2.19,2.22,6.93,0,13.86,0,20.79,0,.26,0,.51-.03,.8-.04v-22.47Zm-7.22-1.91c-.95-12.3-1.89-24.51-2.83-36.7h-7.05c-1.01,13.17-2.02,26.3-3.04,39.53l12.92-2.83Z"/><path class="c" d="M51.04,40.77c0-.53-.01-1.06,0-1.59,.03-1.07,.65-1.75,1.72-1.79,1.11-.05,2.23-.04,3.34,0,1.04,.04,1.69,.68,1.73,1.71,.05,1.11,.05,2.23,0,3.34-.04,1.11-.73,1.74-1.85,1.75-1.03,.02-2.07,.02-3.1,0-1.16-.02-1.82-.67-1.85-1.82-.01-.53,0-1.06,0-1.59Z"/><path class="c" d="M71.44,40.84c0,.56,.02,1.11,0,1.67-.05,.97-.71,1.64-1.68,1.66-1.14,.03-2.28,.03-3.42,0-.94-.03-1.62-.63-1.67-1.58-.07-1.19-.06-2.38,0-3.57,.05-.98,.71-1.59,1.72-1.63,1.11-.04,2.23-.04,3.34,0,1.07,.04,1.7,.72,1.73,1.79,.02,.56,0,1.11,0,1.67h0Z"/><path class="c" d="M37.45,40.73c0-.53-.02-1.06,0-1.59,.04-1.04,.64-1.7,1.67-1.75,1.14-.05,2.28-.05,3.42,0,1.04,.05,1.65,.71,1.67,1.75,.03,1.11,.03,2.22,0,3.34-.03,1.03-.68,1.68-1.71,1.7-1.11,.03-2.23,.03-3.34,0-1.02-.03-1.67-.68-1.71-1.7-.02-.58,0-1.16,0-1.75Z"/><path class="c" d="M54.48,51c.56,0,1.11-.02,1.67,0,.96,.04,1.62,.61,1.68,1.57,.07,1.19,.06,2.38,0,3.57-.05,.99-.71,1.59-1.72,1.61-1.11,.03-2.23,.03-3.34,0-1.07-.03-1.71-.69-1.73-1.77-.02-1.06-.02-2.12,0-3.18,.02-1.13,.65-1.77,1.77-1.81,.56-.02,1.11,0,1.67,0h0Z"/><path class="c" d="M68.07,51c.56,0,1.11-.02,1.67,0,.99,.04,1.66,.67,1.69,1.64,.04,1.16,.04,2.33,0,3.49-.03,.93-.69,1.58-1.63,1.61-1.14,.04-2.28,.03-3.42,0-1.04-.02-1.69-.64-1.74-1.68-.05-1.14-.05-2.28,0-3.41,.05-1.03,.71-1.63,1.76-1.66,.56-.02,1.11,0,1.67,0Z"/><path class="c" d="M44.22,54.42c0,.58,.03,1.17,0,1.75-.05,.92-.65,1.55-1.56,1.58-1.22,.04-2.44,.04-3.65,0-.87-.03-1.49-.65-1.52-1.53-.04-1.22-.04-2.44,0-3.65,.03-.91,.67-1.52,1.59-1.55,1.19-.04,2.38-.04,3.57,0,.92,.03,1.5,.66,1.57,1.57,0,.05,0,.11,0,.16,0,.56,0,1.11,0,1.67h0Z"/><path class="b" d="M15.26,61.19c-1.01,0-2.01,.01-3.02,0-1.22-.02-1.98-.67-1.99-1.69-.01-1.02,.75-1.72,1.95-1.73,2.09-.02,4.19-.02,6.28,0,1.21,0,1.97,.71,1.96,1.73-.01,1.02-.77,1.68-2,1.69-1.06,.01-2.12,0-3.18,0Z"/><path class="b" d="M15.29,54.38c-1.06,0-2.12,.01-3.18,0-1.12-.01-1.88-.73-1.87-1.73,.02-.97,.74-1.64,1.85-1.65,2.17-.02,4.34-.02,6.52,0,1.1,0,1.82,.7,1.83,1.67,0,.99-.76,1.69-1.89,1.71-1.09,.01-2.17,0-3.26,0Z"/></svg>