<?xml version="1.0" encoding="UTF-8"?><svg xmlns="http://www.w3.org/2000/svg" viewBox="0 0 1379.61 340.36"><defs><style>.c{fill:#0a1b1a;}</style></defs><g id="a"/><g id="b"><g><g><path class="c" d="M505.93,143.96V74.17h15.55v54.93h30.12v14.86h-45.67Z"/><path class="c" d="M568.04,71.32c4.92,0,8.86,3.94,8.86,8.76s-3.94,8.76-8.86,8.76-8.66-3.94-8.66-8.76,3.94-8.76,8.66-8.76Zm-7.38,72.64v-48.92h14.96v48.92h-14.96Z"/><path class="c" d="M618.24,143.96h-15.06l-20.08-48.92h16.24l11.32,30.42,10.43-30.42h15.75l-18.6,48.92Z"/><path class="c" d="M675.52,109.81c-1.67-.39-3.25-.49-4.72-.49-6,0-11.42,3.54-11.42,13.29v21.36h-14.96v-48.92h14.47v6.6c2.56-5.51,8.76-7.09,12.7-7.09,1.48,0,2.95,.2,3.94,.49v14.77Z"/><path class="c" d="M728.48,129.89c-2.36,8.47-10.14,15.55-22.54,15.55-13.49,0-25.49-9.65-25.49-26.08s11.71-25.79,24.41-25.79c15.16,0,24.51,9.35,24.51,25.1,0,2.07-.2,4.33-.3,4.63h-34.06c.29,5.51,5.32,9.45,11.12,9.45,5.41,0,8.46-2.56,9.84-6.4l12.5,3.54Zm-13.58-16.24c-.2-3.74-2.76-8.27-9.84-8.27-6.3,0-9.45,4.63-9.75,8.27h19.59Z"/><path class="c" d="M808.41,143.96l-28.74-45.87v45.87h-15.45V74.17h18.9l26.18,42.43v-42.43h15.55v69.79h-16.44Z"/><path class="c" d="M870.12,139.04c-2.56,4.23-8.17,6-13.09,6-11.91,0-18.6-8.66-18.6-19.1v-30.91h14.96v27.76c0,4.73,2.56,8.47,7.87,8.47,5.02,0,8.17-3.44,8.17-8.37v-27.86h14.96v40.16c0,4.43,.39,7.97,.49,8.76h-14.37c-.2-.89-.39-3.64-.39-4.92Z"/><path class="c" d="M897.58,143.96v-48.92h14.27v5.61c2.46-4.33,8.76-7.09,14.08-7.09,6.99,0,12.01,2.85,14.47,7.68,3.84-5.51,8.56-7.68,15.16-7.68,9.25,0,18.11,5.41,18.11,18.7v31.7h-14.47v-28.35c0-4.63-2.46-8.27-7.78-8.27s-8.17,4.04-8.17,8.37v28.25h-14.76v-28.35c0-4.63-2.46-8.27-7.88-8.27s-8.07,4.04-8.07,8.47v28.15h-14.96Z"/><path class="c" d="M1030.76,129.89c-2.36,8.47-10.14,15.55-22.54,15.55-13.49,0-25.49-9.65-25.49-26.08s11.71-25.79,24.41-25.79c15.16,0,24.51,9.35,24.51,25.1,0,2.07-.2,4.33-.3,4.63h-34.06c.29,5.51,5.32,9.45,11.12,9.45,5.41,0,8.46-2.56,9.84-6.4l12.5,3.54Zm-13.58-16.24c-.2-3.74-2.76-8.27-9.84-8.27-6.3,0-9.45,4.63-9.75,8.27h19.59Zm-5.12-24.41h-11.91l9.06-14.86h16.73l-13.88,14.86Z"/><path class="c" d="M1072.39,109.81c-1.67-.39-3.25-.49-4.72-.49-6,0-11.42,3.54-11.42,13.29v21.36h-14.96v-48.92h14.47v6.6c2.56-5.51,8.76-7.09,12.7-7.09,1.48,0,2.95,.2,3.94,.49v14.77Z"/><path class="c" d="M1088.83,71.32c4.92,0,8.86,3.94,8.86,8.76s-3.94,8.76-8.86,8.76-8.66-3.94-8.66-8.76,3.94-8.76,8.66-8.76Zm-7.38,72.64v-48.92h14.96v48.92h-14.96Z"/><path class="c" d="M1142.97,162.67v-22.64c-2.17,3.05-6.69,5.02-12.8,5.02-13.98,0-24.21-10.73-24.21-25.69s9.65-25.49,23.62-25.49c8.66,0,12.7,3.94,13.78,6v-4.82h14.27v67.62h-14.67Zm-10.83-31.01c5.81,0,11.02-4.04,11.02-12.21s-5.22-12.11-11.02-12.11-11.03,3.94-11.03,12.11,5.22,12.21,11.03,12.21Z"/><path class="c" d="M1201.93,139.04c-2.56,4.23-8.17,6-13.09,6-11.91,0-18.6-8.66-18.6-19.1v-30.91h14.96v27.76c0,4.73,2.56,8.47,7.87,8.47,5.02,0,8.17-3.44,8.17-8.37v-27.86h14.96v40.16c0,4.43,.39,7.97,.49,8.76h-14.37c-.2-.89-.39-3.64-.39-4.92Z"/><path class="c" d="M1273.78,129.89c-2.36,8.47-10.14,15.55-22.54,15.55-13.49,0-25.49-9.65-25.49-26.08s11.71-25.79,24.41-25.79c15.16,0,24.51,9.35,24.51,25.1,0,2.07-.2,4.33-.3,4.63h-34.06c.29,5.51,5.32,9.45,11.12,9.45,5.41,0,8.46-2.56,9.84-6.4l12.5,3.54Zm-13.58-16.24c-.2-3.74-2.76-8.27-9.84-8.27-6.3,0-9.45,4.63-9.75,8.27h19.59Z"/><path class="c" d="M547.67,247.91h-26.97l-5.02,14.17h-16.34l26.28-69.79h18.01l25.99,69.79h-16.93l-5.02-14.17Zm-21.85-14.17h16.93l-8.37-24.12-8.56,24.12Z"/><path class="c" d="M590.58,237.67c0,7.78,5.22,12.11,11.42,12.11,5.81,0,9.06-3.64,10.14-7.28l13.19,4.04c-2.17,8.56-10.24,17.03-23.33,17.03-14.57,0-26.28-10.73-26.28-25.89s11.42-25.99,25.79-25.99c13.49,0,21.36,8.27,23.53,17.03l-13.39,4.04c-1.08-3.74-4.04-7.28-9.84-7.28-6.2,0-11.22,4.33-11.22,12.21Z"/><path class="c" d="M648.36,237.67c0,7.78,5.22,12.11,11.42,12.11,5.81,0,9.06-3.64,10.14-7.28l13.19,4.04c-2.17,8.56-10.24,17.03-23.33,17.03-14.57,0-26.28-10.73-26.28-25.89s11.42-25.99,25.79-25.99c13.49,0,21.36,8.27,23.53,17.03l-13.39,4.04c-1.08-3.74-4.04-7.28-9.84-7.28-6.2,0-11.22,4.33-11.22,12.21Z"/><path class="c" d="M739.31,248c-2.36,8.47-10.14,15.55-22.54,15.55-13.49,0-25.49-9.65-25.49-26.08s11.71-25.79,24.41-25.79c15.16,0,24.51,9.35,24.51,25.1,0,2.07-.2,4.33-.3,4.63h-34.06c.29,5.51,5.32,9.45,11.12,9.45,5.41,0,8.46-2.56,9.84-6.4l12.5,3.54Zm-13.58-16.24c-.2-3.74-2.76-8.27-9.84-8.27-6.3,0-9.45,4.63-9.75,8.27h19.59Z"/><path class="c" d="M761.55,245.94c.2,3.35,2.56,6.59,7.68,6.59,3.84,0,5.71-2.07,5.71-4.23,0-1.77-1.18-3.25-4.82-4.04l-5.61-1.28c-10.43-2.26-14.57-8.17-14.57-15.06,0-8.96,7.88-16.24,18.8-16.24,14.17,0,19.1,8.86,19.59,14.57l-12.4,2.26c-.39-3.25-2.46-6-6.99-6-2.85,0-5.32,1.67-5.32,4.23,0,2.07,1.67,3.25,3.84,3.64l6.5,1.28c10.14,2.07,15.06,8.17,15.06,15.36,0,8.37-6.4,16.54-19.49,16.54-15.36,0-20.28-9.94-20.67-15.36l12.7-2.26Z"/><path class="c" d="M810.47,245.94c.2,3.35,2.56,6.59,7.68,6.59,3.84,0,5.71-2.07,5.71-4.23,0-1.77-1.18-3.25-4.82-4.04l-5.61-1.28c-10.43-2.26-14.57-8.17-14.57-15.06,0-8.96,7.88-16.24,18.8-16.24,14.17,0,19.1,8.86,19.59,14.57l-12.4,2.26c-.39-3.25-2.46-6-6.99-6-2.85,0-5.32,1.67-5.32,4.23,0,2.07,1.67,3.25,3.84,3.64l6.5,1.28c10.14,2.07,15.06,8.17,15.06,15.36,0,8.37-6.4,16.54-19.49,16.54-15.36,0-20.28-9.94-20.67-15.36l12.7-2.26Z"/><path class="c" d="M858.11,189.44c4.92,0,8.86,3.94,8.86,8.76s-3.94,8.76-8.86,8.76-8.66-3.94-8.66-8.76,3.94-8.76,8.66-8.76Zm-7.38,72.64v-48.92h14.96v48.92h-14.96Z"/><path class="c" d="M881.83,262.08v-71.27h14.67v26.97c2.07-3.05,7.48-5.81,14.17-5.81,14.17,0,22.74,10.83,22.74,25.49s-9.65,25.69-23.33,25.69c-6.5,0-11.52-2.85-13.78-6.6v5.51h-14.47Zm25.59-36.62c-5.81,0-11.12,3.84-11.12,12.11s5.32,12.21,11.12,12.21,11.02-4.04,11.02-12.21-5.22-12.11-11.02-12.11Z"/><path class="c" d="M946.11,262.08v-71.27h14.96v71.27h-14.96Z"/><path class="c" d="M1021.8,248c-2.36,8.47-10.14,15.55-22.54,15.55-13.49,0-25.49-9.65-25.49-26.08s11.71-25.79,24.41-25.79c15.16,0,24.51,9.35,24.51,25.1,0,2.07-.2,4.33-.3,4.63h-34.06c.29,5.51,5.32,9.45,11.12,9.45,5.41,0,8.46-2.56,9.84-6.4l12.5,3.54Zm-13.58-16.24c-.2-3.74-2.76-8.27-9.84-8.27-6.3,0-9.45,4.63-9.75,8.27h19.59Z"/><path d="M1060.29,220.05c-.1-.89-.1-1.77-.1-2.56,0-10.93,8.07-20.67,22.05-20.67s21.56,8.96,21.56,19.59c0,8.37-4.72,15.06-12.01,19.69l-12.6,8.07c-3.64,2.36-6.89,5.02-7.78,8.96h32.78v8.96h-44.69c.2-10.43,4.33-18.41,15.16-25.4l10.63-6.89c6-3.84,8.76-8.37,8.76-13.29,0-5.81-3.94-11.22-12.01-11.22s-12.3,5.81-12.3,13.09c0,.89,.1,1.87,.2,2.85l-9.65-1.18Z"/><path d="M1121.8,207.06c4.13-6.2,10.53-10.24,19.59-10.24s15.45,4.04,19.59,10.24c4.23,6.3,5.71,14.37,5.71,23.13s-1.48,16.83-5.71,23.13c-4.13,6.2-10.53,10.24-19.59,10.24s-15.45-4.04-19.59-10.24c-4.23-6.3-5.71-14.37-5.71-23.13s1.48-16.83,5.71-23.13Zm9.45,43.8c2.46,2.56,5.61,4.13,10.14,4.13s7.68-1.57,10.14-4.13c3.84-4.04,5.61-10.93,5.61-20.67s-1.77-16.64-5.61-20.67c-2.46-2.56-5.61-4.13-10.14-4.13s-7.68,1.57-10.14,4.13c-3.84,4.04-5.61,10.93-5.61,20.67s1.77,16.64,5.61,20.67Z"/><path d="M1178.89,220.05c-.1-.89-.1-1.77-.1-2.56,0-10.93,8.07-20.67,22.05-20.67s21.56,8.96,21.56,19.59c0,8.37-4.72,15.06-12.01,19.69l-12.6,8.07c-3.64,2.36-6.89,5.02-7.78,8.96h32.78v8.96h-44.69c.2-10.43,4.33-18.41,15.16-25.4l10.63-6.89c6-3.84,8.76-8.37,8.76-13.29,0-5.81-3.94-11.22-12.01-11.22s-12.3,5.81-12.3,13.09c0,.89,.1,1.87,.2,2.85l-9.65-1.18Z"/><path d="M1242.48,242c.59,7.87,6.4,13.19,14.37,13.19s13.68-5.02,13.68-12.89c0-8.76-6.4-13.19-13.78-13.19-4.53,0-8.86,1.77-11.62,4.63-3.35-1.28-6.2-2.56-9.45-3.74l8.27-31.7h33.66v8.86h-27.27l-4.73,18.31c2.85-3.15,7.97-4.72,12.99-4.72,12.5,0,21.66,7.97,21.66,21.16,0,12.01-9.25,21.75-23.43,21.75s-22.74-8.86-23.62-18.9l9.25-2.76Z"/></g><g><path class="c" d="M303.15,269.02H99.65c-3.76,0-6.81-3.05-6.81-6.81V58.71c0-3.76,3.05-6.81,6.81-6.81h203.49c3.76,0,6.81,3.05,6.81,6.81v203.49c0,3.76-3.05,6.81-6.81,6.81Zm-196.68-13.63h189.87V65.52H106.47V255.39Z"/><path class="c" d="M303.15,269.02H99.65c-3,0-5.65-1.97-6.52-4.84-.87-2.88,.25-5.98,2.75-7.65l133.83-88.91c1.12-.74,2.43-1.14,3.77-1.14h203.49c3,0,5.65,1.97,6.52,4.84,.87,2.88-.25,5.98-2.75,7.65l-133.83,88.91c-1.12,.74-2.43,1.14-3.77,1.14Zm-180.93-13.63h178.87l113.32-75.29H235.54l-113.32,75.29Z"/><path class="c" d="M303.15,269.02H99.65c-2.42,0-4.66-1.28-5.88-3.37-1.22-2.09-1.25-4.66-.07-6.77L183.54,98.46c1.21-2.15,3.48-3.49,5.95-3.49h203.49c2.42,0,4.66,1.28,5.88,3.37,1.22,2.09,1.25,4.66,.07,6.77l-89.83,160.41c-1.21,2.15-3.48,3.49-5.95,3.49Zm-191.87-13.63h187.88l82.2-146.79H193.48L111.28,255.39Z"/><path class="c" d="M432.4,269.93h-128.33c-3.76,0-6.81-3.05-6.81-6.81s3.05-6.81,6.81-6.81h128.33c3.76,0,6.81,3.05,6.81,6.81s-3.05,6.81-6.81,6.81Z"/></g></g></g></svg>