<?xml version="1.0" encoding="UTF-8"?><svg xmlns="http://www.w3.org/2000/svg" xmlns:xlink="http://www.w3.org/1999/xlink" viewBox="0 0 1366 543"><defs><style>.d,.e,.f{fill:none;}.e,.f,.g,.h,.i,.j{stroke:#6975cf;}.e,.g,.h,.i,.j{stroke-linejoin:round;}.k{fill:#fdf3ec;}.f{stroke-miterlimit:10;}.l{clip-path:url(#c);}.g{fill:#6975cf;}.h{fill:#8fbceb;}.i{fill:#ee8c3d;}.j{fill:#edc883;}</style><clipPath id="c"><rect class="d" width="1366" height="543"/></clipPath></defs><g id="a"/><g id="b"><g class="l"><g><rect class="k" width="1366" height="543"/><path class="j" d="M1049.37,309.14h-53.14l-9.89,27.93h-32.19l51.78-137.5h35.49l51.2,137.5h-33.36l-9.89-27.93Zm-43.05-27.93h33.36l-16.49-47.52-16.87,47.52Z"/><g><path class="i" d="M31.81,267.55c-8.95-2.98-29.11-6.99-38-9.94v-32c8.86-2.95,29.03-7.1,38-10.09v52.04Z"/><path class="g" d="M41.69,241.58c0,8.78,0,17.55,0,26.33,0,2.72-1.38,4.74-3.72,5.48-3.23,1.03-6.54-1.1-6.94-4.47-.05-.38-.05-.77-.05-1.16,0-17.49,0-34.98,0-52.48,0-2.74,1.28-4.76,3.51-5.55,3.33-1.18,6.74,.94,7.16,4.45,.05,.44,.05,.89,.05,1.34,0,8.69,0,17.37,0,26.06Z"/><path class="i" d="M-2.43,268.32c1.15,0,2.16-.05,3.17,.01,1.66,.09,2.83-.51,3.37-2.27l5.09,1.68c-.7,2.36-2.11,4.04-4.25,5.13-2.15,1.1-4.47,.72-6.87,.83,.09,1.09,.16,2.14,.25,3.19,.16,1.78,.5,3.56,.45,5.32-.09,3.09-1.76,5.33-4.48,6.68-2.64,1.31-5.33,1.15-7.82-.44-2.18-1.39-3.37-3.41-3.63-6.03-.64-6.33-1.36-12.65-2.05-18.98-.01-.12,0-.24,0-.49h.95c4.11,0,8.22-.04,12.32,.03,.92,.02,1.84,.38,2.74,.67,.2,.06,.35,.49,.39,.77,.15,1.29,.26,2.59,.38,3.89Z"/><path class="j" d="M49.94,230.82c-1.37-.01-2.37-.73-2.74-1.82-.37-1.07-.02-2.27,.87-2.96,.19-.14,.39-.27,.61-.37,3.54-1.74,7.08-3.49,10.63-5.22,1.23-.6,2.44-.37,3.27,.53,.78,.85,.98,2.07,.37,3.05-.3,.48-.76,.95-1.26,1.2-3.55,1.79-7.13,3.53-10.71,5.27-.39,.19-.84,.26-1.04,.32Z"/><path class="j" d="M49.99,246.9c.21,.07,.69,.16,1.11,.37,3.52,1.71,7.04,3.44,10.55,5.18,1.19,.59,1.78,1.66,1.64,2.8-.14,1.12-.97,2.06-2.1,2.27-.45,.08-1,.1-1.39-.09-3.85-1.85-7.7-3.71-11.51-5.64-1.06-.54-1.45-1.82-1.13-2.93,.34-1.17,1.37-1.96,2.83-1.96Z"/><path class="j" d="M55.12,241.54c-1.72,0-3.45,.01-5.17,0-1.73-.01-2.92-1.14-2.9-2.71,.02-1.54,1.19-2.64,2.87-2.65,3.51-.01,7.01-.01,10.52,0,1.67,0,2.85,1.13,2.86,2.66,.01,1.53-1.17,2.67-2.82,2.69-1.78,.02-3.57,0-5.35,0Z"/></g><g><circle class="i" cx="278.25" cy="286.6" r="10"/><circle class="j" cx="277.81" cy="217.6" r="5"/><path class="h" d="M325.34,286.47l-17.09-17.09v-21.78c0-16.57-13.43-30-30-30h0c-16.57,0-30,13.43-30,30v21.91l-17.09,17.09h77.09v-.13h17.09Z"/><line class="e" x1="248.31" y1="269.1" x2="308.31" y2="269.1"/></g><g><path class="i" d="M148.31,218.43h0c-9.76-9.76-25.59-9.76-35.36,0h0c-9.76,9.76-9.76,25.59,0,35.36h0l35.36,35.36,35.36-35.36h0c9.76-9.76,9.76-25.59,0-35.36h0c-9.76-9.76-25.59-9.76-35.36,0h0Z"/><circle class="j" cx="173.31" cy="225.1" r="5"/></g><path class="i" d="M361.04,364.35s12.82,107.25-56.96,107.25h124.24l239.99-38.5-307.27-68.75Z"/><path class="g" d="M907.93,242.1s29.38-8,72.38-57h-29.97l104.97-99,97,98-33,1s-23.6,48.07-64.3,57.04l-147.08-.04Z"/><path class="g" d="M428.32,471.6h437.48c6.06,0,9.84-6.57,6.79-11.81l-148.51-255.28c-1.41-2.42-4-3.91-6.79-3.91H278.91c-6.07,0-9.85,6.59-6.78,11.83l149.41,255.28c1.41,2.41,3.99,3.89,6.78,3.89Z"/><path class="j" d="M305.16,228.91l128.88,222.28c1.41,2.43,4,3.92,6.8,3.92h395.77c6.06,0,9.84-6.56,6.8-11.8l-128.83-222.28c-1.41-2.43-4-3.92-6.8-3.92H311.96c-6.06,0-9.84,6.56-6.8,11.8Z"/><path class="i" d="M305.02,228.68l3.36,5.8,413.79-.35-9.86-17.02H311.69c-5.94,0-9.65,6.43-6.67,11.57Z"/><path class="h" d="M749.96,270.75l-10.35,2.09-54.31-91.71c-.92-1.56-2.6-2.52-4.41-2.51l-163.47,.38-7.18-8.97-5.36,12.13c-.58,1.39-.57,3.04,.29,4.53l53.95,92.57c2.28,3.93,6.48,6.35,11.03,6.35h168.06c2.01,0,3.63-1.11,4.47-2.65h0l7.27-12.21Z"/><path class="j" d="M510.49,174.56l54.64,93.13c1.93,3.35,5.5,5.42,9.37,5.42h171.13c4.02,0,6.51-4.4,4.47-7.88l-56.25-96.04c-.94-1.6-2.65-2.58-4.5-2.57l-174.55,.41c-3.84,0-6.23,4.2-4.3,7.54Z"/><path class="i" d="M514.33,181.1h186.5l-6.99-11.93c-.94-1.6-2.65-2.58-4.5-2.57l-174.55,.41c-3.84,0-6.23,4.2-4.3,7.54l3.84,6.55Z"/><path class="g" d="M561.14,330.09l-8.04,1.62-42.18-71.23c-.71-1.21-2.02-1.95-3.42-1.95l-126.96,.3-5.57-6.97-4.16,9.42c-.45,1.08-.44,2.36,.23,3.52l41.9,71.9c1.77,3.05,5.04,4.93,8.57,4.93h130.53c1.56,0,2.82-.86,3.47-2.06h0l5.65-9.48Z"/><path class="i" d="M375.15,255.38l42.43,72.33c1.5,2.6,4.27,4.21,7.28,4.21h132.91c3.12,0,5.06-3.42,3.47-6.12l-43.69-74.59c-.73-1.24-2.06-2-3.49-2l-135.57,.32c-2.98,0-4.84,3.26-3.34,5.86Z"/><path class="j" d="M394.43,269.23l26.9,44.25c.61,1.01,1.7,1.62,2.88,1.62h39.81c2.53,0,4.16-2.68,2.99-4.93l-22.98-44.25c-.58-1.12-1.73-1.82-2.99-1.82h-43.73c-2.63,0-4.25,2.88-2.88,5.12Z"/><path class="h" d="M455.17,269.06l28.19,51.25c.58,1.1,1.73,1.79,2.98,1.79h32.26c2.63,0,4.25-2.87,2.89-5.12l-30.99-51.25c-.61-1.01-1.71-1.63-2.89-1.63h-29.46c-2.54,0-4.17,2.71-2.98,4.95Z"/><path class="i" d="M1079.95,411.85l-10.27,2.07-53.92-91.05c-.91-1.55-2.58-2.5-4.38-2.49l-162.29,.38-7.13-8.91-5.32,12.04c-.58,1.38-.56,3.02,.29,4.5l53.56,91.91c2.26,3.9,6.44,6.31,10.95,6.31h166.84c1.99,0,3.6-1.1,4.44-2.63h0l7.22-12.12Z"/><path class="g" d="M842.21,316.36l54.24,92.46c1.92,3.33,5.46,5.38,9.3,5.38h169.89c3.99,0,6.47-4.37,4.44-7.83l-55.85-95.35c-.93-1.59-2.63-2.56-4.47-2.55l-173.29,.41c-3.81,0-6.18,4.17-4.27,7.49Z"/><g><ellipse class="f" cx="856.2" cy="315.91" rx="2.76" ry="3.92" transform="translate(63.61 768.32) rotate(-49.97)"/><ellipse class="h" cx="866.9" cy="315.91" rx="2.76" ry="3.92" transform="translate(67.43 776.51) rotate(-49.97)"/><ellipse class="j" cx="876.77" cy="315.91" rx="2.76" ry="3.92" transform="translate(70.95 784.07) rotate(-49.97)"/></g><path class="g" d="M655.5,400.98h145.81s30.82-18.25,56.41-69.06c25.59-50.81,69.6-131.31,69.6-131.31h-109.06c-22.95,0-37.71,8-60.83,51.25-23.12,43.25-65.74,132.99-101.93,149.12Z"/><path class="h" d="M627.22,386.83c25.09,20.27,44.23,34.27,98.16-71.73,0,0-5.11-7.47-16.59-7.47s-136.46,.3-136.46,.3l35.37,73.44,19.51,5.46Z"/><path class="h" d="M436.31,455.1s88.12-137.91,136.02-147.17c24.98-4.83,22.79,50.62,54.88,78.9l-48.29,68.27h-142.61Z"/><path class="g" d="M607.71,360.1c-13.34-26.81-17.05-55.71-35.37-52.17-18.32,3.54-42.52,25.91-65.42,52.17h100.8Z"/><path class="h" d="M764.03,240.1c-2.13,3.6-4.32,7.5-6.59,11.75-23.12,43.25-65.74,132.99-101.93,149.12h145.81s30.82-18.25,56.41-69.06c13.97-27.73,33.42-64.31,48.21-91.81h-141.91Z"/><path class="h" d="M825.39,200.6c31.92,0,40.19,42.94,82.54,41.5,29.38-1,59.94-41.5,59.94-41.5h-142.49Z"/><g><path class="j" d="M970.63,344.01h-94.43c-1.62,0-3.71-1.31-4.66-2.93l-2.69-4.55c-.96-1.62-.42-2.93,1.2-2.93h94.43c1.62,0,3.71,1.31,4.66,2.93l2.69,4.55c.96,1.62,.42,2.93-1.2,2.93Z"/><path class="j" d="M980.7,361.04h-94.43c-1.62,0-3.71-1.31-4.66-2.93l-2.69-4.55c-.96-1.62-.42-2.93,1.2-2.93h94.43c1.62,0,3.71,1.31,4.66,2.93l2.69,4.55c.96,1.62,.42,2.93-1.2,2.93Z"/><path class="j" d="M990.78,378.07h-94.43c-1.62,0-3.71-1.31-4.66-2.93l-2.69-4.55c-.96-1.62-.42-2.93,1.2-2.93h94.43c1.62,0,3.71,1.31,4.66,2.93l2.69,4.55c.96,1.62,.42,2.93-1.2,2.93Z"/><path class="j" d="M1000.85,395.1h-94.43c-1.62,0-3.71-1.31-4.66-2.93l-2.69-4.55c-.96-1.62-.42-2.93,1.2-2.93h94.43c1.62,0,3.71,1.31,4.66,2.93l2.69,4.55c.96,1.62,.42,2.93-1.2,2.93Z"/></g><path class="i" d="M1039.5,395.1h-23.18c-2.74,0-6.28-2.22-7.91-4.97l-30.5-51.56c-1.62-2.74-.71-4.97,2.03-4.97h23.18c2.74,0,6.28,2.22,7.91,4.97l30.5,51.56c1.62,2.74,.71,4.97-2.03,4.97Z"/><g><ellipse class="h" cx="317.31" cy="225.1" rx="3.36" ry="4.76" transform="translate(-59.14 323.29) rotate(-49.97)"/><ellipse class="j" cx="330.31" cy="225.1" rx="3.36" ry="4.76" transform="translate(-54.5 333.24) rotate(-49.97)"/><ellipse class="g" cx="342.31" cy="225.1" rx="3.36" ry="4.76" transform="translate(-50.22 342.43) rotate(-49.97)"/></g><g><ellipse class="j" cx="386.1" cy="255.03" rx="2.16" ry="3.06" transform="translate(-57.51 386.63) rotate(-49.97)"/><ellipse class="h" cx="394.46" cy="255.03" rx="2.16" ry="3.06" transform="translate(-54.53 393.04) rotate(-49.97)"/><ellipse class="g" cx="402.18" cy="255.03" rx="2.16" ry="3.06" transform="translate(-51.77 398.95) rotate(-49.97)"/></g><g><ellipse class="j" cx="524.59" cy="174.1" rx="2.78" ry="3.95" transform="translate(53.87 463.8) rotate(-49.97)"/><ellipse class="h" cx="535.36" cy="174.1" rx="2.78" ry="3.95" transform="translate(57.71 472.05) rotate(-49.97)"/><ellipse class="g" cx="545.3" cy="174.1" rx="2.78" ry="3.95" transform="translate(61.26 479.66) rotate(-49.97)"/></g><g><path class="g" d="M651.82,251.1h-51.44c-3.47,0-7.96-2.81-10.02-6.28l-36.08-60.44c-2.07-3.47-.94-6.28,2.53-6.28h51.44c3.47,0,7.96,2.81,10.02,6.28l36.08,60.44c2.07,3.47,.94,6.28-2.53,6.28Z"/><path class="g" d="M689.54,191.16h-51.44c-3.47,0-7.96-2.81-10.02-6.28h0c-2.07-3.47-.94-6.28,2.53-6.28h51.44c3.47,0,7.96,2.81,10.02,6.28h0c2.07,3.47,.94,6.28-2.53,6.28Z"/><path class="g" d="M725.02,250.6h-51.44c-3.47,0-7.96-2.81-10.02-6.28l-24.14-40.44c-2.07-3.47-.94-6.28,2.53-6.28h51.44c3.47,0,7.96,2.81,10.02,6.28l24.14,40.44c2.07,3.47,.94,6.28-2.53,6.28Z"/></g><g><path class="h" d="M653.32,247.6h-51.44c-3.47,0-7.96-2.81-10.02-6.28l-36.08-60.44c-2.07-3.47-.94-6.28,2.53-6.28h51.44c3.47,0,7.96,2.81,10.02,6.28l36.08,60.44c2.07,3.47,.94,6.28-2.53,6.28Z"/><path class="g" d="M691.04,187.66h-51.44c-3.47,0-7.96-2.81-10.02-6.28h0c-2.07-3.47-.94-6.28,2.53-6.28h51.44c3.47,0,7.96,2.81,10.02,6.28h0c2.07,3.47,.94,6.28-2.53,6.28Z"/><path class="i" d="M726.52,247.1h-51.44c-3.47,0-7.96-2.81-10.02-6.28l-24.14-40.44c-2.07-3.47-.94-6.28,2.53-6.28h51.44c3.47,0,7.96,2.81,10.02,6.28l24.14,40.44c2.07,3.47,.94,6.28-2.53,6.28Z"/></g><path class="i" d="M1178.6,368.01c.24,4.15,3.17,8.17,9.51,8.17,4.76,0,7.07-2.56,7.07-5.24,0-2.2-1.46-4.02-5.98-5l-6.95-1.59c-12.93-2.8-18.05-10.12-18.05-18.66,0-11.1,9.76-20.12,23.29-20.12,17.56,0,23.66,10.98,24.27,18.05l-15.37,2.8c-.49-4.02-3.05-7.44-8.66-7.44-3.54,0-6.59,2.07-6.59,5.24,0,2.56,2.07,4.02,4.76,4.51l8.05,1.59c12.56,2.56,18.66,10.12,18.66,19.02,0,10.37-7.93,20.49-24.15,20.49-19.02,0-25.12-12.32-25.61-19.02l15.73-2.81Z"/><path class="j" d="M1321.67,253.03c1.94,9.31,9.7,16.1,20.75,16.1,14.74,0,23.85-7.18,23.85-24.63v-4.46c-3.49,5.24-11.83,10.86-25.79,10.86-25.6,0-44.8-20.17-44.8-46.93s18.42-47.13,44.8-47.13c15.71,0,24.05,6.98,26.76,12.02v-10.28h28.12v84.36c0,27.73-15.52,51.78-51.59,51.78-27.73,0-45.38-17.07-48.1-34.33l25.99-7.37Zm44.8-49.07c0-13.19-9.5-21.33-20.56-21.33s-20.75,8.15-20.75,21.33,8.92,21.33,20.75,21.33,20.56-8.15,20.56-21.33Z"/><path class="h" d="M1109.64,246.23h54.55l.52,16.39h-2.31c-1.13-5.15-2.57-8.5-4.31-10.06-1.74-1.55-5.41-2.33-11-2.33h-5.37v49.37c0,3.72,.58,6.02,1.74,6.91,1.16,.89,3.71,1.48,7.63,1.76v1.79h-28.12v-1.79c4.08-.31,6.63-.98,7.63-2.02,1-1.03,1.51-3.63,1.51-7.78v-48.24h-5.42c-5.34,0-8.97,.77-10.9,2.31-1.93,1.54-3.38,4.9-4.36,10.08h-2.36l.57-16.39Z"/><path class="h" d="M1221.67,97.27c2.52,1.33,4.96,3.16,7.29,5.49v-30.11c0-3.85-.43-6.5-1.28-7.95-.85-1.45-2.89-2.18-6.11-2.18-.76,0-1.42,.03-1.99,.1-.57,.06-1.83,.19-3.79,.38v-3.13l7.76-1.99c2.84-.76,5.68-1.55,8.52-2.37,2.84-.82,5.33-1.61,7.48-2.37,1.01-.31,2.68-.91,5.02-1.8l.57,.19-.19,9.94c-.06,3.6-.13,7.31-.19,11.13-.06,3.82-.09,7.59-.09,11.32l-.19,77.37c0,4.1,.5,6.98,1.52,8.62,1.01,1.64,3.69,2.46,8.05,2.46,.69,0,1.39-.01,2.08-.05,.69-.03,1.39-.11,2.08-.24v3.12c-.38,.13-4.96,1.71-13.73,4.74l-14.87,5.59-.66-.85v-11.65c-3.54,3.85-6.6,6.6-9.18,8.24-4.61,2.84-9.94,4.26-16,4.26-10.73,0-19.43-4.15-26.09-12.45-6.66-8.3-9.99-17.91-9.99-28.84,0-13.7,3.99-25.46,11.98-35.27,7.99-9.82,17.76-14.72,29.31-14.72,4.61,0,8.84,1.01,12.69,3.03Zm2.75,73.67c3.03-2.9,4.55-5.65,4.55-8.24v-40.62c0-8.21-2.19-14-6.58-17.38-4.39-3.38-8.66-5.07-12.83-5.07-7.95,0-14.14,3.52-18.56,10.56-4.42,7.04-6.63,15.71-6.63,25.99s2.35,19.22,7.05,27.18c4.7,7.95,11.73,11.93,21.07,11.93,4.92,0,8.9-1.45,11.93-4.36Z"/></g></g></g></svg>