<?xml version="1.0" encoding="UTF-8"?><svg xmlns="http://www.w3.org/2000/svg" xmlns:xlink="http://www.w3.org/1999/xlink" viewBox="0 0 1366 543"><defs><style>.d,.e{fill:none;}.f{fill:#fdf3ec;}.g{fill:#6975cf;}.g,.h,.i,.j,.k,.e{stroke-miterlimit:10;}.g,.h,.i,.j,.k,.e,.l,.m{stroke:#6975cf;}.h{fill:#fff;}.i,.m{fill:#ee8c3d;}.j{fill:#edc883;}.k,.l{fill:#8fbceb;}.n{clip-path:url(#c);}.l,.m{stroke-linejoin:round;}</style><clipPath id="c"><rect class="d" width="1366" height="543"/></clipPath></defs><g id="a"/><g id="b"><g class="n"><g><rect class="f" width="1366" height="543"/><path class="g" d="M265.48,362.58c2.87-.14,4.75-.67,5.66-1.6,.91-.93,1.36-2.9,1.36-5.9v-26.05h-6.94v-2.72h6.94c0-4.27,.58-7.88,1.75-10.83,2.22-5.65,6.3-8.48,12.23-8.48,2.38,0,4.52,.47,6.4,1.42,1.88,.95,2.83,2.22,2.83,3.81,0,.89-.32,1.69-.97,2.39-.65,.7-1.43,1.06-2.34,1.06-.78,0-1.45-.24-2.02-.71-.57-.47-1.24-1.3-2.02-2.5l-.69-1.05c-.38-.57-.82-1.05-1.33-1.44-.51-.39-1.22-.59-2.14-.59-2.05,0-3.43,1.01-4.16,3.04-.4,1.08-.61,2.5-.61,4.26v9.62h10.1v2.72h-10.1v26.05c0,3.06,.41,5.01,1.24,5.86,.83,.85,2.98,1.4,6.47,1.64v1.14h-21.67v-1.14Z"/><path class="j" d="M59.96,162.62h2.72c1.26,6.26,2.96,11.07,5.1,14.42,3.84,6.15,9.45,9.23,16.85,9.23,4.11,0,7.36-1.14,9.74-3.42,2.38-2.28,3.58-5.23,3.58-8.86,0-2.31-.69-4.53-2.06-6.67-1.37-2.14-3.79-4.23-7.25-6.26l-9.23-5.27c-6.76-3.63-11.73-7.28-14.91-10.96-3.19-3.68-4.78-8.02-4.78-13.02,0-6.15,2.2-11.21,6.59-15.16,4.39-3.95,9.91-5.93,16.56-5.93,2.91,0,6.11,.55,9.6,1.65,3.49,1.1,5.45,1.65,5.89,1.65,.99,0,1.7-.14,2.14-.41,.44-.27,.82-.71,1.15-1.32h1.98l.58,22.99h-2.55c-1.1-5.33-2.58-9.48-4.45-12.44-3.41-5.49-8.32-8.24-14.75-8.24-3.85,0-6.87,1.18-9.06,3.54-2.2,2.36-3.3,5.14-3.3,8.32,0,5.05,3.79,9.56,11.37,13.51l10.88,5.85c11.7,6.37,17.55,13.79,17.55,22.25,0,6.48-2.43,11.78-7.28,15.9-4.85,4.12-11.2,6.18-19.04,6.18-3.29,0-7.02-.55-11.19-1.65-4.17-1.1-6.64-1.65-7.4-1.65-.66,0-1.23,.23-1.73,.7-.49,.47-.88,1.03-1.15,1.69h-2.14v-26.61Z"/><path class="i" d="M31.31,324.29v-68.61h44.22v14.51h-28.93v14.51h25.45v13.93h-25.35v25.64h-15.39Z"/><path class="m" d="M355.67,461.4c.24,4.15,3.17,8.17,9.51,8.17,4.76,0,7.07-2.56,7.07-5.24,0-2.2-1.46-4.02-5.98-5l-6.95-1.59c-12.93-2.8-18.05-10.12-18.05-18.66,0-11.1,9.76-20.12,23.29-20.12,17.56,0,23.66,10.98,24.27,18.05l-15.37,2.8c-.49-4.02-3.05-7.44-8.66-7.44-3.54,0-6.59,2.07-6.59,5.24,0,2.56,2.07,4.02,4.76,4.51l8.05,1.59c12.56,2.56,18.66,10.12,18.66,19.02,0,10.37-7.93,20.49-24.15,20.49-19.02,0-25.12-12.32-25.61-19.02l15.73-2.81Z"/><path class="l" d="M208.36,217.97c0,9.08,6.09,14.14,13.34,14.14,6.78,0,10.58-4.25,11.84-8.51l15.41,4.71c-2.53,10-11.96,19.89-27.25,19.89-17.02,0-30.7-12.53-30.7-30.24s13.34-30.35,30.12-30.35c15.75,0,24.95,9.66,27.48,19.89l-15.64,4.71c-1.26-4.37-4.71-8.51-11.5-8.51-7.24,0-13.11,5.06-13.11,14.26Z"/><path class="l" d="M152.29,342.69c1.52,.8,2.99,1.9,4.4,3.31v-18.16c0-2.32-.26-3.92-.77-4.8-.51-.88-1.74-1.31-3.68-1.31-.46,0-.86,.02-1.2,.06-.34,.04-1.1,.11-2.28,.23v-1.88l4.68-1.2c1.71-.46,3.43-.93,5.14-1.43,1.71-.49,3.22-.97,4.51-1.43,.61-.19,1.62-.55,3.03-1.09l.34,.11-.11,6c-.04,2.17-.08,4.41-.11,6.71-.04,2.3-.06,4.58-.06,6.82l-.11,46.66c0,2.48,.3,4.21,.91,5.2,.61,.99,2.23,1.48,4.85,1.48,.42,0,.84,0,1.26-.03,.42-.02,.84-.07,1.26-.14v1.88c-.23,.08-2.99,1.03-8.28,2.86l-8.97,3.37-.4-.51v-7.02c-2.13,2.32-3.98,3.98-5.54,4.97-2.78,1.71-6,2.57-9.65,2.57-6.47,0-11.72-2.5-15.73-7.51-4.02-5.01-6.02-10.8-6.02-17.39,0-8.26,2.41-15.35,7.22-21.27,4.82-5.92,10.71-8.88,17.67-8.88,2.78,0,5.33,.61,7.65,1.83Zm1.66,44.43c1.83-1.75,2.74-3.41,2.74-4.97v-24.5c0-4.95-1.32-8.44-3.97-10.48-2.65-2.04-5.23-3.06-7.74-3.06-4.8,0-8.53,2.12-11.19,6.37-2.67,4.25-4,9.47-4,15.68s1.42,11.59,4.25,16.39c2.84,4.8,7.07,7.2,12.71,7.2,2.97,0,5.37-.88,7.2-2.63Z"/><path class="g" d="M776.52,542.43c14-21.82,22.12-47.77,22.12-75.62,0-77.44-62.77-140.21-140.21-140.21s-140.21,62.77-140.21,140.21c0,27.85,8.12,53.8,22.12,75.62h236.18Z"/><path class="j" d="M546.41,541.64v-61.83c0-35.37-21.44-67.22-54.21-80.53l-40.68-16.52c-13.1-5.32-24.71-13.76-33.81-24.58l-69.63-82.77,1.87-1.83c7.62-7.43,19.06-9.36,28.7-4.85h0l-14.02-20.11,4.1-1.3c10.05-3.18,21.01-1.56,29.7,4.41l.06,.04-2.01-4.35c-1.93-4.19,.59-9.08,5.13-9.93h0c5.11-.95,10.38-.06,14.89,2.53l12.23,7.04-.69-2.18c-1.49-4.7,1.49-9.65,6.34-10.53h0c5.1-.92,10.31,.9,13.71,4.81h0l177.26,159.11,21.37,13.99v129.37h-100.31Z"/><path class="g" d="M904.19,320.3c-.92,0-1.79-.54-2.17-1.43l-91.57-213.09-91.57,213.09c-.52,1.2-1.91,1.76-3.1,1.24-1.2-.52-1.75-1.9-1.24-3.1l93.74-218.14c.37-.87,1.23-1.43,2.17-1.43s1.8,.56,2.17,1.43l93.74,218.14c.52,1.2-.04,2.59-1.24,3.1-.3,.13-.62,.19-.93,.19Z"/><path class="i" d="M815.97,248.62l6.12-3.34c7.36-4.01,15.61-6.12,23.99-6.12h0v3.66l-24.38,12.15-5.72-6.35Z"/><polygon class="j" points="821.69 254.97 815.97 248.62 792.34 259.65 794.17 278.56 821.69 254.97"/><path class="i" d="M810.23,377.8h0c-32.89,0-63.65-16.23-82.22-43.37l-11.29-16.5h187.47l-12.75,17.94c-18.69,26.3-48.95,41.92-81.21,41.92Z"/><path class="g" d="M601.71,320.3c-.92,0-1.79-.54-2.17-1.43l-91.57-213.09-91.57,213.09c-.52,1.2-1.91,1.76-3.1,1.24-1.2-.52-1.75-1.9-1.24-3.1l93.74-218.14c.37-.87,1.23-1.43,2.17-1.43s1.8,.56,2.17,1.43l93.74,218.14c.52,1.2-.04,2.59-1.24,3.1-.3,.13-.62,.19-.93,.19Z"/><path class="i" d="M507.75,377.8h0c-32.89,0-63.65-16.23-82.22-43.37l-11.29-16.5h187.47l-12.75,17.94c-18.69,26.3-48.95,41.92-81.21,41.92Z"/><circle class="i" cx="775.79" cy="200.57" r="20.48"/><path class="k" d="M760.04,206.87l-4.85-.79s-6.18-7.09-1.45-19.69c0,0-11.82,.79-11.82-10.24s15.4-16.46,20.48-6.3c1.58,3.15,1.58,7.88,1.58,7.88,0,0,3.15-2.33,10.24-2.74,7.09-.41,9.98-5.13,16.41-1.98,6.43,3.15,3.28,14.18-3.02,14.18s-12.6,1.31-12.6,8.53-3.74,10.37-3.74,10.37l-11.23,.79Z"/><path class="i" d="M772.56,207.96l-4.8-6.99c-1.19-1.73-3.6-2.09-5.24-.77l-4.52,3.63c-1.55,1.25-1.8,3.51-.56,5.07l7.93,9.96c1.91,2.39,5.73,1.48,6.36-1.51l1.39-6.6c.2-.97,0-1.97-.56-2.79Z"/><path class="j" d="M775.01,229.72l7.88-3.15,12.85,25.7c3.77,7.54,3.43,16.49-.91,23.72l-2.48,4.14s-18.9,23.63-37.81,25.21l-4.31-10.94c-9.98-25.33-5.41-54.08,11.93-75.07l1.83-2.22,11.03,12.6Z"/><path class="e" d="M794.82,275.99h0c-2.61,3.72-7.79,4.52-11.4,1.76l-25.74-19.67"/><line class="h" x1="775.01" y1="229.72" x2="779.54" y2="258.07"/><path class="i" d="M782.88,226.56s0-18.9-9.45-20.48h-5.63l1.6,11.03-3.85-3.15s2.27,14.19,9.45,15.75l7.88-3.15Z"/><path class="g" d="M754.53,305.33l2.7,3.48c4.47,5.76,11.35,9.13,18.64,9.13h54.51c-5.21,11.14-6.04,23.84-2.33,35.57l4.48,14.16c1.48,4.68,2.24,9.56,2.24,14.47v5.58l9.57,2.69,14.28-72.7c1.69-8.62-3.82-17.01-12.4-18.88l-20.78-4.52,17.33-22.06h0c1.1,4.67,3.47,8.94,6.85,12.35l20.56,20.74h10.85l-25.1-54.24c-4.23-9.15-16.04-11.72-23.69-5.16l-39.89,34.19-37.81,25.21Z"/><path class="k" d="M870.16,305.33l-2.21,6.3v6.3h33.42c-1.65-4.01-4.93-7.13-9.02-8.58l-11.34-4.02h-10.85Z"/><path class="k" d="M834.76,387.72h0c-3.03,3.84-5.15,8.33-6.2,13.11l-.44,2,6.63,2.65,30.05-7.19h0c0-1.84-1.5-3.32-3.34-3.3l-5.73,.07c-4.27,.05-8.39-1.62-11.41-4.65h0l-9.57-2.69Z"/><path class="e" d="M378.64,268.73s24.37,11.4,41.01,36.6"/><line class="h" x1="398.43" y1="251.73" x2="429.76" y2="281.83"/><line class="h" x1="428.03" y1="244.89" x2="441.3" y2="254.97"/><path class="i" d="M464.77,242.28s38.03-23.67,81.97,0c0,0-3.1,52.03-37.08,75.66,0,0-40.04-15.84-44.89-75.66Z"/><path class="j" d="M545.4,387.72l-25.61-28.82-33.98-47.26,18.74-4.29c17.76-4.07,36.2,3.12,46.52,18.13h0c8.45,12.28,19.74,22.33,32.91,29.31l24.56,13.01c17.89,9.47,31.52,25.36,38.17,44.48l2.26,6.49"/><path class="g" d="M811.24,102.9H508.76c-1.3,0-2.36-1.06-2.36-2.36s1.06-2.36,2.36-2.36h302.48c1.3,0,2.36,1.06,2.36,2.36s-1.06,2.36-2.36,2.36Z"/><rect class="g" x="645.82" y="98.17" width="25.21" height="444.26"/><g><g><rect class="k" x="806.73" y="414.9" width="68.12" height="98.1" transform="translate(-86 212.46) rotate(-13.71)"/><rect class="g" x="800.6" y="429.21" width="80.39" height="69.49" rx="3.9" ry="3.9" transform="translate(-86 212.46) rotate(-13.71)"/><path class="i" d="M793.86,407.23h68.52c3.27,0,5.93,2.66,5.93,5.93v3.6h-80.39v-3.6c0-3.27,2.66-5.93,5.93-5.93Z" transform="translate(-74.04 207.98) rotate(-13.71)"/><path class="i" d="M813.44,511.8h80.39v3.6c0,3.27-2.66,5.93-5.93,5.93h-68.52c-3.27,0-5.93-2.66-5.93-5.93v-3.6h0Z" transform="translate(-98.1 217) rotate(-13.71)"/></g><path class="i" d="M560.71,495.86h244.67v14.99h-244.67c-2.57,0-4.66-2.09-4.66-4.66v-5.66c0-2.57,2.09-4.66,4.66-4.66Z" transform="translate(-99.89 175.65) rotate(-13.71)"/><rect class="j" x="712.95" y="478.16" width="13.62" height="31.34" rx="4.24" ry="4.24" transform="translate(-96.52 184.63) rotate(-13.71)"/></g><path class="j" d="M790.88,529.04h136.81c4.42,0,8,3.58,8,8v4.6h-152.81v-4.6c0-4.42,3.58-8,8-8Z"/><rect class="d" width="1366" height="543"/><path class="e" d="M506.4,340.27h0c7.5-1.09,11.55-9.39,7.8-15.97l-9.65-16.96"/></g></g></g></svg>