<?xml version="1.0" encoding="UTF-8"?><svg xmlns="http://www.w3.org/2000/svg" xmlns:xlink="http://www.w3.org/1999/xlink" viewBox="0 0 1366 543"><defs><style>.d,.e,.f{fill:none;}.g,.h{fill:#fff;}.i{fill:#fdf3ec;}.e{stroke-linecap:round;}.e,.j,.h,.k,.l,.m,.f{stroke:#6975cf;stroke-miterlimit:10;}.j{fill:#6975cf;}.k{fill:#ee8c3d;}.l{fill:#edc883;}.m{fill:#8fbceb;}.n{clip-path:url(#c);}</style><clipPath id="c"><rect class="d" width="1366" height="543"/></clipPath></defs><g id="a"/><g id="b"><g class="n"><g><rect class="i" width="1366" height="543"/><g><path class="k" d="M288.04,52.72s1.7,13.22-10.29,25.38c0,0,17.2,13.67,26.19,30.51,0,0,2.71-7.41,3.48-16.38,.76-8.98-4.61-30.76-4.61-30.76l-14.77-8.74Z"/><path class="m" d="M307.42,92.23s.53-33.24-42.43-44.91l13.23-21.5s35.19,34.38,29.2,66.41Z"/></g><g><path class="m" d="M103.96,101.68s11.31-10.01,10.19-29.44c0,0,24.83,1.29,45.06-6.31,0,0-3.22,8.37-9.27,16.62-6.05,8.25-26.88,22.81-26.88,22.81l-19.09-3.67Z"/><path class="k" d="M149.93,82.54s-24.36,28.8-69.62,6.37l-4.79,28.35s55.59-2.83,74.41-34.72Z"/></g><g><path class="l" d="M177.4,34.77s6.86,6.08,6.18,17.86c0,0,15.07-.78,27.34,3.83,0,0-1.95-5.08-5.63-10.08-3.67-5-16.31-13.84-16.31-13.84l-11.58,2.23Z"/><path class="j" d="M205.3,46.38s-14.78-17.47-42.24-3.87l-2.91-17.2s33.73,1.72,45.15,21.07Z"/></g><polygon class="j" points="1172.53 191.31 1079.53 183.79 1079.53 444.08 1172.53 422.11 1172.53 191.31"/><polygon class="k" points="1338.53 204.73 1243.53 197.05 1243.53 405.34 1338.53 382.89 1338.53 204.73"/><polygon class="l" points="991.53 176.68 694.53 159.38 961.85 471.88 991.53 464.87 991.53 176.68"/><path class="h" d="M685.03,160.88c-177.07,0-320.61,143.54-320.61,320.61,0,21,2.04,41.52,5.9,61.39H999.74c3.85-19.87,5.9-40.39,5.9-61.39,0-177.07-143.54-320.61-320.61-320.61Z"/><g><path class="j" d="M388.38,113.69s14.62-2.11,24.14-18.59c0,0,19.6,14.4,40.22,19.05,0,0-7.13,5.11-16.51,8.6-9.38,3.49-34.22,4.2-34.22,4.2l-13.63-13.26Z"/><path class="l" d="M436.23,122.75s-35.38,10.45-60.32-32.19l-19.15,20.6s46.95,27.55,79.47,11.6Z"/></g><path class="j" d="M595.92,293.15s-25.45,30.09-31.33,35.96c-5.88,5.88-31.96,26.46-43.89,48.85s-15.5,42.71-15.5,42.71h0c-4.63,0-8.51,3.52-8.94,8.14l-1.33,14.12c-.46,4.89,3.1,9.25,7.98,9.78l59.48,6.4,1.47-41.13h0c4.64,17.7,21.58,29.29,39.76,27.2l51.31-5.9,1.83,4.44c1.85,4.48,6.92,6.69,11.46,4.99l16.44-6.17c3.09-1.16,5.28-3.91,5.74-7.17,1.19-8.45,2.66-26.8-.96-54.45,0,0-57.29,24.33-71.24,7.56-13.95-16.77,2.2-38.07,12.49-53.49,10.28-15.42,13.04-39.96,11.29-49.36l-46.07,7.52Z"/><polygon class="j" points="588.83 300.92 618.21 294.6 610.86 283.58 584.42 293.86 584.42 301.72 588.83 300.92"/><path class="l" d="M689.45,380.93s-57.29,24.33-71.24,7.56c-13.95-16.77,2.2-38.07,12.49-53.49,10.28-15.42,13.04-39.96,11.29-49.36l-46.07,7.52s-25.45,30.09-31.33,35.96c-5.88,5.88-31.96,26.46-43.89,48.85-11.93,22.39-15.5,42.71-15.5,42.71-4.63,0-8.51,3.52-8.94,8.14l-1.33,14.12c-.46,4.89,3.09,9.25,7.98,9.78l59.48,6.4,1.47-41.13c4.64,17.7,21.58,29.29,39.76,27.2l51.31-5.9,15.42-4.41-2.57,13.98c.15-.05,.29-.09,.44-.14l16.44-6.17c3.09-1.16,5.28-3.91,5.74-7.17,1.19-8.45,2.66-26.8-.96-54.45Z"/><path class="k" d="M712.95,376.12s2.94-7.34,13.22-11.02c10.28-3.67,22.77-2.94,22.77-2.94,0,0,1.47,13.95,10.28,27.17,8.81,13.22,14.69,29.38,10.28,58.75,0,0-11.02,1.47-13.22-5.14-2.2-6.61-9.02-31.83-24.97-38.92-6.61-2.94-17.63-4.41-17.63-4.41l1.47-2.2-2.2-21.3Z"/><path class="k" d="M499.23,500.98c-3.67-5.14-7.34-2.94-8.08,.73-.73,3.67-5.14,13.22-16.16,19.1-7.48,3.99-19.02,5.95-25.66,6.79-3.19,.41-5.87,2.6-6.89,5.65l-1.97,5.92s19.83,6.61,35.25,2.2,50.78-3.82,50.78-3.82v-17.61c0-3.7-.83-7.36-2.43-10.7l-5.01-10.47-19.83,2.2Z"/><g><path class="m" d="M494.82,192.51s8.08,13.95,28.64,16.89c0,0-6.61,25.71-2.94,48.47,0,0-8.08-5.14-15.42-13.22-7.34-8.08-18.17-32.95-18.17-32.95l7.89-19.19Z"/><path class="l" d="M505.11,244.66s-24.97-31.58,8.08-74.18l-28.64-11.02s-8.81,58.75,20.56,85.19Z"/></g><g><path class="m" d="M670.35,75s2.94-10.28,20.56-18.36c17.63-8.08,32.32-2.2,32.32-2.2l-26.44-40.56s-63.9,22.19-49.21,43.49l22.77,17.63Z"/><path class="j" d="M696.06,92.63s-22.92-18.52-28.35-48.19c0,0-14.99,13.2-21.96,9.03,0,0,2.58,10.51,18,21.53,15.42,11.02,32.31,17.63,32.31,17.63Z"/></g><path class="j" d="M607.5,203.32s-8.39-2.73-7.65-9.34c.73-6.61,11.02-7.34,11.02-7.34,0,0-5.88-7.34,2.94-11.75,8.81-4.41,12.49,5.14,19.83,2.94s8.36-7.47,8.36-7.47c0,0,5.6,3.06,4.13,9.67-1.47,6.61-6.61,9.55-6.61,9.55l-8.06,13.74h-23.95Z"/><path class="k" d="M607.19,248.33l8.08-38.92s-8.81-3.67-8.81-9.55,11.81-1.71,15.82-2.69,12.82-.25,17.23-7.59c0,0,9.55,19.1-8.81,27.91v11.02l-23.5,19.83Z"/><ellipse class="l" cx="622.98" cy="194.35" rx="5.53" ry="7.04" transform="translate(64.29 531.6) rotate(-48.44)"/><path class="l" d="M642.28,192.82c-.74-3.08-3.84-5.57-6.92-5.57s-4.97,2.49-4.23,5.57c.09,.38,.22,.76,.38,1.12,.46-.43,1.07-.69,1.74-.69,1.42,0,2.57,1.15,2.57,2.57,0,.71-.29,1.35-.76,1.82,.94,.48,1.96,.76,2.98,.76,3.08,0,4.97-2.49,4.23-5.57Z"/><path class="m" d="M607.19,248.33l-36.72,34.52,16.89,20.56,1.47-2.49s-3.77-3.38-1.52-5.22c2.25-1.84,26.49-6.24,42.65-8.45,16.16-2.2,28.82-2.94,31.3-11.38,2.48-8.45-14.41-15.79-7.8-29.01,6.61-13.22,41.13-12.49,41.13-12.49l-13.03-47.54-50.86,41.66-23.5,19.83Z"/><path class="k" d="M572.8,285.69l-8.21,7.44s-20.33-24.39-30.39-51.7c-.79-2.15-2.51-3.82-4.68-4.55h0c-1.99-.66-4.17-.47-6,.55l-26.5,14.57s.73,24.5,16.16,26.2l18.36-8.58,17.58,43.04c2.25,5.51,7.6,9.1,13.55,9.1h0c3.84,0,7.52-1.51,10.26-4.19l14.43-14.17-14.56-17.73Z"/><path class="f" d="M521.32,238.64l-13.45,7.4,1.7,1.37c2.26,1.82,5.27,2.39,8.04,1.52l6.59-2.07s-2.94,7.34,2.2,10.28"/><path class="k" d="M681.56,186.84l4.22-3.87,4.41-60.22-8.63-6.54s-.92-25.78-4.59-30.18l6.05,.59,.97-9.27c.18-1.68,1.77-2.84,3.43-2.49l4.24,.89-1.47-11.02,17.4,3.82,3.9,35.84s-.73,11.75-6.61,16.89l5.87,49.85c.6,5.06,.03,10.21-1.75,14.98-2.73,7.31-8.3,18.41-19.38,30.12l-8.06-29.38Z"/><g><path class="e" d="M683.01,86.61h0c1.73,.87,2.83,2.64,2.83,4.59v4.97c0,2.67,1.82,5,4.41,5.65l2.3,.58c2.93,.74,4.98,3.37,4.98,6.39v1.62"/><line class="e" x1="691.65" y1="75.74" x2="693.85" y2="88.96"/><line class="e" x1="696.06" y1="66.01" x2="699.31" y2="92.63"/><line class="e" x1="702.22" y1="67.36" x2="704.87" y2="91.9"/></g><line class="e" x1="497.93" y1="259.15" x2="512.6" y2="251.87"/><line class="e" x1="499.84" y1="265.92" x2="518.18" y2="256.26"/><path class="e" d="M502.57,271.32l18.14-10.23-.1,3.61c-.05,1.82-1,3.51-2.56,4.45-1.51,.92-3.51,1.91-5.45,2.17"/><line class="e" x1="520.7" y1="261.09" x2="520.53" y2="257.88"/><g><path class="k" d="M788.27,192.75s29.38-2.2,35.25-13.22l-12.49-3.67-22.77,16.89Z"/><polygon class="k" points="754.49 219.19 786.47 210.25 781.66 204.5 769.17 208.9 753.75 213.31 754.49 219.19"/><path class="m" d="M759.63,240.48l-23.5-4.41s-1.99-11.87,8.19-20.25c10.18-8.39,24.13-1.78,27.8-12.06,3.67-10.28,7.34-16.89,21.3-18.36,13.95-1.47,11.75-17.63,11.75-17.63l27.17-6.61s0,15.42-8.81,18.36c-8.81,2.94-25.71,2.2-26.44,10.28-.73,8.08-2.87,18.12-10.61,20.44-7.75,2.32-26.84-4.29-29.41,7.1-2.57,11.38,2.57,23.13,2.57,23.13Z"/></g><path class="m" d="M505.63,453.01s-3.46,26.67-4.19,34.01c-.73,7.34-2.2,13.95-2.2,13.95,0,0,8.08,8.81,11.75,9.55,3.67,.73,8.08-11.75,8.08-11.75,0,0-2.2-3.32,0-9.37,2.2-6.05,10.91-33.77,10.91-33.77l-24.34-2.62Z"/><path class="m" d="M690.01,385.48s15.6-3.48,19.27-6.42l3.67-2.94s8.08,.73,9.55,3.67-7.34,17.63-7.34,17.63c0,0-14.53-.3-23.42,7.93l-1.73-19.87Z"/><path class="l" d="M735.46,362.88c-3.04,.45-6.26,1.15-9.29,2.23-5.29,1.89-8.63,4.75-10.63,7.08,4.11,1.28,11.77,4.27,12.84,9.08,1.47,6.61-1.47,8.81-1.47,8.81,0,0,13.95,12.49,20.56,11.75,6.61-.73,7.34-3.67,7.34-3.67,0,0-11.75-16.89-13.95-22.77-1.39-3.71-3.81-9.07-5.4-12.51Z"/><path class="j" d="M759.95,412.84c-5.11,3.07-8.8,8.63-10.57,11.72,3.7,7.71,5.84,15.21,6.9,18.39,.96,2.88,3.59,4.23,6.26,4.83l-2.59-34.94Z"/><path class="l" d="M526.5,519.94c0-3.7-.83-7.36-2.43-10.7l-1.36-2.84c-2.32,3.09-9.42,12.2-12.47,12.2-3.67,0-5.17-6.61-5.17-6.61,0,0-22.63,10.14-21.58,21.23l43.01-3.16v-10.12Z"/><path class="j" d="M470.25,522.9c-7.03,2.61-15.56,4.02-20.92,4.7-3.19,.41-5.87,2.6-6.89,5.65l-.17,.52c3.3,.99,8.98,2.17,16.56,1.73,12.49-.73,15.23-2.28,15.23-2.28l-3.82-10.32Z"/><g><path class="j" d="M584.42,346.29s-36.72,34.24-44.8,78.3l15.42,2.2s3.96,18.98-6.83,30.79h0l14.18,1.52,1.47-41.13s-7.34-29.55,20.56-71.69Z"/><path class="f" d="M563.86,417.98c.25,.94,.53,1.85,.84,2.75l-.84-2.75Z"/></g><g><path class="l" d="M403.58,242.95l62.58-12.28s-4.55,44.14,3.41,71.45l-60.3,5.69s-13.65-26.17-5.69-64.86Z"/><polygon class="l" points="457.06 402.24 486.94 323.51 399.03 347.63 457.06 402.24"/><path class="j" d="M446.5,275.72s.31,40.05,19.66,67.35l-78.08,19.8s-22.05-30.04-17.5-60.76l75.92-26.39Z"/><path class="k" d="M383.1,346.49l-50.06,19.34,39.82,52.34,84.2-15.93-46.65-65.99-5.69,2.28-3.54-3.54c-1.29-1.29-3.25-1.66-4.92-.91l-11.82,5.26c-2.83,1.26-3.52,4.97-1.33,7.17h0Z"/><ellipse class="h" cx="391.9" cy="383.39" rx="13.42" ry="22.14" transform="translate(-148.34 476.74) rotate(-54.17)"/><g><polyline class="g" points="387.16 386.33 394.91 389.43 393.5 376.05"/><path class="l" d="M394.91,391.76c-.29,0-.58-.05-.86-.17l-7.75-3.1c-1.19-.48-1.77-1.83-1.3-3.02,.48-1.19,1.83-1.77,3.02-1.3l4.17,1.67-1.01-9.55c-.13-1.28,.79-2.42,2.07-2.56,1.29-.11,2.42,.79,2.56,2.07l1.41,13.39c.08,.81-.26,1.61-.91,2.1-.41,.31-.9,.47-1.4,.47Z"/></g></g><rect class="d" width="1366" height="543"/></g></g></g></svg>