<?xml version="1.0" encoding="UTF-8"?><svg xmlns="http://www.w3.org/2000/svg" xmlns:xlink="http://www.w3.org/1999/xlink" viewBox="0 0 1366 543"><defs><style>.d,.e,.f{fill:none;}.e{stroke-width:6px;}.e,.g,.h,.i,.j,.k,.f{stroke:#6975cf;stroke-miterlimit:10;}.l,.g{fill:#6975cf;}.m{fill:#fdf3ec;}.h{fill:#fff;}.i{fill:#ee8c3d;}.j{fill:#edc883;}.k{fill:#8fbceb;}.n{clip-path:url(#c);}</style><clipPath id="c"><rect class="d" width="1366" height="543"/></clipPath></defs><g id="a"/><g id="b"><rect class="m" width="1366" height="543"/><g class="n"><g><path class="h" d="M1367.73,358.94c-149.06,12.23-119.51-199.72-447.13-288.95C567.23-26.25,452.96,183.24,338.04,281.89c-114.93,98.65-199.07-5.65-279.97-126.49C40.35,128.94,19.56,110.94-1,99.73V-2.34H152.46s62.71,140.07,182.36,123.07S542.76-2.34,542.76-2.34h685.3s57.36,84.52,140.3,114.08"/><path class="h" d="M678.96,206.24c-155.74,0-282,126.26-282,282,0,18.47,1.8,36.52,5.19,54H955.78c3.39-17.48,5.19-35.53,5.19-54,0-155.74-126.26-282-282-282Z"/><path class="g" d="M757.46,409.74s6-17,2-28l-159.37,1.88s-.63,17.12,4.37,25.12l153,1Z"/><path class="k" d="M803.91,279.2c-17.14-29.63-48.02-48.67-82.19-50.68l-19.86-1.17v-6.61h-40v7h-28.1c-10.14,0-20.21,1.61-29.84,4.78l-55.46,18.22,6,63,45-7c-.95,16.08-1.67,34.84-2.17,50.16-.63,19.34,4.45,38.43,14.59,54.91l5.49,8.93h125.09l5.01-5.76c9.7-11.15,15.28-25.29,15.82-40.07l1.17-32.17,13,20,54.5-35.04-28.05-48.5Z"/><path class="j" d="M617.38,420.74l-12.91-12,19-100h113.44l20.56,101-15,11h0c22.75,26.94,36.44,60.37,39.11,95.53l1.97,25.97h-205.17l2.69-31c2.86-32.93,15.38-64.28,36-90.12l.3-.38Z"/><polyline class="e" points="868.21 -177.26 957.43 -177.26 957.43 412.74"/><polyline class="e" points="32.46 143.06 32.46 -177.26 524.61 -177.26 524.61 49.24"/><polyline class="e" points="460.21 393.74 460.21 -177.26 177.04 -177.26"/><polyline class="e" points="524.61 -177.26 763.5 -177.26 763.5 44.74"/><polyline class="e" points="763.5 -177.26 868.21 -177.26 868.21 160.74"/><path class="j" d="M727.03,199.31l-7.03-46.44c-1.33-8.81-7.08-16.32-15.23-19.92h0c-4.76-2.1-10.04-2.73-15.17-1.8l-3.15,.57h-.05c-13.15-3.7-27.24,.6-36.11,10.98h0c-4.46,5.23-7.29,11.65-8.12,18.47l-4.89,39.83c-.67,5.49,3.15,10.52,8.63,11.34l29.54,4.38,26.25-2.06,17.45-3.87c5.24-1.16,8.68-6.18,7.88-11.49Z"/><g><path class="j" d="M507.66,89.69c0,10.06,8.47,18.15,18.67,17.52,8.99-.56,16.19-8.05,16.42-17.06,.11-4.39-1.39-8.43-3.96-11.56-3.67-4.48-5.79-10.02-5.79-15.81h-15.6c0,5.78-2.11,11.32-5.77,15.79-2.49,3.03-3.98,6.9-3.98,11.12Z"/><path class="k" d="M533.01,62.78v-6.24c0-4.31-3.49-7.8-7.8-7.8s-7.8,3.49-7.8,7.8v6.24h15.6Z"/><path class="l" d="M522.16,62.78h.78v8.19h3.46v-8.19h.78v8.19h1.46c1.23,0,2.24,1,2.24,2.24v1.76c0,1.23-1,2.24-2.24,2.24s-2.24-1-2.24-2.24v-3.22h-3.46v3.22c0,1.23-1,2.24-2.24,2.24h-.12c-1.23,0-2.24-1-2.24-2.24v-1.76c0-1.23,1-2.24,2.24-2.24h1.58v-8.19Zm0,8.97h-1.58c-.8,0-1.46,.65-1.46,1.46v1.76c0,.8,.65,1.46,1.46,1.46h.12c.8,0,1.46-.65,1.46-1.46v-3.22Zm6.47,4.68c.8,0,1.46-.65,1.46-1.46v-1.76c0-.8-.65-1.46-1.46-1.46h-1.46v3.22c0,.8,.65,1.46,1.46,1.46Z"/></g><g><path class="j" d="M217.66,368.69c0,11.78,9.92,21.25,21.86,20.51,10.52-.65,18.96-9.43,19.23-19.97,.13-5.14-1.63-9.87-4.63-13.54-4.29-5.24-6.78-11.73-6.78-18.51h-18.27c0,6.77-2.47,13.26-6.76,18.49-2.91,3.54-4.66,8.08-4.66,13.02Z"/><path class="k" d="M247.35,337.18v-7.31c0-5.04-4.09-9.13-9.13-9.13s-9.13,4.09-9.13,9.13v7.31h18.27Z"/><path class="l" d="M234.63,337.18h.91v9.59h4.05v-9.59h.91v9.59h1.71c1.44,0,2.62,1.18,2.62,2.62v2.07c0,1.44-1.18,2.62-2.62,2.62s-2.62-1.18-2.62-2.62v-3.77h-4.05v3.77c0,1.44-1.18,2.62-2.62,2.62h-.14c-1.44,0-2.62-1.18-2.62-2.62v-2.07c0-1.44,1.18-2.62,2.62-2.62h1.84v-9.59Zm0,10.5h-1.84c-.94,0-1.71,.77-1.71,1.71v2.07c0,.94,.77,1.71,1.71,1.71h.14c.94,0,1.71-.77,1.71-1.71v-3.77Zm7.58,5.48c.94,0,1.71-.77,1.71-1.71v-2.07c0-.94-.77-1.71-1.71-1.71h-1.71v3.77c0,.94,.77,1.71,1.71,1.71Z"/></g><g><path class="j" d="M439.66,441.69c0,11.78,9.92,21.25,21.86,20.51,10.52-.65,18.96-9.43,19.23-19.97,.13-5.14-1.63-9.87-4.63-13.54-4.29-5.24-6.78-11.73-6.78-18.51h-18.27c0,6.77-2.47,13.26-6.76,18.49-2.91,3.54-4.66,8.08-4.66,13.02Z"/><path class="k" d="M469.35,410.18v-7.31c0-5.04-4.09-9.13-9.13-9.13s-9.13,4.09-9.13,9.13v7.31h18.27Z"/><path class="l" d="M456.63,410.18h.91v9.59h4.05v-9.59h.91v9.59h1.71c1.44,0,2.62,1.18,2.62,2.62v2.07c0,1.44-1.18,2.62-2.62,2.62s-2.62-1.18-2.62-2.62v-3.77h-4.05v3.77c0,1.44-1.18,2.62-2.62,2.62h-.14c-1.44,0-2.62-1.18-2.62-2.62v-2.07c0-1.44,1.18-2.62,2.62-2.62h1.84v-9.59Zm0,10.5h-1.84c-.94,0-1.71,.77-1.71,1.71v2.07c0,.94,.77,1.71,1.71,1.71h.14c.94,0,1.71-.77,1.71-1.71v-3.77Zm7.58,5.48c.94,0,1.71-.77,1.71-1.71v-2.07c0-.94-.77-1.71-1.71-1.71h-1.71v3.77c0,.94,.77,1.71,1.71,1.71Z"/></g><g><path class="j" d="M743.66,92.69c0,11.78,9.92,21.25,21.86,20.51,10.52-.65,18.96-9.43,19.23-19.97,.13-5.14-1.63-9.87-4.63-13.54-4.29-5.24-6.78-11.73-6.78-18.51h-18.27c0,6.77-2.47,13.26-6.76,18.49-2.91,3.54-4.66,8.08-4.66,13.02Z"/><path class="k" d="M773.35,61.18v-7.31c0-5.04-4.09-9.13-9.13-9.13s-9.13,4.09-9.13,9.13v7.31h18.27Z"/><path class="l" d="M760.63,61.18h.91v9.59h4.05v-9.59h.91v9.59h1.71c1.44,0,2.62,1.18,2.62,2.62v2.07c0,1.44-1.18,2.62-2.62,2.62s-2.62-1.18-2.62-2.62v-3.77h-4.05v3.77c0,1.44-1.18,2.62-2.62,2.62h-.14c-1.44,0-2.62-1.18-2.62-2.62v-2.07c0-1.44,1.18-2.62,2.62-2.62h1.84v-9.59Zm0,10.5h-1.84c-.94,0-1.71,.77-1.71,1.71v2.07c0,.94,.77,1.71,1.71,1.71h.14c.94,0,1.71-.77,1.71-1.71v-3.77Zm7.58,5.48c.94,0,1.71-.77,1.71-1.71v-2.07c0-.94-.77-1.71-1.71-1.71h-1.71v3.77c0,.94,.77,1.71,1.71,1.71Z"/></g><g><path class="j" d="M847.66,208.69c0,11.78,9.92,21.25,21.86,20.51,10.52-.65,18.96-9.43,19.23-19.97,.13-5.14-1.63-9.87-4.63-13.54-4.29-5.24-6.78-11.73-6.78-18.51h-18.27c0,6.77-2.47,13.26-6.76,18.49-2.91,3.54-4.66,8.08-4.66,13.02Z"/><path class="k" d="M877.35,177.18v-7.31c0-5.04-4.09-9.13-9.13-9.13s-9.13,4.09-9.13,9.13v7.31h18.27Z"/><path class="l" d="M864.63,177.18h.91v9.59h4.05v-9.59h.91v9.59h1.71c1.44,0,2.62,1.18,2.62,2.62v2.07c0,1.44-1.18,2.62-2.62,2.62s-2.62-1.18-2.62-2.62v-3.77h-4.05v3.77c0,1.44-1.18,2.62-2.62,2.62h-.14c-1.44,0-2.62-1.18-2.62-2.62v-2.07c0-1.44,1.18-2.62,2.62-2.62h1.84v-9.59Zm0,10.5h-1.84c-.94,0-1.71,.77-1.71,1.71v2.07c0,.94,.77,1.71,1.71,1.71h.14c.94,0,1.71-.77,1.71-1.71v-3.77Zm7.58,5.48c.94,0,1.71-.77,1.71-1.71v-2.07c0-.94-.77-1.71-1.71-1.71h-1.71v3.77c0,.94,.77,1.71,1.71,1.71Z"/></g><g><path class="j" d="M936.66,460.69c0,11.78,9.92,21.25,21.86,20.51,10.52-.65,18.96-9.43,19.23-19.97,.13-5.14-1.63-9.87-4.63-13.54-4.29-5.24-6.78-11.73-6.78-18.51h-18.27c0,6.77-2.47,13.26-6.76,18.49-2.91,3.54-4.66,8.08-4.66,13.02Z"/><path class="k" d="M966.35,429.18v-7.31c0-5.04-4.09-9.13-9.13-9.13s-9.13,4.09-9.13,9.13v7.31h18.27Z"/><path class="l" d="M953.63,429.18h.91v9.59h4.05v-9.59h.91v9.59h1.71c1.44,0,2.62,1.18,2.62,2.62v2.07c0,1.44-1.18,2.62-2.62,2.62s-2.62-1.18-2.62-2.62v-3.77h-4.05v3.77c0,1.44-1.18,2.62-2.62,2.62h-.14c-1.44,0-2.62-1.18-2.62-2.62v-2.07c0-1.44,1.18-2.62,2.62-2.62h1.84v-9.59Zm0,10.5h-1.84c-.94,0-1.71,.77-1.71,1.71v2.07c0,.94,.77,1.71,1.71,1.71h.14c.94,0,1.71-.77,1.71-1.71v-3.77Zm7.58,5.48c.94,0,1.71-.77,1.71-1.71v-2.07c0-.94-.77-1.71-1.71-1.71h-1.71v3.77c0,.94,.77,1.71,1.71,1.71Z"/></g><path class="i" d="M611.96,128.24c.77,6.96,8.5,11.29,18.25,8.14s10.75,4.86,10.75,4.86l-24.5,10.5-30,6-86,105,48-12,6,63-68.68,11.76c-24.72,4.23-49.05-9.29-58.52-32.52h0c-8.49-20.85-3.01-44.79,13.71-59.86l114.66-103.38s14.83-25,28.83-39,35.75-27.96,35.75-27.96c0,0,2.25,3.96-3.75,9.96l9.37-9s2.37,3.94,0,7.47l-2.37,3.53,9-9,.4,1.52c.8,3.08,.29,6.44-1.67,8.96-.16,.21-.33,.42-.51,.61l-7.71,8.56-5.5,9.35,18.61-23.38s3.5,2.43,1.94,6.4-10.32,15.85-10.32,15.85c0,0-10.24,16.12-12.24,22.12s-4,8-3.5,12.5Z"/><g><path class="j" d="M652.71,86.24c0-12.9-10.86-23.27-23.94-22.46-11.52,.72-20.76,10.33-21.06,21.87-.14,5.63,1.78,10.81,5.07,14.82,4.7,5.74,7.42,12.84,7.42,20.26h20c0-7.41,2.7-14.51,7.4-20.24,3.19-3.88,5.1-8.85,5.1-14.26Z"/><path class="k" d="M620.21,120.74v8c0,5.52,4.48,10,10,10s10-4.48,10-10v-8h-20Z"/><path class="l" d="M634.13,120.74h-1v-10.5h-4.43v10.5h-1v-10.5h-1.87c-1.58,0-2.87-1.29-2.87-2.87v-2.26c0-1.58,1.29-2.87,2.87-2.87s2.87,1.29,2.87,2.87v4.13h4.43v-4.13c0-1.58,1.29-2.87,2.87-2.87h.15c1.58,0,2.87,1.29,2.87,2.87v2.26c0,1.58-1.29,2.87-2.87,2.87h-2.02v10.5Zm0-11.5h2.02c1.03,0,1.87-.84,1.87-1.87v-2.26c0-1.03-.84-1.87-1.87-1.87h-.15c-1.03,0-1.87,.84-1.87,1.87v4.13Zm-8.3-6c-1.03,0-1.87,.84-1.87,1.87v2.26c0,1.03,.84,1.87,1.87,1.87h1.87v-4.13c0-1.03-.84-1.87-1.87-1.87Z"/></g><path class="i" d="M711.46,174.74c-2-3-5,1.18-5,1.18v-4.18l-4.05-3.71c-5.24-4.8-9.38-10.68-12.14-17.23l-3.81-9.06-1.05,2.69c-3.82,9.82-11.3,17.78-20.86,22.2l-8.89,4.11v6.12c-.8-3.88-6.2-4.12-6.2,2.88s7,9.02,7,9.02v1.98c0,3.89,1.33,7.66,3.76,10.69l1.63,2.03v17.28h40l-.4-16c3.2-3.2,5-7.54,5-12.07v-3.93c7-1,7-11,5-14Z"/><path class="i" d="M1007.6,203.39l-1.14,8.86v-12.51c-2.54,1.91-4.15,4.81-4.42,7.98l-.58,7.02-6,12,3-8.47v-13.53c-2.63,2.63-4.65,5.82-5.9,9.33l-3.1,8.67-29,13,10-8.97c4.24-3.8,6.45-9.36,6-15.03l-31.68,15.84c-11.96,5.98-21.92,15.3-28.68,26.84l-64.64,110.33-19.5-37.04-54.5,35.04,25.32,40.25c8.64,13.74,23.08,22.79,39.21,24.58h0c22.45,2.49,44.03-9.44,53.86-29.78l54.61-113.06,43-32,15-19,6-40c-3.75,1.88-6.32,5.49-6.86,9.65Z"/><rect class="j" x="626.38" y="227.74" width="12" height="72"/><polygon class="j" points="735.41 299.74 723.41 299.74 723.41 227.74 735.41 229.74 735.41 299.74"/><path class="l" d="M636.38,316.24h-8v-3.84c0-1.59-.58-3.13-1.63-4.33-1.21-1.38-1.87-3.15-1.87-4.99v-7.9c0-1.07,.87-1.94,1.94-1.94h11.11c1.07,0,1.94,.87,1.94,1.94v7.9c0,1.83-.67,3.61-1.87,4.99-1.05,1.2-1.63,2.73-1.63,4.33v3.84Zm-7-1h6v-2.84c0-1.84,.67-3.61,1.87-4.99,1.05-1.2,1.63-2.74,1.63-4.33v-7.9c0-.52-.42-.94-.94-.94h-11.11c-.52,0-.94,.42-.94,.94v7.9c0,1.59,.58,3.13,1.63,4.33,1.21,1.38,1.87,3.15,1.87,4.99v2.84Z"/><circle class="h" cx="632.38" cy="316.74" r="4"/><path class="l" d="M733.41,316.24h-8v-3.84c0-1.59-.58-3.13-1.63-4.33-1.21-1.38-1.87-3.15-1.87-4.99v-7.9c0-1.07,.87-1.94,1.94-1.94h11.11c1.07,0,1.94,.87,1.94,1.94v7.9c0,1.83-.67,3.61-1.87,4.99-1.05,1.2-1.63,2.73-1.63,4.33v3.84Zm-7-1h6v-2.84c0-1.84,.67-3.61,1.87-4.99,1.05-1.2,1.63-2.74,1.63-4.33v-7.9c0-.52-.42-.94-.94-.94h-11.11c-.52,0-.94,.42-.94,.94v7.9c0,1.59,.58,3.13,1.63,4.33,1.21,1.38,1.87,3.15,1.87,4.99v2.84Z"/><circle class="h" cx="729.41" cy="316.74" r="4"/><path class="g" d="M664.46,205.74s8,9.55,17,9.55,20-10.55,20-10.55l.21,8.46s-9.06,8.1-20.64,5.32c-11.58-2.78-16.58-12.78-16.58-12.78Z"/><path class="g" d="M764.46,342.74v-39.66s11.99,45.24,31.99,47.45l-18.99,12.21-13-20Z"/><polygon class="g" points="599.46 306.74 599.46 297.95 554.46 313.74 599.46 306.74"/><line class="f" x1="500.46" y1="262.74" x2="489.46" y2="274.74"/><line class="f" x1="851.46" y1="364.74" x2="844.46" y2="374.74"/><line class="f" x1="683.07" y1="542.24" x2="683.07" y2="527.83"/><path class="e" d="M-284.39,476.06l-15.71,34.43c-11.73,25.7,7.05,54.93,35.31,54.93H-6.35c21.44,0,38.81-17.38,38.81-38.81V143.06c0-56.89,46.11-103,103-103h0c56.89,0,103,46.11,103,103v177.79"/><g><path class="j" d="M1006.46,202.74s4.75,2.59,2.6-4.9c-1.49-5.19-4.7-9.96-9.52-13.37-10.37-7.35-24.93-5.5-33.16,4.19-4.01,4.73-5.94,10.49-5.9,16.21,.06,8.17-2.52,16.14-7.64,22.5h0l17.14,13.82h0c5.12-6.35,12.34-10.57,20.33-12.23,4.34-.9,8.45-2.96,11.84-6.13,.84-.79,3.56-19.16,4.3-20.08Z"/><path class="k" d="M952.84,227.36l-5.53,6.86c-3.82,4.73-3.07,11.67,1.66,15.48,4.73,3.82,11.67,3.07,15.48-1.66l5.53-6.86-17.14-13.82Z"/><path class="l" d="M964.77,236.98l-.86-.69,7.26-9-3.8-3.06-7.26,9-.86-.69,7.26-9-1.6-1.29c-1.36-1.09-1.57-3.09-.48-4.44l1.56-1.94c1.09-1.36,3.09-1.57,4.44-.48,1.36,1.09,1.57,3.09,.48,4.44l-2.86,3.54,3.8,3.06,2.86-3.54c1.09-1.36,3.09-1.57,4.44-.48l.13,.1c1.36,1.09,1.57,3.09,.48,4.44l-1.56,1.94c-1.09,1.36-3.09,1.57-4.44,.48l-1.73-1.4-7.26,9Zm7.95-9.86l1.73,1.4c.88,.71,2.18,.57,2.89-.31l1.56-1.94c.71-.88,.57-2.18-.31-2.89l-.13-.1c-.88-.71-2.18-.57-2.89,.31l-2.86,3.54Zm-2.97-10.88c-.88-.71-2.18-.57-2.89,.31l-1.56,1.94c-.71,.88-.57,2.18,.31,2.89l1.6,1.29,2.86-3.54c.71-.88,.57-2.18-.31-2.89Z"/></g><path class="i" d="M646.96,346.24h65.65v2.67c0,18.13-14.7,32.83-32.83,32.83h0c-18.13,0-32.83-14.7-32.83-32.83v-2.67Z"/><path class="i" d="M783.55,542.24l-1.97-25.97c-2.67-35.16-16.36-68.59-39.11-95.53h-33.15c-3.9,0-4.91,5.41-1.27,6.79,20.24,7.71,45.42,23.31,45.42,53.22,0,54.99,26,61.49,26,61.49h4.09Z"/><path class="i" d="M1014.46,193.74l-4.74,3.56c-2.09,1.57-3.52,3.87-4.01,6.44l-4.16,22.1"/><path class="i" d="M604.1,74.09l16.11-11.31,.44,3.36c.19,1.46-.22,2.94-1.14,4.1l-13.54,17"/></g></g></g></svg>