<?xml version="1.0" encoding="UTF-8"?><svg id="Calque_1" xmlns="http://www.w3.org/2000/svg" xmlns:xlink="http://www.w3.org/1999/xlink" viewBox="0 0 1366 543"><defs><style>.cls-1{fill:none;}.cls-2{fill:#8fbceb;}.cls-2,.cls-3,.cls-4,.cls-5,.cls-6{stroke:#6975cf;stroke-miterlimit:10;}.cls-3{fill:#fff;}.cls-4{fill:#edc883;}.cls-5{fill:#6975cf;}.cls-6{fill:#ee8c3d;}.cls-7{fill:#fdf3ec;}.cls-8{clip-path:url(#clippath);}</style><clipPath id="clippath"><rect class="cls-1" width="1366" height="543"/></clipPath></defs><g class="cls-8"><polygon class="cls-7" points="1390.27 553 -23.27 553 -34.11 -1 1379.43 -1 1390.27 553"/><path class="cls-3" d="M-20.5,162.24s122.86,56.73,273.93,48,219.23,17.67,286.15,93.97,234.76,82.97,363.34-13.86,127.43-333.84,127.43-333.84L-20.5-47.79v210.03Z"/><path class="cls-5" d="M839.34,191.56L1005.31,11.1c9.92-10.79,23.77-17.14,38.42-17.63l13.89-.46c4.16-.14,8.24,1.12,11.6,3.58l403.88,295.8-371.61,168.52-262.14-269.34Z"/><path class="cls-3" d="M1463.96,296.52L1069.97,5.45c-4.77-3.52-10.62-5.27-16.54-4.94l-23.08,1.28c-6.86.38-9.62,9.04-4.25,13.32l384.09,305.8,53.77-24.39Z"/><path class="cls-2" d="M790.94,100.02l274.53,275.91-312.55,154.12-350-102.26L766.12,99.37c7.12-6.44,18.05-6.15,24.83.66Z"/><path class="cls-3" d="M1057.51,379.85L786.85,114.15c-9.74-9.56-26.21-3.78-27.83,9.77h0c-2.93,24.43,5.87,48.81,23.74,65.73l226.17,214.16,48.58-23.96Z"/><path class="cls-4" d="M432.29,312.78l203.66,331.68-339.63,78.05L-20.75,542.44l429.04-236.01c8.42-4.63,18.98-1.83,24.01,6.35Z"/><path class="cls-3" d="M627.3,646.45l-202.24-320.86c-7.28-11.54-24.63-9.71-29.33,3.1h0c-8.48,23.1-5.52,48.85,7.98,69.43l170.81,260.46,52.79-12.13Z"/><path class="cls-6" d="M1165.86,403.81l-33.83-80.28c-2.59-6.15-9.54-9.19-15.82-6.93l-435.31,157.27,82.1,122.43,402.86-192.49Z"/><path class="cls-3" d="M1158.1,407.52l-32.98-77.63c-2.2-5.19-9.17-6.1-12.63-1.65h0c-7.61,9.79-8.96,23.07-3.47,34.19l27.38,55.47,21.7-10.37Z"/><path class="cls-6" d="M330.5,542.5l386.3-213.77c3.55-1.92,7.97-.92,10.35,2.34l196.23,268.96-452.77,3.47-140.11-61Z"/><path class="cls-3" d="M352.5,542.5l367.29-204.02,189.67,261.66-42.76.4-160.04-210.06c-3.22-4.22-9.04-5.45-13.69-2.89l-282.47,155.92-58-1Z"/><polygon class="cls-4" points="689.79 601.82 1421.82 265.39 1463.96 296.52 1456.36 600.54 689.79 601.82"/><polygon class="cls-3" points="931.52 498.36 1379.82 296.73 1419.79 326.95 873.9 571.81 931.52 498.36"/><path class="cls-4" d="M1008.98,639.14l-130.52-216.29c-12.38-20.51-39.99-25.45-58.7-10.49l-223,178.25,412.22,48.53Z"/><path class="cls-3" d="M993.64,637.02l-121.62-207.4c-8.51-14.52-30.02-12.82-36.15,2.85l-2.75,7.02c-8.11,20.73-5.86,44.08,6.05,62.88l79.98,126.19,74.49,8.46Z"/><path class="cls-4" d="M984.78,198.18l-3.88,25.24-7.77,12.62h-6.28s7.25-6.8,8.22-14.56c.97-7.77,1.94-25.24,1.94-25.24l7.77,1.94Z"/><path class="cls-4" d="M1062.94,276.34l-5.83,39.81,19.35,65.44c.67,2.28.63,4.71-.12,6.96l-6.61,19.84,8.01,11.57c3,4.34,2.7,10.15-.73,14.16h0s4.03,6.05,4.03,6.05c2.31,3.46,2.59,7.9.72,11.63l-2.81,5.63-38.84-7.77s1.94-49.52-17.48-99.03l-5.83,22.33,3.69,3.07c4.9,4.08,7.12,10.54,5.79,16.77l-.74,3.46s13.59,4.85,11.65,54.37l-30.1.97-29-95.8c-1.99-6.57-2.22-13.55-.67-20.23l10.25-44.17,75.25-15.05Z"/><path class="cls-5" d="M1037.21,450.62s6.8,8.74,5.83,23.3c0,0-18.45,4.85-33.01,4.85,0,0-12.47,8.74-30.91,2.91l1.11-9.51c.4-2.39,2.15-4.34,4.5-4.96,6.56-1.74,19.52-6.29,22.39-15.63l30.1-.97Z"/><path class="cls-5" d="M1078.96,457.41s3.07,3.88.16,13.59l-30.25,8.74s-12.42,10.13-35.77,7.77l-2.05-10.93c0-3.84,2.55-7.22,6.25-8.26l5.12-1.45c8.07-2.28,14.53-8.32,17.35-16.22l.36-1.01,38.84,7.77Z"/><path class="cls-2" d="M987.69,291.38l57.93,3.86c9.39.63,18.75-1.58,26.87-6.32l7.43-4.34s-8.74-27.19-13.59-60.2c-4.85-33.01-8.74-81.56-27.19-104.86l.16-2.73c.51-8.65-3.16-17.03-9.87-22.51h0s.97-20.39.97-20.39l-50.49,21.36,15.53,14.56-16.51,13.59s8.74,6.8,8.74,18.45l-6.8,8.74,1.94,14.56-.25-.25c-2.27-2.27-6.09-1.65-7.52,1.22h0s-24.91-16.88-24.91-16.88l-10.68,14.56.97,10.68,34.25,25.02c3.7,2.83,8.5,3.77,13,2.54h0s0,89.32,0,89.32Z"/><path class="cls-6" d="M991.58,133.12l33.01,26.21-2.91,9.71,34.83-6.96c1.28,5.64,2.39,11.43,3.38,17.25l-49.86,8.16,1.94-10.33-29.13-22.68,8.74-21.36Z"/><path class="cls-6" d="M1018.56,78.92v-19.08s0-28.39,0-28.39l-20.18-9-13.59,8.74-4.85,10.4c-1.26,2.7-1.55,5.74-.83,8.63l1.8,7.19-4.06,5.22c-1.36,1.74-.63,4.3,1.44,5.08l3.6,1.35s.97,7.77,4.85,11.65h7.71s4.74,6.42,4.74,6.42l19.38-8.2Z"/><path class="cls-4" d="M1018.56,67.44l-7.56-7.13s8.05-10.59,0-18.51c-3.88-3.82-9.71,1.03-8.74,7.83,0,0-5.83-11.65-2.91-19.42l-14.56.97s-.11-10.62,12.57-14.05c12.68-3.43,30.15.45,35.01,13.08,0,0-.97-8.74,6.8-9.71,7.77-.97,7.77,5.83,7.77,5.83,0,0,5.83-3.88,10.68.97s0,12.55,0,12.55l2.64,1.44c5.74,3.12,8.33,9.97,6.1,16.11h0s2.27.68,2.27.68c8.07,2.42,10.98,12.34,5.5,18.74h0s.6,6,.6,6c.56,5.59-5.46,9.46-10.31,6.63h0s-4.46,3.41-4.46,3.41c-5.48,4.19-13.45,1.07-14.63-5.73h0s0,0,0,0c-8.51-2.6-11.68-12.99-6.06-19.9l.88-1.08-7.77-2.91-.23-8.44-10.76,5.58-2.81,7.08Z"/><path class="cls-6" d="M998.37,109.82s11.02-8.7,22.99,2.44l3.23-7.3s-7.77-6.8-17.48-6.8l-10.63,7.05,1.89,4.6Z"/><path class="cls-4" d="M1024.59,104.97s17.48,15.53,21.36,31.07c3.88,15.53,9.71,66.02,9.71,66.02l9.34,12.75h-10.13s-6-12.75-6-12.75c0,0-5.83-54.37-9.71-66.99-3.88-12.62-16.38-25.99-16.38-25.99l1.82-4.11Z"/><path class="cls-5" d="M1048.86,202.06s-12.62,25.56-36.89,28.32l-31.07-6.96-7.77,12.62-3.29,52.39c-.28,4.49.84,8.97,3.21,12.8h0c3.87,6.26,10.64,10.15,18,10.31,13.76.29,36.47-.93,52.96-10.45,25.24-14.56,16.76-86.28,16.76-86.28h-5.91s-6-12.75-6-12.75Z"/><path class="cls-6" d="M948.12,152.03l-5.73-3.75-1.48-7.4c-.79-3.97-3.2-7.39-6.57-9.64-2.05-1.37-4.4-3.43-6.43-6.47-.57-.86-1.79-1-2.52-.27h0c-.31.31-.48.72-.48,1.15h0c0,3.9,1.55,7.64,4.3,10.41l3.47,3.48-23.67-9.64c-1.21-.49-2.54.4-2.54,1.71h0c0,.7.39,1.34,1.02,1.65l14.51,7.26-17.48-4.85-1.94,2.91,2.91,1.94-.97,1.94,2.91,1.94v2.91s13.59,10.68,13.59,10.68l18.45,5.83,8.65-11.79Z"/><path class="cls-4" d="M925.46,136.03l10.13-19.79-37.87-18.45-25.27,46.93c-1.05,1.95-.29,4.39,1.68,5.4l30.77,15.78c1.94.99,4.31.24,5.32-1.69l5.51-10.59,9.72-17.6Z"/><path class="cls-6" d="M920.06,157.02l-4.32-3.4-9.27-7.28v-2.91s-2.91-1.94-2.91-1.94l.97-1.94-2.91-1.94,1.94-2.91,17.48,4.85-14.51-7.26c-.62-.31-1.02-.95-1.02-1.65h0c0-1.31,1.33-2.2,2.54-1.71l23.67,9.64"/><polygon class="cls-4" points="897.73 97.79 898.52 96.32 935.59 116.24 897.73 97.79"/><path class="cls-6" d="M935.59,116.24l1.08-1.63c.47-.7.25-1.64-.48-2.07l-33.62-19.61-2.73,4.1,35.74,19.2Z"/><path class="cls-4" d="M899.86,97.04l-1.33-.72,2.27-3.23c.7-1,2.06-1.28,3.1-.63l30.67,19.03c1.63,1.01,2.09,3.17,1.03,4.76h0s.97-2.91.97-2.91l-33.98-20.39-2.73,4.1Z"/><path class="cls-4" d="M776.5,341.5s2.31,63.13,2.31,71.95-28.22,51.06-28.22,68.79c0,12.35,10.91,21.26,10.91,21.26l-14.44-.09-12.35-12.35s.94-10.13,0-23.63c-3.09-44.59,9.43-56.15,9.43-56.15l-16.64-48.78,5.56-19.6,43.44-1.4Z"/><path class="cls-4" d="M684.68,339.82s1.76,26.46,3.53,44.1c1.76,17.64-3.53,35.28-5.29,49.39-1.76,14.11,8.82,49.39,7.06,59.97-1.76,10.58-7.25,26.89-7.25,26.89l7.45,8.52,12.15-10.71s-1.76-24.69,5.29-40.57,12.35-28.22,12.35-58.21,14.11-74.08,14.11-74.08l-49.39-5.29Z"/><path class="cls-5" d="M733.55,481.34l12.52,22.15,14.43-1.99s8,5.15,8,9l-1,3-20.08,2.81c-2.67-.19-5.09-1.64-6.52-3.9l-9.29-14.7v18.56h-2.89s0-14.71-.96-20.48c-.96-5.78-.96-11.56,5.78-14.45Z"/><path class="cls-5" d="M680.79,519.19s9.56,7.2,21.53-1.23v-10.95s3.3,11.18,1.37,17.93c-1.93,6.74-12.52,11.56-22.15,9.63s-.75-15.38-.75-15.38Z"/><path class="cls-5" d="M721.03,223.03l53.94,19.7-3.85,13.48,3.52,9.39c3.4,9.07,5.15,18.69,5.15,28.38v48.92s-14.45,5.78-42.38,1.93l-1.93,3.85s-37.89.58-56.51-8.86l2.44-52.5c.83-17.95,9.63-34.59,24-45.38l11.77-8.84,3.85-10.07Z"/><path class="cls-6" d="M794.23,224.42l-19.26,18.3s-31.79,3.95-53.94-19.7l-16.37,15.85-14.45-10.6,35.88-61.19c2.06-3.51,5.7-5.8,9.76-6.13l13.11-1.07,5.78-3.85h26.89l8.75,9.63h4.55c6.06,0,11.24,4.35,12.3,10.32.52,2.89.79,6.25.48,9.91-.96,11.56,10.6,39.49,10.6,39.49l-15.41,13.48-8.67-14.45Z"/><path class="cls-4" d="M690.21,228.28l-11.27,10.25c-6.51,5.92-11.49,13.34-14.5,21.61l-10.83,29.79-10.6-10.6-9.55-.64c-2.47-.16-4.42,2.06-3.94,4.49h0s-17.34,6.74-17.34,11.56l3.85,3.85s9.63,0,15.41-6.74l6.74,11.56-2.89,8.67,5.78,2.89s1.93-7.15,10.11-6.95,6.26-11.36,6.26-11.36l47.2-57.79-14.45-10.6Z"/><path class="cls-4" d="M781.71,149.3l-.08,6.74,3.94,32.75s-26.01-16.37-30.82-32.75l6.74-14.45s-12.52,4.82-14.45-5.78c-1.93-10.6,4.82-36.6,4.82-36.6l29.86-5.78,11.56,18.3,4.12,4.12c2.26,2.26,3.37,5.43,3,8.61l-2.31,20.01s-8.67,5.78-16.37,4.82Z"/><path class="cls-5" d="M747.03,135.81c1.93-6.74,6.74-9.63,10.6-4.82,0,0,6.74-5.78-.96-11.56,0,0,6.42-9.19,3.69-15.19,0,0,15.03-9.51,25.41-4.38,0,0,.75-8.36-9.84-11.25s-13.45,4.82-13.45,4.82c0,0,12.49-16.37-4.85-26.01s-28.9,19.26-28.9,19.26l15.75,13.95s-8.05,7.24-7.08,16.88c.96,9.63,9.63,18.3,9.63,18.3Z"/><path class="cls-4" d="M891.5,231.5l14.11-2.26c-2.28-3.85-5.43-4.82-15.74-2.8-10.32,2.02-12.66-3.42-12.66-3.42,9.16,2.47,14.05-.67,16.05-2.6.72-.69,1.05-1.7.9-2.69-.3-2.07-2.54-3.29-4.42-2.37-6.29,3.09-11.7.39-11.7.39l-1.86-1.39c-3.64-2.73-8.43-3.41-12.68-1.79l-41.33,15.7-3.85-2.89-15.41,13.48,4.38,8.76c2.28,4.56,8.03,6.08,12.27,3.26l35.36-23.57,18.37,11.37c1.22.75,2.6,1.18,4.03,1.23l21.9.88s10.59-1.93,10.59-4.82c0-1.33-.89-2.85-1.85-4.12l-16.47-.36Z"/></g></svg>