<?xml version="1.0" encoding="utf-8"?>
<!-- Generator: Adobe Illustrator 26.1.0, SVG Export Plug-In . SVG Version: 6.00 Build 0)  -->
<svg version="1.1" xmlns="http://www.w3.org/2000/svg" xmlns:xlink="http://www.w3.org/1999/xlink" x="0px" y="0px"
	 viewBox="0 0 1366 543" style="enable-background:new 0 0 1366 543;" xml:space="preserve">
<style type="text/css">
	.st0{clip-path:url(#SVGID_00000182512086413803053160000004985124240096974782_);}
	.st1{fill:#FDF3EC;}
	.st2{fill:#EE8C3D;stroke:#6975CF;stroke-miterlimit:10;}
	.st3{fill:none;stroke:#6975CF;stroke-miterlimit:10;}
	.st4{fill:#8FBCEB;stroke:#6975CF;stroke-miterlimit:10;}
	.st5{fill:#FFFFFF;stroke:#6975CF;stroke-miterlimit:10;}
	.st6{fill:#6975CF;stroke:#6975CF;stroke-miterlimit:10;}
	.st7{fill:#EDC883;stroke:#6975CF;stroke-miterlimit:10;}
	.st8{fill:none;}
</style>
<g id="Calque_2">
</g>
<g id="Calque_1">
	<g>
		<defs>
			<rect id="SVGID_1_" width="1366" height="543"/>
		</defs>
		<clipPath id="SVGID_00000098936775988258470930000002639619117797077899_">
			<use xlink:href="#SVGID_1_"  style="overflow:visible;"/>
		</clipPath>
		<g style="clip-path:url(#SVGID_00000098936775988258470930000002639619117797077899_);">
			<rect class="st1" width="1366" height="543"/>
			<path class="st2" d="M115.59-1c0,0-20.36,42.67,12.52,68.55v477.78l372.12,0.35V-1H115.59z"/>
			<polygon class="st3" points="453.74,-1 453.74,35.73 144.55,51.12 144.73,-1 			"/>
			<polygon class="st4" points="500.22,57.12 128.11,73.84 128.11,88.65 500.22,70.43 			"/>
			<polygon class="st2" points="728.57,545.68 526.89,545.33 531.5,184.5 543.28,102.88 722.36,122.47 			"/>
			<polygon class="st4" points="711.17,179.13 652.98,179.13 667.1,212.71 720.09,212.71 			"/>
			<polygon class="st5" points="711.17,217.22 652.98,217.22 667.1,250.79 720.09,250.79 			"/>
			<polygon class="st6" points="711.17,255.3 652.98,255.3 667.1,288.88 720.09,288.88 			"/>
			<polygon class="st7" points="711.17,293.39 652.98,293.39 667.1,326.96 720.09,326.96 			"/>
			<polygon class="st4" points="711.17,331.47 652.98,331.47 667.1,365.05 720.09,365.05 			"/>
			<polygon class="st5" points="711.17,369.56 652.98,369.56 667.1,403.14 720.09,403.14 			"/>
			<polygon class="st4" points="711.17,407.64 652.98,407.64 667.1,441.22 720.09,441.22 			"/>
			<polygon class="st6" points="711.17,445.73 652.98,445.73 667.1,479.31 720.09,479.31 			"/>
			<polygon class="st7" points="711.17,483.81 652.98,483.81 667.1,517.39 720.09,517.39 			"/>
			<polygon class="st6" points="711.17,521.9 652.98,521.9 667.1,555.48 720.09,555.48 			"/>
			<polygon class="st6" points="543.35,111.41 710.82,129.11 709.76,545.68 722.31,545.68 722.36,122.47 543.28,102.88 			"/>
			<path class="st7" d="M500.22-1v546.68h26.67l16.39-442.8l179.08,19.59l-0.05,423.22h236.73l-7.23-430.91
				c0,0,51.07-52.46,9.09-115.77H500.22z"/>
			<path class="st6" d="M959.04,105.72L500.22,57.12v13.31l451.58,44.34C951.81,114.77,956.47,109.26,959.04,105.72z"/>
			<polygon class="st4" points="460.19,-1 460.19,44.2 138.71,57.12 138.71,-1 144.73,-1 144.55,51.12 453.74,35.73 453.74,-1 			
				"/>
			<polyline class="st6" points="909.5,-3.36 908.5,76.5 550.28,35.79 550.28,-1 543.28,-1 543.28,42.11 915.5,83.65 915.5,-10.93 
							"/>
			<polygon class="st4" points="844.49,310.18 761.32,318.95 746.92,220.92 832.66,210.42 			"/>
			<g>
				<polygon class="st7" points="763.47,270.02 756.48,226 827.64,215.85 834.56,263.94 				"/>
				<polygon class="st2" points="767.08,265.91 829.83,260.03 823.94,218.74 762.19,229.23 				"/>
				<path class="st7" d="M764.66,274.89v1.88c0,0.96,0.84,1.7,1.8,1.58l64.64-8.16c0.8-0.1,1.4-0.78,1.4-1.58v-2.11
					c0-0.96-0.85-1.71-1.8-1.58l-64.64,8.38C765.26,273.41,764.66,274.08,764.66,274.89z"/>
				<path class="st7" d="M765.73,283.33L765.73,283.33c0,0.95,0.82,1.68,1.76,1.59l60.55-6.16c0.95-0.1,1.61-1.01,1.4-1.94
					l-0.68-3.03c-0.18-0.82-0.97-1.35-1.8-1.23l-59.86,9.18C766.31,281.87,765.73,282.54,765.73,283.33z"/>
				<path class="st7" d="M766.49,290.83l0.2,0.5c0.26,0.67,0.93,1.08,1.64,1.01l62.72-6.08c0.82-0.08,1.44-0.77,1.44-1.59v-1.06
					c0-0.95-0.82-1.69-1.76-1.59l-62.92,6.63C766.77,288.77,766.11,289.85,766.49,290.83z"/>
				<path class="st7" d="M767.83,297.39v0.23c0,0.94,0.8,1.67,1.74,1.59l63.54-5.69c0.82-0.07,1.45-0.76,1.45-1.59v-1.27
					c0-0.95-0.82-1.69-1.77-1.59l-63.54,6.73C768.45,295.89,767.83,296.57,767.83,297.39z"/>
				<path class="st7" d="M769.09,304.79l0.72,1.24c0.31,0.54,0.9,0.84,1.52,0.79l61.78-5.49c0.82-0.07,1.46-0.76,1.46-1.59v-1.28
					c0-0.94-0.8-1.67-1.74-1.59l-62.49,5.53C769.17,302.5,768.5,303.78,769.09,304.79z"/>
			</g>
			<polygon class="st2" points="768.94,545.33 742.65,440.75 1294.5,461.5 1345.5,545.33 			"/>
			<polygon class="st5" points="786.08,545.33 758.75,430.96 846.88,435.86 872.37,545.33 			"/>
			<path class="st4" d="M781.9,477.09l16.4,68.24h67.26l-15.67-71.53c-0.74-3.37-3.72-5.77-7.17-5.77h-53.68
				C784.29,468.04,780.79,472.47,781.9,477.09z"/>
			<polygon class="st7" points="877.31,545.33 859.47,458.94 920.33,461.04 922.66,545.33 			"/>
			<path class="st2" d="M931.09,189.39c0,0-6.46,13.51-2.35,22.91s-3.13,12.36,0.49,22.34c3.62,9.98,10.09,23.63,10.09,23.63
				l49.94-11.89l-2.12-56.99l-34.31-7.64L931.09,189.39z"/>
			<path class="st6" d="M936,203.5h-12.8c0,0,0.25-6.47,2.6-11.17c0,0-3.53,2.35-5.88,8.81c0,0,2.35-20.56,24.68-26.44
				c22.33-5.88,28.2-3.53,37.02,2.94c8.81,6.46,13.51,21.74,11.75,35.84c0,0,10.58,12.34,4.11,27.62c0,0,1.76-9.99,0-14.1
				c0,0,0,11.16-4.7,14.69l-48.18,9.4c0,0-8.23-8.23-9.4-18.8C934.02,221.71,936,203.5,936,203.5z"/>
			<path class="st6" d="M932.92,275.66c0,0-61.56-30.78-121.02-19.59l8.39,143.4l82.54,3.5l33.58-14.69L932.92,275.66z"/>
			<path class="st2" d="M834.29,321.13c0,0,1.4-20.29-2.1-26.58c-3.5-6.3-6.24-22.39-6.24-22.39s-6.36,2.1-5.66,9.09
				c0.7,7,1.4,13.29,1.4,13.29s-8.16-9.67-8.27-12.53l-0.94-16.11c0,0-6.87,1.36-6.87,9.06c0,0-6.3,2.1-5.6,8.39
				c0,0-4.9,5.6-5.6,11.19c-0.7,5.6,5.92,17.49,11.35,26.58c5.44,9.09,10.33,18.19,10.33,18.19L834.29,321.13z"/>
			<polygon class="st4" points="761.43,545.33 737.05,443.55 742.65,440.75 768.94,545.33 			"/>
			<path class="st4" d="M774.47,444.01L774.47,444.01c0.21,0.57,0.75,0.96,1.36,0.99l65.26,2.69c0.86,0.04,1.58-0.66,1.58-1.52
				v-0.34c0-0.82-0.65-1.49-1.47-1.52l-65.26-2.35C774.87,441.91,774.09,442.99,774.47,444.01z"/>
			<path class="st4" d="M776.92,451.94l0.37,1.1c0.2,0.6,0.76,1.02,1.4,1.04l64.18,2.01c0.98,0.03,1.73-0.86,1.54-1.82l-0.09-0.45
				c-0.14-0.69-0.73-1.19-1.43-1.22l-64.46-2.66C777.36,449.9,776.59,450.93,776.92,451.94z"/>
			<polygon class="st4" points="1076.89,545.33 1052.11,447.75 1109.55,447.75 1109.55,545.33 			"/>
			<polygon class="st6" points="1081.85,545.33 1056.52,444.81 1109.55,447.75 1109.55,545.33 			"/>
			<polygon class="st7" points="1109.55,455.26 1066.53,454.05 1077.72,499.52 1109.55,501.3 			"/>
			<polygon class="st6" points="1109.55,458.95 1071.43,457.54 1081.58,495.07 1109.55,496.54 			"/>
			<path class="st7" d="M1109.55,510.97l-26.63-1.14c-1.07-0.05-1.9,0.91-1.7,1.96l0.07,0.4c0.14,0.77,0.8,1.33,1.58,1.36l26.68,0.8
				V510.97z"/>
			<path class="st7" d="M1109.55,518.03l-25.31-0.3c-1.14-0.01-1.95,1.1-1.6,2.18l0.02,0.07c0.22,0.67,0.84,1.13,1.54,1.14
				l25.34,0.59V518.03z"/>
			<path class="st7" d="M1109.55,525.57h-22.98c-1.16,0-1.96,1.15-1.56,2.24v0c0.24,0.65,0.86,1.08,1.56,1.08h23.42L1109.55,525.57z
				"/>
			<path class="st7" d="M1109.55,533.22h-20.77c-1.17,0-1.98,1.18-1.54,2.28l0.39,0.97c0.25,0.63,0.86,1.05,1.54,1.05h20.59
				L1109.55,533.22z"/>
			<path class="st6" d="M886.05,505.81c0,0-9.78,21.69-8.74,39.52h172.32c0,0-4.84-37.42-11.11-39.52H886.05z"/>
			<path class="st4" d="M842.68,320.43c0,0-22.39,0.7-32.88,23.78c0,0,40.57,87.75,64.36,88.3c23.78,0.54,28.68-25.34,28.68-25.34
				l1.4,4.9v12.49c0,0-32.88,79.85-28.68,98.74c0,0,37.39-27.28,179.59,0c0,0-18.7-71.35-37.58-92.34l-0.7-7
				c0,0,7.69,9.79,16.09,4.9s19.59-17.49,19.59-55.26s8.55-79.51-11.04-92.1s-36-13-36-13l-0.53-4c0,0,3.53-2,6.53-14
				c0,0-26.12-10.21-59.69,3.09c-33.58,13.29-39.17,23.48-39.17,23.48s-25.88,7-30.08,14.69c-4.2,7.69-14.69,67.16-14.69,67.16
				L842.68,320.43z"/>
			<polygon class="st2" points="904.24,412.07 1016.16,414.17 1016.86,423.97 1017.56,430.96 904.24,424.56 			"/>
			<path class="st4" d="M1109.55,545.33v-117.1c0,0,47.57-0.24,99.76,19.51c0,0,16.19-17.25,45.19-32.25V543L1109.55,545.33z"/>
			<path class="st2" d="M1118.08,545.2V415.5c0,0,66.05,5.5,91.24,32.25c0,0,7.19-29.25,36.19-37.25V543L1118.08,545.2z"/>
			<rect x="1254.5" y="415.5" class="st6" width="7.34" height="127.5"/>
			<polygon class="st2" points="806.54,255.38 722.35,232.04 751.74,133.66 829.83,160.43 			"/>
			<polygon class="st5" points="751.74,133.66 729.63,229.55 806.54,255.38 829.83,160.43 			"/>
			<g>
				<path class="st4" d="M759.27,146.5l-0.31,0.78c-0.31,0.77,0.09,1.65,0.88,1.92l56.08,19.13c0.94,0.32,1.93-0.38,1.93-1.38v-0.39
					c0-0.62-0.39-1.17-0.98-1.37l-55.77-19.52C760.37,145.41,759.56,145.77,759.27,146.5z"/>
				<path class="st4" d="M756.61,158.45l-0.51,1.42c-0.28,0.78,0.14,1.63,0.93,1.88l56.54,17.96c0.8,0.25,1.65-0.22,1.85-1.03l0,0
					c0.18-0.73-0.22-1.48-0.94-1.73l-56.03-19.38C757.7,157.3,756.88,157.7,756.61,158.45z"/>
				<g>
					<path class="st4" d="M753.91,170.06l-0.35,0.95c-0.23,0.61,0.1,1.29,0.71,1.5l26.51,9.05c0.58,0.2,1.22-0.09,1.45-0.67
						l0.26-0.65c0.25-0.61-0.07-1.31-0.69-1.53l-26.42-9.36C754.79,169.16,754.13,169.46,753.91,170.06z"/>
					<path class="st4" d="M752.65,177.06l-0.52,0.84c-0.39,0.63-0.1,1.47,0.61,1.71l25.72,8.93c0.67,0.23,1.39-0.18,1.52-0.88
						l0.24-1.23c0.11-0.57-0.22-1.14-0.77-1.33l-25.44-8.53C753.5,176.4,752.94,176.6,752.65,177.06z"/>
					<path class="st4" d="M750.55,183.78l-0.58,1.95c-0.18,0.61,0.16,1.25,0.76,1.44l26.66,8.41c0.6,0.19,1.23-0.13,1.44-0.72
						l0.49-1.37c0.22-0.61-0.11-1.29-0.72-1.49l-26.57-8.99C751.42,182.8,750.74,183.15,750.55,183.78z"/>
					<path class="st4" d="M749.16,191.17L749.16,191.17c-0.46,0.62-0.19,1.52,0.54,1.78l26.1,9.55c0.62,0.23,1.3-0.1,1.5-0.72
						l0.64-1.91c0.21-0.63-0.15-1.3-0.78-1.49l-26.74-7.64C749.95,190.61,749.45,190.78,749.16,191.17z"/>
					<path class="st4" d="M747.74,198.12l-0.56,0.7c-0.5,0.63-0.23,1.57,0.53,1.83l26.06,8.9c0.59,0.2,1.24-0.1,1.46-0.68l0.42-1.1
						c0.24-0.62-0.09-1.31-0.72-1.52l-25.92-8.5C748.55,197.59,748.04,197.74,747.74,198.12z"/>
					<path class="st4" d="M745.78,204.78l-0.65,1.92c-0.21,0.61,0.12,1.28,0.74,1.48l26.21,8.62c0.67,0.22,1.39-0.21,1.51-0.91
						l0.38-2.18c0.1-0.57-0.24-1.13-0.79-1.3l-25.93-8.35C746.63,203.85,745.98,204.18,745.78,204.78z"/>
					<path class="st4" d="M744.05,213.55v0.72c0,0.52,0.34,0.97,0.84,1.12l26.21,7.55c0.54,0.16,1.11-0.1,1.36-0.6l0.34-0.68
						c0.33-0.65-0.02-1.44-0.72-1.64l-26.55-7.59C744.79,212.22,744.05,212.78,744.05,213.55z"/>
					<path class="st4" d="M742.65,219.9v1.08c0,0.49,0.3,0.92,0.76,1.09l24.7,9.1c0.62,0.23,1.3-0.1,1.51-0.72l0.65-1.95
						c0.2-0.61-0.13-1.27-0.74-1.47l-25.34-8.24C743.42,218.55,742.65,219.11,742.65,219.9z"/>
				</g>
				<g>
					<path class="st4" d="M786.09,180.55l-0.35,0.95c-0.23,0.61,0.1,1.29,0.71,1.5l26.51,9.05c0.58,0.2,1.22-0.09,1.45-0.67
						l0.26-0.65c0.25-0.61-0.07-1.31-0.69-1.53l-26.42-9.36C786.97,179.65,786.31,179.96,786.09,180.55z"/>
					<path class="st4" d="M784.83,187.55l-0.52,0.84c-0.39,0.63-0.1,1.47,0.61,1.71l25.72,8.93c0.67,0.23,1.39-0.18,1.52-0.88
						l0.24-1.23c0.11-0.57-0.22-1.14-0.77-1.33l-25.44-8.53C785.68,186.89,785.12,187.09,784.83,187.55z"/>
					<path class="st4" d="M782.73,194.27l-0.58,1.95c-0.18,0.61,0.16,1.25,0.76,1.44l26.66,8.41c0.6,0.19,1.23-0.13,1.44-0.72
						l0.49-1.37c0.22-0.61-0.11-1.29-0.72-1.49l-26.57-8.99C783.6,193.29,782.92,193.64,782.73,194.27z"/>
					<path class="st4" d="M781.34,201.66L781.34,201.66c-0.46,0.62-0.19,1.52,0.54,1.78l26.1,9.55c0.62,0.23,1.3-0.1,1.5-0.72
						l0.64-1.91c0.21-0.63-0.15-1.3-0.78-1.49l-26.74-7.64C782.13,201.1,781.63,201.27,781.34,201.66z"/>
					<path class="st4" d="M779.92,208.61l-0.56,0.7c-0.5,0.63-0.23,1.57,0.53,1.83l26.06,8.9c0.59,0.2,1.24-0.1,1.46-0.68l0.42-1.1
						c0.24-0.62-0.09-1.31-0.72-1.52l-25.92-8.5C780.73,208.08,780.22,208.23,779.92,208.61z"/>
					<path class="st4" d="M777.95,215.27l-0.65,1.92c-0.21,0.61,0.12,1.28,0.74,1.48l26.21,8.62c0.67,0.22,1.39-0.21,1.51-0.91
						l0.38-2.18c0.1-0.57-0.24-1.13-0.79-1.3l-25.93-8.35C778.81,214.35,778.16,214.67,777.95,215.27z"/>
					<path class="st4" d="M776.22,224.04v0.72c0,0.52,0.34,0.97,0.84,1.12l26.21,7.55c0.54,0.16,1.11-0.1,1.36-0.6l0.34-0.68
						c0.33-0.65-0.02-1.44-0.72-1.64l-26.55-7.59C776.96,222.71,776.22,223.27,776.22,224.04z"/>
					<path class="st4" d="M774.83,230.4v1.08c0,0.49,0.3,0.92,0.76,1.09l24.7,9.1c0.62,0.23,1.3-0.1,1.51-0.72l0.65-1.95
						c0.2-0.61-0.13-1.27-0.74-1.47l-25.34-8.24C775.6,229.05,774.83,229.61,774.83,230.4z"/>
				</g>
			</g>
			<path class="st6" d="M1136.5,435.5c0,0,36.39-1.12,68.19,22.44v7.8c0,0-29.19-24.14-68.19-23.69V435.5z"/>
			<path class="st6" d="M1140.99,451.87c10.68,0.27,38.45,2.58,61.72,18.54c1.23,0.84,1.97,2.23,1.95,3.72l-0.81,50.41
				c-0.05,2.99-3.01,5.09-5.83,4.09c-8.23-2.91-25.9-6.67-56.47-2.19c-2.66,0.39-5.04-1.65-5.04-4.33v-65.85
				C1136.5,453.79,1138.52,451.81,1140.99,451.87z"/>
			<path class="st2" d="M1199.17,476.18c-4.75-3.31-23.63-15.09-53.88-16.57c-1.52-0.07-2.79,1.13-2.79,2.65v54.5
				c0,1.57,1.36,2.79,2.92,2.64c7.73-0.77,29.55-2.22,49.66,3.26c1.63,0.44,3.25-0.74,3.33-2.43l1.89-41.75
				C1200.34,477.56,1199.92,476.7,1199.17,476.18z"/>
			<line class="st6" x1="1209.31" y1="447.75" x2="1209.31" y2="545.68"/>
			<g>
				<path class="st4" d="M601.63,23.92L601.68-39l12,1.51l-0.04,51.21l27.48,3.47l-0.01,11.71L601.63,23.92z"/>
				<path class="st4" d="M650.33,30.07l0.05-62.92l12.17,1.54L662.5,31.6L650.33,30.07z"/>
				<path class="st4" d="M715.78-24.61l12.7,1.6l-22.92,60.04l-12.35-1.56l-22.73-65.8l13.13,1.66l16.05,48.8L715.78-24.61z"/>
				<path class="st4" d="M754.71,19l-6.26-0.79l-0.02,24.23l-12.09-1.52l0.05-62.92l24.09,3.04c12,1.51,19.65,10.91,19.64,21.83
					c-0.01,8.79-5.06,14.81-13.15,16.18l13.2,27.4l-13.39-1.69L754.71,19z M758.19,8.88c6.09,0.77,9.65-2.33,9.66-7.48
					c0-5.33-3.56-9.24-9.64-10l-9.74-1.23l-0.01,17.48L758.19,8.88z"/>
				<path class="st4" d="M790.69,47.77l0.05-62.92l38.61,4.87l-0.01,11.54L802.73-2.1l-0.01,14.38l24.09,3.04l-0.01,10.92
					l-24.09-3.04l-0.01,14.56l26.61,3.36l-0.01,11.54L790.69,47.77z"/>
				<path class="st4" d="M872.04,13.48c-0.61-3.54-3.38-9.3-11.21-10.29c-5.83-0.73-9.66,2.6-9.66,6.77c0,3.46,2.17,6.49,6.69,7.94
					l8.61,2.77c11.22,3.63,17.21,11.85,17.2,20.72c-0.01,9.67-7.93,18.44-22.28,16.63c-16.35-2.06-23.56-13.71-24.51-22.8
					l11.13-1.61c0.52,6.28,4.77,12.41,13.47,13.5c6.44,0.81,10-2.02,10.01-6.46c0-3.64-2.69-6.82-7.47-8.4l-8.61-2.86
					c-9.82-3.28-16.17-10.56-16.16-20.06c0.01-11.18,9.84-18.46,21.5-16.99c14.96,1.89,20.69,11.84,22.07,19.12L872.04,13.48z"/>
			</g>
			<g>
				<path class="st7" d="M171.97,36l0.05-58.32l11.12-0.57l-0.04,47.46l25.46-1.32l-0.01,10.86L171.97,36z"/>
				<path class="st7" d="M217.1,33.66l0.05-58.32l11.28-0.58l-0.05,58.32L217.1,33.66z"/>
				<path class="st7" d="M277.75-27.78l11.77-0.61l-21.24,59.41l-11.44,0.59l-21.07-57.23l12.17-0.63l14.87,42.58L277.75-27.78z"/>
				<path class="st7" d="M313.82,6.21l-5.8,0.3L308,28.97l-11.2,0.58l0.05-58.32l22.32-1.15c11.12-0.57,18.21,6.87,18.2,16.99
					c-0.01,8.14-4.69,14.55-12.18,17.16l12.23,23.22l-12.41,0.64L313.82,6.21z M317.05-3.74c5.64-0.29,8.95-3.75,8.95-8.52
					c0-4.94-3.3-7.97-8.94-7.68l-9.03,0.47l-0.01,16.2L317.05-3.74z"/>
				<path class="st7" d="M347.17,26.95l0.05-58.32L383-33.22l-0.01,10.69l-24.66,1.27l-0.01,13.33l22.32-1.15l-0.01,10.12
					l-22.32,1.15l-0.01,13.49l24.66-1.27l-0.01,10.69L347.17,26.95z"/>
				<path class="st7" d="M422.55-18.24c-0.56-3.18-3.14-8.06-10.39-7.69c-5.4,0.28-8.95,4-8.95,7.86c0,3.21,2.01,5.65,6.2,6.26
					l7.98,1.15c10.39,1.52,15.95,8.14,15.94,16.37c-0.01,8.97-7.35,18.39-20.64,19.08c-15.15,0.78-21.83-8.82-22.71-17.09
					l10.32-3.33c0.48,5.73,4.42,10.71,12.48,10.3c5.96-0.31,9.27-3.52,9.27-7.63c0-3.37-2.49-5.88-6.92-6.55l-7.98-1.23
					c-9.1-1.42-14.98-7.12-14.98-15.92c0.01-10.36,9.12-18.73,19.92-19.29c13.86-0.72,19.17,7.56,20.46,14.08L422.55-18.24z"/>
			</g>
			<rect class="st8" width="1366" height="543"/>
			<path class="st6" d="M588.75,238.59l19.84-55.69c2.51-7.03-2.6-14.46-10.06-14.64l-191.22-4.58c-4.67-0.11-8.91,2.75-10.54,7.14
				l-99.83,268.43c-2.55,6.87,2.22,14.26,9.53,14.76l198.36,13.45c5.01,0.34,9.6-2.76,11.16-7.53l48.96-149.98L588.75,238.59z"/>
			<path class="st4" d="M584.75,232.59l19.84-55.69c2.51-7.03-2.6-14.46-10.06-14.64l-191.22-4.58c-4.67-0.11-8.91,2.75-10.54,7.14
				l-99.83,268.43c-2.55,6.87,2.22,14.26,9.53,14.76l198.36,13.45c5.01,0.34,9.6-2.76,11.16-7.53l48.96-149.98L584.75,232.59z"/>
			<path class="st6" d="M566.29,243.04l17.15-48.13c2.17-6.08-2.25-12.5-8.7-12.65l-165.27-3.96c-4.04-0.1-7.7,2.38-9.11,6.17
				l-86.28,232c-2.21,5.94,1.92,12.32,8.24,12.75l171.44,11.63c4.33,0.29,8.3-2.39,9.65-6.51l42.32-129.63L566.29,243.04z"/>
			<g>
				<polygon class="st7" points="549.5,228.5 401.5,225.5 405.5,215.5 553.5,218.5 				"/>
				<polygon class="st7" points="541.5,251 393.5,248 397.5,238 545.5,241 				"/>
				<polygon class="st7" points="534.5,273.5 386.5,270.5 390.5,260.5 538.5,263.5 				"/>
				<polygon class="st7" points="507.5,348.5 359.5,340.5 363.5,330.5 511.5,338.5 				"/>
				<polygon class="st7" points="501.5,296 376.5,293 380.5,283 505.5,286 				"/>
				<polygon class="st7" points="460.5,319.5 368.5,315.5 372.5,305.5 464.5,309.5 				"/>
			</g>
			
				<ellipse transform="matrix(0.7376 -0.6753 0.6753 0.7376 16.0171 430.2135)" class="st2" cx="561.5" cy="194.5" rx="7.65" ry="6.41"/>
			
				<ellipse transform="matrix(0.1824 -0.9832 0.9832 0.1824 10.214 452.2834)" class="st4" cx="277.06" cy="220" rx="20.66" ry="10.58"/>
			
				<ellipse transform="matrix(0.1824 -0.9832 0.9832 0.1824 10.214 452.2834)" class="st2" cx="277.06" cy="220" rx="16.15" ry="8.27"/>
			<g>
				<path class="st7" d="M236.54,348.07c0,0,9.79-31.48,37.77-30.78c0,0,10.49-15.39,32.88-9.09c0,0,18.5-10.02,36.88-1.51
					c0,0,19.78-3.38,27.48,3.61c0,0,2.8,13.99-21.69,10.49c0,0-9.79,13.29-21.69,11.89c0,0-6.3,27.28-13.99,35.68
					c0,0,2.1,7-0.7,14.69c0,0,16.09-4.9,25.18-17.49c9.09-12.59,19.59-9.09,23.08-1.4c0,0-22.39,44.07-50.37,42.67L236.54,348.07z"
					/>
				<path class="st7" d="M205.75,296.6l2.14-4.81l10.03,4.83c11.67,5.62,25.76,1.76,32.81-9.11c14.05-21.64,32.07-60.9,20.25-108.53
					l-14.7-25.4l-104.25-16.57l-35.82,90.35l-5.35,40.1L205.75,296.6z"/>
				<path class="st5" d="M92,290.4l5.21-16.77c0,0-6.36-4.15,0-11.62c6.36-7.47,104.35,17.21,112.21,37.65
					c2.89,7.52-3.47,1.74-2.89,26.03L92,290.4z"/>
				<path class="st6" d="M253.33,124.79c-0.52-0.47-1.05-0.94-1.6-1.4c-27.8-23.52-94.63-29.94-123.5,5.35
					c-23.47,28.69-20.44,69.04-15.47,88.73c2.06,8.16,2.54,16.63,1.43,24.98l-0.51,3.85c-0.62,4.63,2.45,8.95,7.02,9.9l28.58,5.94
					c7.45,1.55,15.21,0.32,21.83-3.44l31.97-18.21c0,0-12.86-43.77,12.3-44.91c11.76-0.53,5.88,17.64,5.88,17.64
					s22.99-16.04,22.45-43.84l27.27,9.62c0,0,2.15-8.08,0.78-19.11c9.65,11.46,20.07,8.95,20.07,8.95
					C275.59,162.02,278.85,147.5,253.33,124.79z"/>
				<path class="st6" d="M219.4,335.13c0,0-52.35-65.06-139.79-57.36l-6.3,11.19c0,0-63.07,14.06-82.31,31.17v225.22h429.55
					c0,0-79.88-134.45-132.6-176.63C270.46,354.71,219.4,335.13,219.4,335.13z"/>
				<path class="st7" d="M588.75,238.59l-23.78,71.35c0,0-7.69,12.59-19.59,13.29v-32.19c0,0,23.53-16.56,21.69-34.47
					c-0.7-6.79-4.2-10.99-4.2-10.99l-36.38,28.68c0,0-20.29,48.27-20.29,64.36s16.01,72.61,16.01,72.61l77.03,14.83
					c0,0,42.67-83.94,48.97-95.84c6.3-11.89,23.08-31.48-7.69-38.47c0,0-13.99-22.39-39.87-29.38
					C600.64,262.37,604.14,246.28,588.75,238.59z"/>
				<path class="st5" d="M510.4,431.66l3.5-9.79c0,0-8.39-14.69,9.79-18.89c18.19-4.2,82.51,5.65,84.46,28.68
					c0.89,10.49-8.21,13.99-8.21,13.99l-4.2,16.09L510.4,431.66z"/>
				<path class="st6" d="M441.2,545.33c0,0,15.34-52.81,28.63-54.91c0,0-7-16.09,12.59-20.99c0,0,6.81-34.52,20.54-37.55
					c13.73-3.03,102.57,15.16,99.08,32.65c-3.5,17.49-13.29,16.09-14.69,27.98c0,0,11.89,20.29,4.9,34.28s-5.13,18.54-5.13,18.54
					H441.2z"/>
			</g>
			<path class="st4" d="M286,221.21l-63.71-12.37l0.32-6.71l64.3,15c0.88,0.2,1.41,1.09,1.2,1.96l-0.23,0.93
				C287.66,220.85,286.84,221.37,286,221.21z"/>
		</g>
	</g>
</g>
</svg>
