<?xml version="1.0" encoding="UTF-8"?><svg xmlns="http://www.w3.org/2000/svg" xmlns:xlink="http://www.w3.org/1999/xlink" viewBox="0 0 1384 648"><defs><style>.d,.e,.f,.g,.h,.i,.j{fill:none;}.e,.f,.k,.l,.m,.n,.o,.h,.i,.p,.q,.r,.s,.t{stroke:#6975cf;}.e,.p,.q,.r,.s,.t{stroke-linejoin:round;}.u,.k,.p{fill:#6975cf;}.v,.l,.r{fill:#fff;}.w,.o,.q{fill:#8fbceb;}.x{fill:#1d1845;}.y{fill:#fdf3ec;mix-blend-mode:multiply;}.f,.g,.k,.l,.m,.n,.o,.h,.i,.j{stroke-miterlimit:10;}.f,.g,.h{stroke-linecap:round;}.g,.j{stroke:#fff;}.m,.s{fill:#ee8c3d;}.n,.t{fill:#edc883;}.h{stroke-width:2px;}.a`{clip-path:url(#c);}.aa{isolation:isolate;}</style><clipPath id="c"><rect class="d" x=".1" y="-.56" width="1383.43" height="648"/></clipPath></defs><g class="aa"><g id="a"/><g id="b"><g class="a`"><g><rect class="y" x=".1" y="-.56" width="1384" height="648"/><g><g><g><path class="n" d="M799.68,493.23v-42.82c0-14.31-8.67-27.19-21.93-32.58l-16.45-6.68c-5.3-2.15-10-5.57-13.68-9.94l-28.17-33.48,.76-.74c3.08-3.01,7.71-3.79,11.61-1.96h0l-5.67-8.13,1.66-.53c4.07-1.29,8.5-.63,12.01,1.78l.02,.02-.81-1.76c-.78-1.69,.24-3.67,2.07-4.02h0c2.07-.39,4.2-.02,6.02,1.03l4.95,2.85-.28-.88c-.6-1.9,.6-3.9,2.57-4.26h0c2.06-.37,4.17,.37,5.55,1.95h0l71.7,64.37,8.65,5.66v70.14h-40.58Z"/><path class="n" d="M944.41,385.88c-.37,0-.72-.22-.88-.58l-37.04-86.2-37.04,86.2c-.21,.48-.77,.71-1.26,.5-.49-.21-.71-.77-.5-1.26l37.92-88.24c.15-.35,.5-.58,.88-.58s.73,.23,.88,.58l37.92,88.24c.21,.48-.02,1.05-.5,1.26-.12,.05-.25,.08-.38,.08Z"/><path class="n" d="M906.4,409.14h0c-13.3,0-25.75-6.56-33.26-17.54l-4.57-6.67h75.84l-5.16,7.26c-7.56,10.64-19.8,16.96-32.85,16.96Z"/><path class="n" d="M822.05,385.88c-.37,0-.72-.22-.88-.58l-37.04-86.2-37.04,86.2c-.21,.48-.77,.71-1.26,.5-.49-.21-.71-.77-.5-1.26l37.92-88.24c.15-.35,.5-.58,.88-.58s.73,.23,.88,.58l37.92,88.24c.21,.48-.02,1.05-.5,1.26-.12,.05-.25,.08-.38,.08Z"/><path class="n" d="M784.04,409.14h0c-13.3,0-25.75-6.56-33.26-17.54l-4.57-6.67h75.84l-5.16,7.26c-7.56,10.64-19.8,16.96-32.85,16.96Z"/><path class="n" d="M731.82,365.02s9.86,4.61,16.59,14.81"/><line class="n" x1="739.82" y1="358.14" x2="752.49" y2="370.32"/><line class="n" x1="751.8" y1="355.37" x2="757.16" y2="359.45"/><path class="n" d="M766.66,354.32s15.38-9.58,33.16,0c0,0-1.25,21.05-15,30.61,0,0-16.2-6.41-18.16-30.61Z"/><path class="n" d="M889.66,354.32s15.38-9.58,33.16,0c0,0-1.25,21.05-15,30.61,0,0-16.2-6.41-18.16-30.61Z"/><path class="n" d="M799.27,413.15l-10.36-11.66-13.75-19.12,7.58-1.74c7.18-1.64,14.64,1.26,18.82,7.33h0c3.42,4.97,7.98,9.03,13.31,11.86l9.94,5.26c7.24,3.83,12.75,10.26,15.44,17.99l.91,2.63"/><path class="n" d="M906.81,297.94h-122.36c-.53,0-.96-.43-.96-.96s.43-.96,.96-.96h122.36c.53,0,.96,.43,.96,.96s-.43,.96-.96,.96Z"/><rect class="n" x="839.9" y="296.02" width="10.2" height="195.2"/><g><g><rect class="n" x="904.99" y="424.15" width="27.56" height="39.68" transform="translate(-79.04 230.37) rotate(-13.71)"/><rect class="n" x="902.51" y="429.94" width="32.52" height="28.11" rx="3.9" ry="3.9" transform="translate(-79.04 230.37) rotate(-13.71)"/><path class="n" d="M901.24,421.05h24.8c2.13,0,3.86,1.73,3.86,3.86h-32.52c0-2.13,1.73-3.86,3.86-3.86Z" transform="translate(-74.21 228.55) rotate(-13.71)"/><path class="n" d="M907.7,463.35h32.52c0,2.13-1.73,3.86-3.86,3.86h-24.8c-2.13,0-3.86-1.73-3.86-3.86h0Z" transform="translate(-83.94 232.2) rotate(-13.71)"/></g><path class="n" d="M806.61,456.9h97.83v6.06h-97.83c-1.67,0-3.03-1.36-3.03-3.03h0c0-1.67,1.36-3.03,3.03-3.03Z" transform="translate(-84.66 215.48) rotate(-13.71)"/><rect class="n" x="867.05" y="449.74" width="5.51" height="12.68" rx="2.76" ry="2.76" transform="translate(-83.3 219.11) rotate(-13.71)"/></g><path class="n" d="M900.44,470.32h51.62c2.81,0,5.1,2.28,5.1,5.1h-61.82c0-2.81,2.28-5.1,5.1-5.1Z"/></g><path class="e" d="M784.14,394.58h0c3.23,0,5.2-3.57,3.46-6.3l-4.85-7.64"/></g><g><g><path class="o" d="M1065.21,113.3s9.13-4.47,11.88-17.28c0,0,15.88,5.28,30.37,3.96,0,0-3.59,4.86-8.99,9.13s-21.53,9.99-21.53,9.99l-11.73-5.8Z"/><path class="o" d="M1098.47,109.1s-20.96,14.33-46.32-8.32l-8.18,17.54s36.58,8.11,54.5-9.22Z"/></g><path class="k" d="M1239.11,186.92s-10.3,25.09-12.91,30.18c-2.6,5.09-15.33,24.1-18.41,41.28-3.07,17.19-1.12,31.26-1.12,31.26h0c-3.04,.98-4.83,4.11-4.14,7.22l2.11,9.53c.73,3.3,3.98,5.4,7.3,4.71l40.31-8.4-7.74-27.25h0c6.78,10.61,20.33,14.62,31.79,9.4l32.36-14.72,2.14,2.52c2.16,2.55,5.95,2.92,8.56,.84l9.46-7.52c1.78-1.41,2.63-3.68,2.24-5.91-1.01-5.79-3.93-18.11-12.15-35.46,0,0-32.37,28.05-45.06,20.02-12.69-8.03-6.61-25.4-3.14-37.68,3.47-12.28,.09-28.93-3.05-34.72l-28.58,14.67Z"/><polygon class="k" points="1236.11 193.51 1254.02 183.15 1246.87 177.49 1231.73 189.82 1233.4 194.96 1236.11 193.51"/><path class="n" d="M1318.94,224.61s-32.37,28.05-45.06,20.02c-12.69-8.03-6.61-25.4-3.14-37.68,3.47-12.28,.08-28.93-3.05-34.72l-28.58,14.67s-10.3,25.09-12.91,30.18c-2.6,5.09-15.33,24.1-18.41,41.28-3.07,17.19-1.12,31.26-1.12,31.26-3.04,.98-4.83,4.11-4.14,7.22l2.11,9.53c.73,3.3,3.98,5.4,7.3,4.71l40.31-8.4-7.74-27.25c6.78,10.61,20.33,14.62,31.79,9.4l32.36-14.72,9.17-6.15,1.27,9.7c.09-.06,.17-.12,.26-.19l9.46-7.52c1.78-1.41,2.63-3.68,2.24-5.91-1.01-5.79-3.93-18.11-12.15-35.46Z"/><path class="m" d="M1333.32,216.49s.37-5.43,6.33-10.01c5.96-4.58,14.29-6.74,14.29-6.74,0,0,3.91,8.83,12.48,15.62s15.84,16.13,19.17,36.31c0,0-6.9,3.29-9.75-.57-2.84-3.86-12.64-18.94-24.59-20.21-4.95-.53-12.48,.84-12.48,.84l.5-1.75-5.95-13.48Z"/><path class="n" d="M1219.76,343.49c-3.49-2.59-5.43-.37-5.14,2.19,.3,2.56-.57,9.75-6.54,15.93-4.05,4.19-11.2,7.92-15.37,9.88-2.01,.94-3.3,2.94-3.32,5.16l-.04,4.29s14.39,.13,23.56-6.02c9.17-6.15,32.45-13.25,32.45-13.25l-3.73-11.54c-.78-2.43-2.1-4.64-3.86-6.49l-5.5-5.79-12.52,5.64Z"/><g><path class="o" d="M1151.6,142.4s8.24,7.43,22.33,5c0,0,1.11,18.23,8.33,32.37,0,0-6.38-1.66-12.9-5.39-6.52-3.74-18.87-17.74-18.87-17.74l1.1-14.24Z"/><path class="o" d="M1169.37,174.37s-23.04-15.4-10.41-50.29l-21.09-1.15s6.66,40.35,31.5,51.45Z"/></g><g><path class="o" d="M1241.7,28.29s-.25-7.36,9.58-16.38c9.83-9.02,20.7-8.28,20.7-8.28l-25.9-20.97s-37.15,28.06-23.02,38.9l18.64,6.73Z"/><path class="o" d="M1262.27,34.39s-18.93-7.28-28.77-25.56c0,0-7.02,11.82-12.47,10.56,0,0,3.92,6.34,16.35,10.29,12.43,3.95,24.89,4.71,24.89,4.71Z"/></g><path class="k" d="M1227.69,125.63s-6.07-.01-6.99-4.5c-.92-4.48,5.66-7.14,5.66-7.14,0,0-5.4-3.57-.56-8.32,4.84-4.75,9.27,.73,13.61-2.27s3.89-6.66,3.89-6.66c0,0,4.31,.82,4.75,5.46s-2.31,7.65-2.31,7.65l-2.37,10.71-15.68,5.07Z"/><path class="m" d="M1237.01,155.18l-2.95-27.2s-6.55-.54-7.79-4.39c-1.24-3.85,7.37-3.62,9.79-5.11s8.35-2.87,9.68-8.62c0,0,10.29,10.49,.13,20.14l2.33,7.22-11.2,17.96Z"/><ellipse class="n" cx="1235.93" cy="116.48" rx="3.81" ry="4.85" transform="translate(633.41 1201.86) rotate(-66.35)"/><path class="n" d="M1248.25,111.4c-1.14-1.86-3.69-2.84-5.71-2.19s-2.73,2.69-1.59,4.54c.14,.23,.3,.45,.49,.65,.21-.38,.55-.68,1-.82,.93-.3,1.93,.21,2.23,1.14,.15,.47,.1,.95-.11,1.35,.72,.11,1.44,.08,2.11-.13,2.02-.65,2.73-2.69,1.59-4.54Z"/><path class="o" d="M1237.01,155.18l-16.75,30.38,15.42,9.89,.43-1.94s-3.18-1.42-2.1-3.1c1.09-1.68,16.03-9.69,26.14-14.56,10.12-4.86,18.25-8.02,18.09-14.08-.16-6.06-12.78-7.29-11.25-17.35,1.53-10.06,24.3-16.88,24.3-16.88l-18.6-28.38-24.5,38.05-11.2,17.96Z"/><path class="m" d="M1222.39,186.92l-3.8,6.61s-18.47-11.67-30.85-27.43c-.97-1.24-2.45-1.97-4.03-1.99h0c-1.44-.01-2.83,.58-3.82,1.63l-14.27,15.15s5.67,15.89,16.13,13.74l10.21-9.5,20.62,24.47c2.64,3.13,6.91,4.35,10.8,3.09h0c2.51-.81,4.61-2.58,5.83-4.92l6.45-12.33-13.29-8.53Z"/><path class="i" d="M1178.72,167l-7.24,7.69,1.4,.54c1.86,.71,3.96,.45,5.59-.7l3.88-2.75s-.37,5.43,3.62,6.27"/><path class="m" d="M1272.7,99.16l1.94-3.43-9.86-40.38-7.03-2.46s-6.06-16.69-9.39-18.8l4.09-.9-1.33-6.27c-.24-1.14,.56-2.24,1.72-2.36l2.97-.31-3.29-6.9,12.2-1.18,10.14,22.65s2.01,7.85-.75,12.46l14.4,31.4c1.46,3.19,2.18,6.68,2.02,10.18-.24,5.37-1.54,13.81-6.32,23.83l-11.49-17.54Z"/><g><path class="f" d="M1252.45,33.21h0c1.32,.2,2.41,1.13,2.82,2.4l1.05,3.26c.57,1.75,2.25,2.89,4.08,2.77l1.63-.11c2.07-.14,3.97,1.15,4.61,3.13l.34,1.06"/><line class="f" x1="1255.81" y1="24.26" x2="1260.05" y2="32.46"/><line class="f" x1="1256.63" y1="16.96" x2="1264.4" y2="33.71"/><line class="f" x1="1260.96" y1="16.54" x2="1267.88" y2="32.05"/></g><line class="f" x1="1167.74" y1="185.38" x2="1175.81" y2="177.51"/><line class="f" x1="1170.42" y1="189.41" x2="1180.39" y2="179.2"/><path class="f" d="M1173.35,192.37l9.71-10.54,.7,2.39c.35,1.2,.08,2.51-.73,3.46s-1.9,2-3.11,2.57"/><line class="f" x1="1183.06" y1="181.83" x2="1182.27" y2="179.77"/><g><path class="o" d="M1343.85,80.45s18.77-7.66,20.29-16.12l-8.95,.24-11.34,15.88Z"/><polygon class="o" points="1327.31 104.92 1346.37 92.3 1342 89.55 1334.76 95.08 1325.59 101.23 1327.31 104.92"/><path class="o" d="M1335.19,117.78l-16.33,2.09s-3.81-7.35,1.08-15c4.89-7.65,15.43-6.27,15.66-13.78,.23-7.51,1.24-12.62,10.06-16.53,8.83-3.91,3.97-14.03,3.97-14.03l16.4-10.08s3.26,10.1-1.89,13.89c-5.15,3.79-16.37,6.88-15.14,12.33,1.23,5.45,1.96,12.48-2.63,15.64-4.58,3.16-18.49,2.87-17.76,10.87,.73,8,6.58,14.61,6.58,14.61Z"/></g><path class="o" d="M1213.8,310.72s3.38,18.2,4.45,23.16c1.07,4.97,1.51,9.61,1.51,9.61,0,0,7.16,4.06,9.72,3.77,2.56-.3,2.8-9.41,2.8-9.41,0,0-2.15-1.71-1.98-6.14,.16-4.43,0-24.43,0-24.43l-16.5,3.44Z"/><path class="o" d="M1320.27,227.48s9.48-5.58,11.26-8.28l1.78-2.7s5.45-1.23,7.03,.38-1.08,13.1-1.08,13.1c0,0-9.58,2.88-13.66,10.15l-5.34-12.65Z"/><path class="n" d="M1345.26,203.06c-1.89,.94-3.85,2.07-5.61,3.42-3.06,2.36-4.65,4.94-5.47,6.89,2.96-.03,8.61,.31,10.33,3.23,2.36,4.02,.9,6.08,.9,6.08,0,0,11.78,5.22,15.96,3.34,4.17-1.88,4.03-3.96,4.03-3.96,0,0-11.27-8.58-13.96-11.96-1.7-2.14-4.41-5.13-6.19-7.05Z"/><path class="k" d="M1371.87,230.6c-2.7,3.09-3.94,7.51-4.44,9.91,4.06,4.27,7.04,8.73,8.41,10.58,1.24,1.68,3.25,2.01,5.12,1.84l-9.09-22.34Z"/><path class="n" d="M1241.64,350.14c-.78-2.43-2.1-4.64-3.86-6.49l-1.49-1.57c-.87,2.52-3.59,9.98-5.58,10.63-2.41,.78-4.79-3.23-4.79-3.23,0,0-12.68,11.43-9.64,18.47l27.5-11.17-2.14-6.63Z"/><path class="n" d="M1205.42,363.98c-4.05,3.2-9.34,5.92-12.7,7.5-2.01,.94-3.3,2.94-3.32,5.16v.37c2.37-.05,6.34-.48,11.21-2.37,8.02-3.12,9.5-4.71,9.5-4.71l-4.68-5.95Z"/><g><path class="n" d="M1242.83,224.15s-16.81,30.2-12.77,60.77l10.57-1.82s6.61,11.6,2.04,21.61h0l9.61-2-7.74-27.25s-11.06-17.8-1.7-51.31Z"/><path class="i" d="M1244.53,275.46c.36,.56,.74,1.1,1.14,1.62l-1.14-1.62Z"/></g><g><path class="o" d="M1102.51,194.74l38.39-21.29s6.36,29.88,17.36,46.08l-38.29,16.49s-14.48-14.25-17.45-41.27Z"/><polygon class="o" points="1171.25 287.75 1174.16 229.86 1121.68 264.26 1171.25 287.75"/><path class="o" d="M1137.56,207.12s8.68,26.16,27.13,39.95l-46.95,29.49s-20.8-15.01-24.32-36.09l44.14-33.35Z"/><path class="o" d="M1111.01,266.89l-28.7,23.26,37.16,25.85,51.78-28.25-44.52-33.35-3.24,2.69-3.07-1.57c-1.12-.57-2.48-.4-3.42,.44l-6.63,5.94c-1.59,1.43-1.26,4,.64,4.97h0Z"/><ellipse class="o" cx="1124.58" cy="289.19" rx="9.24" ry="15.24" transform="translate(503.4 1270.23) rotate(-72.08)"/><g><polyline class="w" points="1122.1 292.12 1127.83 292.51 1124.07 284.04"/><path class="o" d="M1128.32,294.04c-.19,.06-.39,.09-.6,.07l-5.73-.39c-.88-.06-1.55-.82-1.49-1.7,.06-.88,.83-1.55,1.7-1.49l3.08,.21-2.68-6.04c-.36-.81,0-1.75,.81-2.11,.82-.34,1.75,0,2.11,.81l3.76,8.47c.23,.51,.17,1.11-.15,1.57-.2,.29-.49,.5-.82,.6Z"/></g></g></g><g><path class="t" d="M1122.28,443.54h-23.35l-4.35,12.27h-14.15l22.76-60.43h15.6l22.5,60.43h-14.66l-4.35-12.27Zm-18.92-12.27h14.66l-7.24-20.88-7.41,20.88Z"/><path class="q" d="M1148.76,415.89h23.97l.23,7.2h-1.01c-.5-2.26-1.13-3.74-1.89-4.42-.77-.68-2.38-1.02-4.83-1.02h-2.36v21.69c0,1.63,.26,2.65,.77,3.04,.51,.39,1.63,.65,3.35,.77v.79h-12.36v-.79c1.79-.14,2.91-.43,3.35-.89,.44-.45,.66-1.59,.66-3.42v-21.2h-2.38c-2.35,0-3.94,.34-4.79,1.01-.85,.68-1.49,2.15-1.91,4.43h-1.04l.25-7.2Z"/><path class="s" d="M1084.81,362.74c-9.86-3.94-16.62-6.76-19.43-14.64-2.82-7.89,3.38-19.71,14.08-18.02,0,0-.42-10.99,12.18-11.13,12.6-.14,18.24,11.13,27.25,11.13s11.83-2.25,16.9,4.51c0,0,7.88,.32,7.04,12.27s-3.1,24.06-3.1,24.06l-37.74,5.91-17.18-14.08Z"/><path class="t" d="M1082,348.19s-4.62,15.1-5.13,27.07c-.51,11.98,0,27.19,0,27.19l71.59,5.07-4.39-30.42s5.53-10.53-2.65-13.8c-2.82-1.13-4.51,3.94-7.89,1.69-3.38-2.25,4.51-16.33-2.25-18.02-6.76-1.69-19.97,14.92-31.11,13.65-11.14-1.26-18.18-12.43-18.18-12.43Z"/><path class="t" d="M1107.34,371.18h-1.69c0-2.02-1.64-3.66-3.66-3.66s-3.66,1.64-3.66,3.66h-1.69c0-2.95,2.4-5.35,5.35-5.35s5.35,2.4,5.35,5.35Z"/><polygon class="q" points="1105.37 396.53 1105.37 534.53 1108.98 532.21 1108.98 392.44 1105.37 396.53"/><path class="p" d="M1090.16,395.97l-66.55-23.43c-1.87-.66-3.82,.75-3.79,2.73l1.62,101.24-.28,15.49,.25,13.53c.02,1.18,.77,2.23,1.88,2.63l66.87,24.06v-136.24Z"/><path class="q" d="M1083.75,397.96l-54.65-20.04c-2.8-1.03-5.72,1.17-5.67,4.25l1.42,92.23-.25,14.5,.2,11.44c.03,1.84,1.15,3.47,2.81,4.09l53.29,19.97c2.77,1.04,5.7-1.1,5.7-4.17v-118.09c0-1.88-1.14-3.56-2.84-4.18Z"/><path class="s" d="M1021.17,492s-13.52-13.52-12.95-34.36c.56-20.84,7.6-26.75,17.18-31.82,9.58-5.07,29.85-15.21,29.85-15.21l.62,4.12c.66,4.38-1.21,8.75-4.82,11.31l-5.3,3.75,27.53-5.1v4.53c0,2.65-1.54,5.06-3.94,6.17h0l5.63,.56-.11,.54c-1.3,6.19-6.1,11.04-12.28,12.42h0c3.38,2.54,3.52,7.65,.16,10.21-.83,.63-1.81,1.19-2.98,1.62-6.2,2.25-38.3,15.77-38.3,15.77l-.28,15.49Z"/><polygon class="q" points="1090.16 395.97 1092.98 395.97 1093.12 534.53 1090.16 532.21 1090.16 395.97"/><path class="p" d="M1108.98,532.21l68.25-23.5c1.15-.4,1.92-1.48,1.92-2.69v-130.86c0-1.95-1.92-3.32-3.77-2.69l-65.51,22.37-.89,137.37Z"/><path class="q" d="M1111.33,526.86l63.69-22.01c1.07-.37,1.79-1.38,1.79-2.52v-122.57c0-1.83-1.79-3.11-3.51-2.52l-61.13,20.95-.83,128.67Z"/><path class="s" d="M1185.35,440.46l-2.25-23.09-3.94,1.69v16.7l-32.67-19.51-1.41,4.59c-1.45,4.72-.56,9.86,2.4,13.82l.13,.18-23.23-3.83,.34,4.9c.2,2.85,1.81,5.41,4.3,6.82h0l-1.65,1.05c-2.62,1.67-3.64,4.98-2.42,7.84h0c.79,1.85,2.41,3.21,4.37,3.67l6.46,1.52-.19,3.08c-.19,3.2,1.7,6.16,4.69,7.33l38.87,15.23v17s10.14-12.23,12.39-29.13c2.25-16.9-6.2-29.85-6.2-29.85Z"/><circle class="q" cx="1082" cy="370.9" r="17.18"/><circle class="q" cx="1122.55" cy="370.9" r="17.18"/><rect class="s" x="1116.07" y="357.1" width="16.33" height="7.32" rx="3.66" ry="3.66" transform="translate(254.52 -437.77) rotate(24.77)"/><rect class="s" x="1076.08" y="354.29" width="16.33" height="7.32" rx="3.66" ry="3.66"/><g><circle class="p" cx="1117.76" cy="371.18" r="7.04"/><path class="t" d="M1117.76,364.14c-3.89,0-7.04,3.15-7.04,7.04,0,1.59,.53,3.05,1.42,4.23,.14-2.67,2.35-4.79,5.06-4.79s5.07,2.27,5.07,5.07c0,.33-.03,.66-.1,.98,1.6-1.29,2.63-3.27,2.63-5.48,0-3.89-3.15-7.04-7.04-7.04Z"/></g><g><circle class="p" cx="1084.81" cy="369.78" r="7.04"/><path class="t" d="M1084.81,362.74c-3.89,0-7.04,3.15-7.04,7.04,0,1.59,.53,3.05,1.42,4.23,.14-2.67,2.35-4.79,5.06-4.79s5.07,2.27,5.07,5.07c0,.33-.03,.66-.1,.98,1.6-1.29,2.63-3.27,2.63-5.48,0-3.89-3.15-7.04-7.04-7.04Z"/></g><path class="l" d="M1025.13,373.08l3.64-.77,3.38,1.13v-2.25l5.42,2.25v-2.79s6.78-1.13,11.66,1.4,13.33,8.72,22.91,12.1c9.58,3.38,15.77,5.07,15.77,5.07v-26.69s16.33,12.61,19.15,23.88c0,0,6.76-1.69,19.71-4.51,12.95-2.82,23.09-6.76,28.16-9.58s9.01-5.63,9.01-5.63v3.04l2.82-1.91v4.52l2.1-1.14,6.35,1.69-65.34,21.97s-3.38,0-4.51,1.69c0,0-8.45-1.69-12.39-.56h-2.82l-65.03-22.89Z"/><line class="e" x1="1069.32" y1="435.39" x2="1037.76" y2="439"/><line class="e" x1="1062.56" y1="448.91" x2="1031.94" y2="455.35"/><line class="e" x1="1147.61" y1="434.83" x2="1176.81" y2="444.85"/><line class="e" x1="1129.03" y1="442.72" x2="1176.81" y2="457.84"/><line class="e" x1="1135.79" y1="456.8" x2="1175.21" y2="467.43"/><path class="p" d="M1105.37,534.53s-5.92,3.38-12.25,0l-.14-138.56s5.07-2.82,12.39,.56v138Z"/></g><g><path class="k" d="M980.81,220.96s2.35-6.65,.78-10.95l-62.34,.73s-.25,6.7,1.71,9.83l59.85,.39Z"/><path class="o" d="M998.98,169.9c-6.7-11.59-18.78-19.04-32.15-19.83l-7.77-.46v-2.59h-15.65v2.74h-10.99c-3.97,0-7.91,.63-11.67,1.87l-21.7,7.13,2.35,24.64,17.6-2.74c-.37,6.29-.65,13.63-.85,19.62-.25,7.56,1.74,15.03,5.71,21.48l2.15,3.49h48.93l1.96-2.25c3.79-4.36,5.98-9.89,6.19-15.67l.46-12.58,5.09,7.82,21.32-13.71-10.97-18.97Z"/><path class="n" d="M926.01,225.27l-5.05-4.69,7.43-39.12h44.38l8.04,39.51-5.87,4.3h0c8.9,10.54,14.25,23.61,15.3,37.37l.77,55.8-80.25,40.66,1.05-98.44c1.12-12.88,6.02-25.14,14.08-35.25l.12-.15Z"/><path class="n" d="M968.9,138.65l-2.75-18.16c-.52-3.44-2.77-6.38-5.96-7.79h0c-1.86-.82-3.93-1.07-5.93-.7l-1.23,.22h-.02c-5.14-1.45-10.66,.23-14.12,4.3h0c-1.75,2.05-2.85,4.56-3.18,7.23l-1.91,15.58c-.26,2.15,1.23,4.12,3.38,4.43l11.56,1.71,10.27-.81,6.83-1.51c2.05-.45,3.4-2.42,3.08-4.49Z"/><path class="m" d="M923.89,110.85c.3,2.72,3.32,4.42,7.14,3.19,3.81-1.23,4.21,1.9,4.21,1.9l-9.58,4.11-11.73,2.35-33.64,41.07,18.78-4.69,2.35,24.64-26.87,4.6c-9.67,1.66-19.19-3.63-22.89-12.72h0c-3.32-8.16-1.18-17.52,5.36-23.42l44.85-40.44s5.8-9.78,11.28-15.26,13.98-10.94,13.98-10.94c0,0,.88,1.55-1.47,3.9l3.66-3.52s.93,1.54,0,2.92l-.93,1.38,3.52-3.52,.15,.59c.31,1.21,.11,2.52-.65,3.5-.06,.08-.13,.16-.2,.24l-3.02,3.35-2.15,3.66,7.28-9.14s1.37,.95,.76,2.5-4.04,6.2-4.04,6.2c0,0-4,6.31-4.79,8.65-.78,2.35-1.56,3.13-1.37,4.89Z"/><g><path class="n" d="M939.83,94.42c0-5.05-4.25-9.1-9.36-8.78-4.51,.28-8.12,4.04-8.24,8.55-.06,2.2,.7,4.23,1.98,5.8,1.84,2.25,2.9,5.02,2.9,7.93h7.82c0-2.9,1.06-5.68,2.9-7.92,1.25-1.52,1.99-3.46,1.99-5.58Z"/><path class="o" d="M927.12,107.92v3.13c0,2.16,1.75,3.91,3.91,3.91s3.91-1.75,3.91-3.91v-3.13h-7.82Z"/><path class="u" d="M932.56,107.92h-.39v-4.11h-1.73v4.11h-.39v-4.11h-.73c-.62,0-1.12-.5-1.12-1.12v-.89c0-.62,.5-1.12,1.12-1.12s1.12,.5,1.12,1.12v1.62h1.73v-1.62c0-.62,.5-1.12,1.12-1.12h.06c.62,0,1.12,.5,1.12,1.12v.89c0,.62-.5,1.12-1.12,1.12h-.79v4.11Zm0-4.5h.79c.4,0,.73-.33,.73-.73v-.89c0-.4-.33-.73-.73-.73h-.06c-.4,0-.73,.33-.73,.73v1.62Zm-3.25-2.35c-.4,0-.73,.33-.73,.73v.89c0,.4,.33,.73,.73,.73h.73v-1.62c0-.4-.33-.73-.73-.73Z"/></g><path class="m" d="M962.81,129.04c-.78-1.17-1.96,.46-1.96,.46v-1.64l-1.58-1.45c-2.05-1.88-3.67-4.18-4.75-6.74l-1.49-3.54-.41,1.05c-1.49,3.84-4.42,6.95-8.16,8.68l-3.48,1.61v2.39c-.31-1.52-2.42-1.61-2.42,1.13s2.74,3.53,2.74,3.53v.77c0,1.52,.52,3,1.47,4.18l.64,.8v6.76h15.65l-.16-6.26c1.25-1.25,1.96-2.95,1.96-4.72v-1.54c2.74-.39,2.74-4.3,1.96-5.48Z"/><path class="m" d="M1078.65,140.25l-.45,3.47v-4.89c-1,.75-1.62,1.88-1.73,3.12l-.23,2.74-2.35,4.69,1.17-3.31v-5.29c-1.03,1.03-1.82,2.28-2.31,3.65l-1.21,3.39-11.34,5.09,3.91-3.51c1.66-1.49,2.52-3.66,2.35-5.88l-12.39,6.2c-4.68,2.34-8.57,5.99-11.22,10.5l-25.29,43.16-7.63-14.49-21.32,13.71,9.9,15.75c3.38,5.38,9.03,8.92,15.34,9.62h0c8.78,.98,17.22-3.69,21.07-11.65l21.36-44.22,16.82-12.52,5.87-7.43,2.35-15.65c-1.47,.73-2.47,2.15-2.68,3.78Z"/><rect class="n" x="929.53" y="149.77" width="4.69" height="28.16"/><polygon class="n" points="972.18 177.94 967.48 177.94 967.48 149.77 972.18 150.55 972.18 177.94"/><path class="u" d="M933.44,184.39h-3.13v-1.5c0-.62-.23-1.22-.64-1.69-.47-.54-.73-1.23-.73-1.95v-3.09c0-.42,.34-.76,.76-.76h4.35c.42,0,.76,.34,.76,.76v3.09c0,.72-.26,1.41-.73,1.95-.41,.47-.64,1.07-.64,1.69v1.5Zm-2.74-.39h2.35v-1.11c0-.72,.26-1.41,.73-1.95,.41-.47,.64-1.07,.64-1.69v-3.09c0-.2-.17-.37-.37-.37h-4.35c-.2,0-.37,.17-.37,.37v3.09c0,.62,.23,1.22,.64,1.69,.47,.54,.73,1.23,.73,1.95v1.11Z"/><circle class="l" cx="931.88" cy="184.59" r="1.56"/><path class="u" d="M971.4,184.39h-3.13v-1.5c0-.62-.23-1.22-.64-1.69-.47-.54-.73-1.23-.73-1.95v-3.09c0-.42,.34-.76,.76-.76h4.35c.42,0,.76,.34,.76,.76v3.09c0,.72-.26,1.41-.73,1.95-.41,.47-.64,1.07-.64,1.69v1.5Zm-2.74-.39h2.35v-1.11c0-.72,.26-1.41,.73-1.95,.41-.47,.64-1.07,.64-1.69v-3.09c0-.2-.17-.37-.37-.37h-4.35c-.2,0-.37,.17-.37,.37v3.09c0,.62,.23,1.22,.64,1.69,.47,.54,.73,1.23,.73,1.95v1.11Z"/><circle class="l" cx="969.83" cy="184.59" r="1.56"/><path class="k" d="M944.43,141.17s3.13,3.74,6.65,3.74,7.82-4.13,7.82-4.13l.08,3.31s-3.54,3.17-8.07,2.08-6.48-5-6.48-5Z"/><path class="k" d="M983.54,194.76v-15.51s4.69,17.69,12.51,18.56l-7.43,4.78-5.09-7.82Z"/><polygon class="k" points="919 180.67 919 177.24 901.4 183.41 919 180.67"/><line class="i" x1="1017.58" y1="203.36" x2="1014.84" y2="207.27"/><line class="i" x1="951.71" y1="346.14" x2="951.71" y2="267.16"/><g><path class="n" d="M1078.21,139.99s1.86,1.01,1.02-1.92c-.58-2.03-1.84-3.9-3.72-5.23-4.06-2.87-9.75-2.15-12.97,1.64-1.57,1.85-2.32,4.11-2.31,6.34,.02,3.2-.98,6.31-2.99,8.8h0l6.71,5.41h0c2-2.48,4.83-4.14,7.95-4.79,1.7-.35,3.31-1.16,4.63-2.4,.33-.31,1.39-7.49,1.68-7.85Z"/><path class="o" d="M1057.23,149.63l-2.16,2.68c-1.49,1.85-1.2,4.56,.65,6.06s4.56,1.2,6.06-.65l2.16-2.68-6.71-5.41Z"/><path class="u" d="M1061.9,153.39l-.34-.27,2.84-3.52-1.49-1.2-2.84,3.52-.34-.27,2.84-3.52-.63-.51c-.53-.43-.61-1.21-.19-1.74l.61-.76c.43-.53,1.21-.61,1.74-.19s.61,1.21,.19,1.74l-1.12,1.39,1.49,1.2,1.12-1.39c.43-.53,1.21-.61,1.74-.19l.05,.04c.53,.43,.61,1.21,.19,1.74l-.61,.76c-.43,.53-1.21,.61-1.74,.19l-.68-.55-2.84,3.52Zm3.11-3.86l.68,.55c.35,.28,.85,.22,1.13-.12l.61-.76c.28-.35,.22-.85-.12-1.13l-.05-.04c-.35-.28-.85-.22-1.13,.12l-1.12,1.39Zm-1.16-4.26c-.35-.28-.85-.22-1.13,.12l-.61,.76c-.28,.35-.22,.85,.12,1.13l.63,.51,1.12-1.39c.28-.35,.22-.85-.12-1.13Z"/></g><path class="n" d="M937.58,196.13h25.68v1.05c0,7.09-5.75,12.84-12.84,12.84h0c-7.09,0-12.84-5.75-12.84-12.84v-1.05Z"/><path class="m" d="M920.82,89.67l6.3-4.42,.17,1.32c.07,.57-.09,1.15-.45,1.6l-5.3,6.65"/></g><g><path class="p" d="M693.32,509.49l-14.5-25.27-1.13,5.78c-1.41,7.23-.2,14.72,3.41,21.14l10.49,18.65,6.87,23.84,4.11-20.48-9.26-23.65Z"/><g><g><path class="s" d="M557.33,523.29c-4-1.33-13.01-3.12-16.98-4.44v-14.3c3.96-1.32,12.97-3.17,16.98-4.51v23.25Z"/><path class="s" d="M540.62,518.81c-2.15,0-4.73,.1-6.85-.03-1.9-.12-3.19-1.62-3.22-3.53-.03-2.39-.03-4.79,0-7.18,.03-1.98,1.43-3.48,3.41-3.56,1.91-.08,3.83-.02,5.74-.03,.14,0,.74,0,.91,0v14.33Z"/><path class="s" d="M561.75,511.69c0,3.92,0,7.84,0,11.76,0,1.22-.62,2.12-1.66,2.45-1.44,.46-2.92-.49-3.1-2-.02-.17-.02-.34-.02-.52,0-7.82,0-15.63,0-23.45,0-1.23,.57-2.13,1.57-2.48,1.49-.53,3.01,.42,3.2,1.99,.02,.2,.02,.4,.02,.6,0,3.88,0,7.76,0,11.64Z"/><path class="s" d="M542.03,523.63c.51,0,.97-.02,1.42,0,.74,.04,1.26-.23,1.51-1.01l2.27,.75c-.31,1.06-.94,1.8-1.9,2.29-.96,.49-2,.32-3.07,.37,.04,.49,.07,.96,.11,1.42,.07,.79,.22,1.59,.2,2.38-.04,1.38-.79,2.38-2,2.99-1.18,.59-2.38,.51-3.49-.2-.97-.62-1.51-1.52-1.62-2.69-.29-2.83-.61-5.65-.91-8.48,0-.05,0-.11,0-.22h.42c1.84,0,3.67-.02,5.51,.01,.41,0,.82,.17,1.22,.3,.09,.03,.16,.22,.17,.35,.07,.58,.12,1.16,.17,1.74Z"/><path class="s" d="M565.43,506.88c-.61,0-1.06-.33-1.22-.81-.16-.48,0-1.01,.39-1.32,.08-.06,.18-.12,.27-.17,1.58-.78,3.16-1.56,4.75-2.33,.55-.27,1.09-.16,1.46,.24,.35,.38,.44,.92,.17,1.36-.13,.21-.34,.42-.56,.54-1.59,.8-3.18,1.58-4.78,2.36-.17,.08-.37,.12-.46,.15Z"/><path class="s" d="M565.45,514.06c.1,.03,.31,.07,.49,.16,1.57,.77,3.15,1.54,4.71,2.32,.53,.26,.8,.74,.73,1.25-.06,.5-.43,.92-.94,1.01-.2,.04-.45,.05-.62-.04-1.72-.82-3.44-1.66-5.14-2.52-.48-.24-.65-.81-.5-1.31,.15-.52,.61-.87,1.27-.87Z"/><path class="s" d="M567.75,511.67c-.77,0-1.54,0-2.31,0-.77,0-1.3-.51-1.3-1.21,0-.69,.53-1.18,1.28-1.18,1.57,0,3.13,0,4.7,0,.74,0,1.27,.5,1.28,1.19,0,.68-.52,1.2-1.26,1.2-.8,0-1.59,0-2.39,0Z"/></g><g><rect class="s" x="722.2" y="515.72" width="11.17" height="17.42" rx="5.52" ry="5.52"/><path class="s" d="M733.37,515.72l5.36-9.83v-7.15s4.91-1.79,7.15,3.57c2.23,5.36-.89,8.94-.89,8.94h11.1c1.02,0,1.85,.83,1.85,1.85v1.43c0,1.02-.83,1.85-1.85,1.85h0l1.83,1.34c.58,.42,.92,1.09,.92,1.81h0c0,1.08-.77,2.01-1.84,2.2l-1.29,.24h0c1.17,1.3,.93,3.34-.51,4.34l-.83,.58h0c0,2.96-2.4,5.36-5.36,5.36h-11.63c-1.47,0-2.89-.52-4.01-1.47h0v-15.06Z"/></g><g><path class="s" d="M818.17,497.4h-27.8c-2.56,0-4.64,2.08-4.64,4.64v18.86c0,2.56,2.08,4.64,4.64,4.64h19.49l7.15,7.15v-7.15h1.16c2.56,0,4.64-2.08,4.64-4.64v-18.86c0-2.56-2.08-4.64-4.64-4.64Z"/><g><circle class="s" cx="794.67" cy="510.8" r="2.46"/><circle class="s" cx="813.88" cy="510.8" r="2.46"/><circle class="s" cx="804.27" cy="510.8" r="2.46"/></g></g><path class="p" d="M682.19,645.96h33.95c-.03-1.99-.24-3.97-.63-5.93l-.69-3.46,7.02-70.15c.23-2.33,.03-4.68-.61-6.94l-21.16-75.27-4.02,7.23c-3.05,5.49-4.02,11.89-2.75,18.04,1.76,8.54,4.17,20.93,4.98,28.79,1.34,12.96,.67,35.07-14.7,38.29-15.37,3.21-22.16-21.53-27.97-30.02-5.81-8.49-16.98-4.47-16.98-4.47l14.07,27.92,5.13,21.68c1.92,8.12,5.35,15.8,10.11,22.65l15.14,21.8-.91,9.83Z"/><g><circle class="s" cx="667.44" cy="531.8" r="4.47"/><circle class="s" cx="667.24" cy="500.97" r="2.23"/><path class="s" d="M688.48,531.74l-7.63-7.63v-9.73c0-7.4-6-13.4-13.4-13.4h0c-7.4,0-13.4,6-13.4,13.4v9.79l-7.63,7.63h34.44v-.06h7.63Z"/><line class="s" x1="654.06" y1="523.98" x2="680.87" y2="523.98"/></g><g><path class="s" d="M865.7,532.22c-2.4,0-4.8,0-7.19,0-1.45,0-2.49-.72-2.88-1.95-.07-.23-.13-.46-.13-.7,.02-2.25-.14-4.5,0-6.76,.21-3.6,1.74-6.4,4.92-8.21,1.32-.75,2.75-1.12,4.25-1.21,1.69-.11,3.4-.2,5.03,.27,3.83,1.1,6.13,3.71,7,7.58,.14,.62,.17,1.25,.16,1.89,0,2.09,0,4.19,0,6.28,0,.48-.13,.93-.33,1.37-.32,.69-.85,1.08-1.58,1.23-1.33,.27-2.67,.24-4.02,.25-1.74,.01-3.48,0-5.22,0v-.04Z"/><path class="s" d="M866.39,510.7c-3.63,.17-6.9-2.81-7.08-6.47-.19-3.81,2.71-7.09,6.43-7.26,3.9-.18,7.16,2.71,7.32,6.49,.17,3.9-2.74,7.06-6.67,7.24Z"/><path class="s" d="M845.93,522.87c0-1.37,0-2.74,0-4.11,.01-2.93,2.28-5.28,5.22-5.35,1.13-.03,2.27-.1,3.38,.17,.66,.16,1.25,.46,1.8,.86,.16,.12,.21,.18,.05,.35-2.22,2.27-3.11,5.06-3.25,8.16-.1,2.12,0,4.24,.01,6.36,0,.32-.12,.38-.38,.38-1.52,0-3.03,.03-4.55-.02-1.37-.04-2.28-1.04-2.28-2.42,0-1.46,0-2.92,0-4.39Z"/><path class="s" d="M886.43,522.87c0,1.42,0,2.85,0,4.27,0,1.48-.97,2.51-2.44,2.54-1.44,.03-2.87,0-4.31,.02-.34,0-.46-.09-.46-.47,.01-2.04,.09-4.08,.02-6.13-.1-2.63-.67-5.11-2.33-7.23-.27-.35-.56-.71-.87-1.02-.22-.22-.15-.32,.05-.46,.7-.5,1.46-.85,2.32-.92,1.34-.12,2.69-.22,4.01,.1,2.35,.58,3.99,2.69,4.01,5.1,.01,1.4,0,2.79,0,4.19Z"/><path class="s" d="M852.26,502.01c2.4,0,4.35,1.93,4.35,4.33,0,2.41-1.98,4.38-4.37,4.36-2.4-.02-4.34-1.97-4.33-4.36,0-2.39,1.95-4.33,4.35-4.33Z"/><path class="s" d="M880.08,502.01c2.4-.01,4.35,1.92,4.37,4.31,.01,2.41-1.94,4.38-4.35,4.38-2.39,0-4.35-1.96-4.35-4.34,0-2.4,1.93-4.34,4.33-4.35Z"/></g><g><path class="s" d="M609.39,501.34h0c-4.36-4.36-11.43-4.36-15.8,0h0c-4.36,4.36-4.36,11.43,0,15.8h0l15.8,15.8,15.8-15.8h0c4.36-4.36,4.36-11.43,0-15.8h0c-4.36-4.36-11.43-4.36-15.8,0h0Z"/><circle class="s" cx="620.56" cy="504.33" r="2.23"/></g></g></g><path class="r" d="M1011.56,473.35l-20.55-6.26s17.28-32.84,4.69-44.49-73.28-13.33-84.94-63.49l80.25-40.57s-20.72,50.38,4.69,70.9,44.32,31.33,15.86,83.92Z"/><g><g><g><g><path class="e" d="M1174.2,504.77s.03,0,.09,0c5.08,.24,8.49-5.13,6.19-9.66l-6.28-12.32"/><rect class="t" x="1141.91" y="460.71" width="220.94" height="147.55" rx="18.57" ry="18.57"/><rect class="t" x="1149.98" y="469.78" width="204.78" height="129.52" rx="11.9" ry="11.9"/><g><rect class="t" x="1168.6" y="486.96" width="115.94" height="97" rx="5.32" ry="5.32"/><g><circle class="q" cx="1176.8" cy="499.4" r="2.26"/><circle class="t" cx="1191.22" cy="499.4" r="2.26"/><circle class="p" cx="1184.01" cy="499.4" r="2.26"/></g><rect class="t" x="1176.8" y="512.41" width="46.66" height="5.94" rx="2.97" ry="2.97"/><rect class="t" x="1176.8" y="522.3" width="46.66" height="5.94" rx="2.97" ry="2.97"/><rect class="t" x="1176.8" y="532.48" width="46.66" height="5.94" rx="2.97" ry="2.97"/><rect class="p" x="1176.8" y="553.69" width="46.66" height="5.94" rx="2.97" ry="2.97"/><rect class="p" x="1176.8" y="565.29" width="46.66" height="5.94" rx="2.97" ry="2.97"/><rect class="p" x="1234.49" y="508.45" width="42.7" height="54.86" rx="5.27" ry="5.27"/><rect class="q" x="1240.14" y="516.37" width="31.39" height="3.96" rx="1.51" ry="1.51"/><rect class="q" x="1240.14" y="523.44" width="31.39" height="3.96" rx="1.51" ry="1.51"/><rect class="q" x="1240.14" y="531.35" width="31.39" height="3.96" rx="1.51" ry="1.51"/><rect class="q" x="1240.14" y="544.64" width="17.53" height="3.96" rx="1.51" ry="1.51"/></g><polygon class="t" points="1231.07 608.26 1220.24 643.69 1289.89 643.69 1279.76 608.26 1231.07 608.26"/><path class="t" d="M1195.55,634.09h112.15c5.6,0,10.15,4.55,10.15,10.15v3.14h-132.45v-3.14c0-5.6,4.55-10.15,10.15-10.15Z"/><g><rect class="r" x="1242.8" y="419.73" width="94.32" height="188.5" rx="9.79" ry="9.79"/><g><rect class="o" x="1313.27" y="458.97" width="13.13" height="5.41" rx="2.71" ry="2.71"/><circle class="l" cx="1316.29" cy="461.68" r="3.98"/></g><rect class="u" x="1289.65" y="445.14" width="42.26" height="3.06" rx="1.53" ry="1.53"/><rect class="i" x="1248.31" y="475.46" width="83.3" height="14.7" rx="4.18" ry="4.18"/><rect class="k" x="1248.31" y="475.46" width="41.65" height="14.7" rx="4.18" ry="4.18"/><g><line class="g" x1="1264.54" y1="479.14" x2="1272.5" y2="479.14"/><line class="g" x1="1264.54" y1="481.48" x2="1272.5" y2="481.48"/><line class="g" x1="1264.54" y1="483.83" x2="1272.5" y2="483.83"/><line class="g" x1="1264.54" y1="486.18" x2="1272.5" y2="486.18"/></g><g><line class="f" x1="1306.19" y1="479.14" x2="1314.15" y2="479.14"/><line class="f" x1="1306.19" y1="481.48" x2="1308.95" y2="481.48"/><line class="f" x1="1306.19" y1="483.83" x2="1314.15" y2="483.83"/><line class="f" x1="1306.19" y1="486.18" x2="1311.4" y2="486.18"/></g><rect class="i" x="1279.24" y="498.43" width="52.67" height="20.82" rx="5.92" ry="5.92"/><rect class="k" x="1279.24" y="498.43" width="18.07" height="20.82" rx="5.14" ry="5.14"/><path class="x" d="M1304.76,508.64v-.78h1.35v3.56h-.87v-2.79h-.48Z"/><path class="x" d="M1322.12,510.64c.32-.26,.57-.48,.75-.65,.18-.17,.34-.35,.46-.53s.19-.37,.19-.54c0-.13-.03-.24-.09-.31-.06-.07-.15-.11-.28-.11s-.22,.05-.29,.14-.11,.22-.11,.39h-.8c0-.28,.07-.51,.18-.69,.11-.19,.26-.32,.45-.41s.39-.13,.61-.13c.39,0,.68,.1,.88,.3,.2,.2,.29,.46,.29,.78,0,.35-.12,.67-.36,.97-.24,.3-.54,.59-.91,.87h1.32v.68h-2.45v-.62c.11-.09,.16-.13,.15-.12Z"/><line class="i" x1="1314.15" y1="498.43" x2="1314.15" y2="519.25"/><g><circle class="n" cx="1256.73" cy="541.1" r="3.67"/><line class="h" x1="1254.89" y1="541.1" x2="1258.57" y2="541.1"/></g><g><circle class="o" cx="1321.65" cy="541" r="3.67"/><g><line class="h" x1="1319.82" y1="541.1" x2="1323.49" y2="541.1"/><line class="h" x1="1321.65" y1="539.26" x2="1321.65" y2="542.94"/></g></g><g><circle class="n" cx="1256.73" cy="564.37" r="3.67"/><line class="h" x1="1254.89" y1="564.37" x2="1258.57" y2="564.37"/></g><g><circle class="o" cx="1321.65" cy="564.27" r="3.67"/><g><line class="h" x1="1319.82" y1="564.37" x2="1323.49" y2="564.37"/><line class="h" x1="1321.65" y1="562.53" x2="1321.65" y2="566.21"/></g></g><g><circle class="n" cx="1256.73" cy="587.65" r="3.67"/><line class="h" x1="1254.89" y1="587.65" x2="1258.57" y2="587.65"/></g><g><circle class="o" cx="1321.65" cy="587.54" r="3.67"/><g><line class="h" x1="1319.82" y1="587.65" x2="1323.49" y2="587.65"/><line class="h" x1="1321.65" y1="585.81" x2="1321.65" y2="589.48"/></g></g><g><path class="v" d="M1285.01,510.67h-1.28l-.21,.6h-.87l1.24-3.43h.97l1.24,3.43h-.88l-.21-.6Zm-.21-.64l-.43-1.25-.42,1.25h.85Z"/><path class="v" d="M1289.17,508.55v2.72h-.83v-.37c-.09,.12-.2,.22-.35,.29-.14,.07-.3,.11-.48,.11-.21,0-.39-.05-.55-.14s-.28-.23-.37-.4c-.09-.18-.13-.38-.13-.62v-1.59h.83v1.48c0,.18,.05,.32,.14,.42s.22,.15,.38,.15,.29-.05,.38-.15,.14-.24,.14-.42v-1.48h.83Z"/><path class="v" d="M1291.28,510.56v.71h-.42c-.3,0-.54-.07-.71-.22-.17-.15-.25-.39-.25-.72v-1.08h-.33v-.69h.33v-.66h.83v.66h.55v.69h-.55v1.09c0,.08,.02,.14,.06,.18s.1,.05,.2,.05h.3Z"/><path class="v" d="M1292.27,511.14c-.21-.11-.38-.28-.5-.49-.12-.21-.18-.46-.18-.74s.06-.53,.19-.74c.12-.21,.29-.38,.51-.49,.21-.11,.46-.17,.72-.17s.51,.06,.72,.17,.38,.28,.51,.49c.12,.21,.19,.46,.19,.74s-.06,.53-.19,.74c-.12,.21-.3,.38-.51,.49-.21,.11-.46,.17-.72,.17s-.51-.06-.72-.17Zm1.13-.73c.11-.12,.17-.28,.17-.5s-.05-.39-.16-.5c-.11-.12-.24-.18-.4-.18s-.3,.06-.4,.17c-.11,.12-.16,.28-.16,.51s.05,.39,.16,.5,.24,.18,.4,.18,.29-.06,.41-.18Z"/></g></g></g><rect class="t" x="1267.93" y="535.23" width="42" height="11" rx="5.5" ry="5.5"/><rect class="t" x="1267.93" y="558.23" width="42" height="11" rx="5.5" ry="5.5"/><rect class="t" x="1267.93" y="581.23" width="42" height="11" rx="5.5" ry="5.5"/></g><rect class="t" x="1248.1" y="505.94" width="22" height="6" rx="3" ry="3"/><rect class="t" x="1248.6" y="458.44" width="53" height="6" rx="3" ry="3"/></g><rect class="t" x="1250.6" y="430.44" width="32" height="6" rx="3" ry="3"/><rect class="t" x="1294.6" y="430.44" width="32" height="6" rx="3" ry="3"/></g><g><path class="k" d="M815.87,563.89s-11.32-11.95-17.92-30.49l39.2-14.72,42.22,8.75-14.46,32.07-49.04,4.4Z"/><path class="k" d="M1069.26,616.08h0c-6.64,7.81-8.75,18.52-5.58,28.27l1.18,3.61h92.43v-13.11l-55.33-18.77h-32.7Z"/><path class="k" d="M913.33,621.73h0c-6.66,5.18-8.95,14.21-5.57,21.94l1.87,4.28h90.47v-10.52l-57.85-13.81-28.92-1.89Z"/><path class="n" d="M900.75,647.95h-116.24c-6.11,0-11.09-4.97-11.09-11.09,0-4.88,3.27-9.25,7.94-10.63l108.17-33.19c1.82-.56,3.76,.47,4.32,2.29,.56,1.83-.47,3.76-2.29,4.32l-108.2,33.2c-1.79,.53-3.02,2.17-3.02,4.01,0,2.3,1.87,4.17,4.17,4.17h116.24c1.91,0,3.46,1.55,3.46,3.46s-1.55,3.46-3.46,3.46Z"/><path class="m" d="M862.4,541.25s-21.38,19.49-46.53,22.64l7.36,6.77c13.76,12.65,32.58,18.25,51.02,15.18,29.67-4.93,74.75-13.22,101.32-21.95,0,0-16.35,7.55-52.82,49.28h35.59l52.44-34.19,58.47,37.1h32.7l-67.28-67.28-.06-1.52c-.67-16.01-13.86-28.64-29.88-28.61l-81.97,.15-60.36,22.43Z"/><path class="o" d="M888.81,421.79l-9.08-.19c-31.46-.66-60.62,16.42-75.43,44.18h0c-8.6,16.12-11.68,34.62-8.76,52.66l2.42,14.95s26.72,16.03,60.68,11.63l7.62,4.4c12.44,7.19,28.04,5.92,39.15-3.19l4.9-4.02c7.11-5.83,11.6-14.25,12.47-23.4h0l3.09-.69c17.66-3.96,30.23-19.62,30.28-37.73l.08-30.85-12.7,6.83h-20.75l-.34-4.68c-.65-8.86-5.41-16.9-12.86-21.73h0l-20.75-8.17Z"/><path class="n" d="M919.62,407.33c-5.55,0-10.25,3.6-11.92,8.59-7.78,5.44-18.89,5.87-18.89,5.87-.63,6.92,.63,17.61,10.69,20.75,9.4,2.94,14.41-9.49,15.02-11.14,1.56,.69,3.28,1.08,5.1,1.08,6.95,0,12.58-5.63,12.58-12.58s-5.63-12.58-12.58-12.58Z"/><path class="m" d="M907.67,421.16s-1.39-7.59,2.76-12.28c4.15-4.69,17.36-5.95,18.62-.92,0,0,4.4,0,4.4,1.89s-1.26,1.87-1.26,1.87c0,0,3.14,.65,3.14,2.53s-5.66,1.89-5.66,1.89c0,0-4.4-7.55-10.06-5.03-3.52,1.57-3.88,4.59-3.64,6.65,.17,1.54-.39,3.08-1.46,4.21h0s.55-5.8-4.08-6.54c-3.39-.54-2.76,5.74-2.76,5.74Z"/><path class="n" d="M969.96,443.79c.36-1.34-.14-2.77-1.26-3.59l-1.93-1.43,.21-.28c1.77-2.36,.74-5.75-2.04-6.73h0c-.68-.24-1.4-.31-2.11-.2l-20.88,3.19c-1.05,.16-2.1,.4-3.12,.71-7.94,2.42-13.88,9.06-15.39,17.22l-.68,3.69h20.75l4.23,2.54c3.14,1.89,7.12,1.68,10.05-.52l2.69-2.02,.19,.06c1.76,.59,3.58-.72,3.58-2.58l1.83,.26c1.5,.21,2.95-.64,3.5-2.05,.55-1.43,.03-3.06-1.25-3.9l-2.83-1.85h1.16c1.54,0,2.88-1.04,3.28-2.52Z"/><path class="i" d="M964.26,453.86l-5.11-3.25c-1.08-.69-1.6-1.99-1.29-3.23h0c.4-1.62,2.06-2.59,3.67-2.15l3.98,1.09-5.91-2.95c-1.62-.81-2.32-2.75-1.58-4.41h0c.69-1.55,2.41-2.35,4.04-1.88l4.91,1.42"/><path class="i" d="M960.49,456.37l-3.13-1.73c-.85-.47-1.3-1.44-1.1-2.39h0c.25-1.2,1.43-1.96,2.63-1.71l.27,.06"/><path class="i" d="M956.87,458.99h0c-1.11-1.09-1.09-2.88,.05-3.94l.44-.41"/><path class="i" d="M942.88,448.2h2.07c3.08,0,5.86-1.82,7.08-4.64h0c.97-2.22,2.92-3.86,5.28-4.43l.72-.17"/><path class="m" d="M968.89,439.8l5.4,13.23c.4,.98,1.35,1.61,2.4,1.61h5.3c1.03,0,1.97-.61,2.38-1.56l5.72-13.24c.59-1.37-.41-2.9-1.91-2.9h-17.37c-1.48,0-2.48,1.5-1.92,2.86Z"/><line class="i" x1="973.65" y1="451.46" x2="969.24" y2="449.05"/><path class="n" d="M952.2,470.58c-1.14-.86-2.51-1.38-3.93-1.5l-9.17-.76-8.01-3.74c-.91-.42-1.95-.48-2.9-.16l-16.03,5.47c-6.5,2.22-11.88,6.91-14.95,13.05l-7.15,14.3h30.37l5.07-13.07c.39-1,1.78-1.04,2.23-.07l2.04,4.37c.65,1.4,2.27,2.06,3.72,1.52,1.41-.53,2.19-2.03,1.83-3.48l-1.25-4.99,3.94,7.44c.94,1.78,3.17,2.44,4.93,1.46,1.44-.8,2.15-2.47,1.73-4.07l-1.8-6.83,4.94,9.47c.75,1.43,2.51,2,3.95,1.28s1.99-2.31,1.43-3.73l-2.75-7.01,5.82,2.15c1.86,.69,3.94,.48,5.63-.58l2.36-1.47-12.05-9.06Z"/><g><path class="i" d="M914.51,431.4c-2.82-1.26-5.09-3.52-6.36-6.33"/><g><path class="i" d="M939.11,468.32l5.08,3.05c.8,.48,1.47,1.14,1.96,1.92l2.4,3.83"/><path class="i" d="M942.88,479.53l-1.34-2.63c-.76-1.48-2.02-2.65-3.56-3.29l-5.16-2.15"/><path class="i" d="M927.16,476.23h.41c2.39,0,4.56,1.35,5.62,3.49l.89,1.79"/></g><path class="i" d="M858.63,545.03l-1.42-1.55c-7.98-8.71-12.41-20.09-12.41-31.91v-36.07"/><line class="i" x1="890.06" y1="515.54" x2="890.06" y2="483.47"/></g><path class="n" d="M945.2,591.59l-13.47-12.11c-6.66-5.99-15.29-9.3-24.24-9.3h-105.45l6,17.54c3.18,9.3,11.92,15.55,21.75,15.55h110.93c1.78,0,3.48-.71,4.74-1.96,2.72-2.72,2.6-7.15-.26-9.72Z"/><path class="n" d="M802.04,570.18l-25.15-76.08h0c7.47,0,14.06,4.89,16.23,12.03l13.69,45.05c1.37,4.5,.81,9.36-1.55,13.43l-3.22,5.57Z"/><path class="n" d="M922.76,613.17l-9.43,8.57,.73,.41c8.65,4.89,19.08,5.43,28.19,1.47h0l16.1-10.45h-35.59Z"/><path class="n" d="M1069.26,616.08l9.46,5.95c4.11,2.58,9.32,2.61,13.46,.07l9.78-6.02h-32.7Z"/><path class="m" d="M932.82,510.26v-14.46h10.06v-3.62h6.68v1.91l7.8-6.28v-2.86h-2.82v-2.18h9.12s3.12-7.28,12.55-7.28,12.91,5.23,12.91,5.23h2.01c0-4.08,3.3-7.38,7.38-7.38h13.06c6.18,0,11.18,5.01,11.18,11.18v25.73h-89.92Z"/><g><circle class="j" cx="1006.7" cy="490.01" r="11"/><path class="j" d="M942.88,495.8s5.66,5.84,16.03,1.44c10.37-4.4,13.61-14.79,19.54-16.51,5.93-1.72,10.66,0,10.66,0"/></g><g><rect class="n" x="920.34" y="510.13" width="113.81" height="8.8" rx="3.69" ry="3.69"/><path class="o" d="M928.68,519.25l90.19,125.65c1.6,2.23,4.18,3.56,6.93,3.56h0l-91.64-126.41c-1.27-1.76-3.32-2.8-5.49-2.8h0Z"/><path class="o" d="M1025.81,519.25l-90.19,125.65c-1.6,2.23-4.18,3.56-6.93,3.56h0l91.64-126.41c1.27-1.76,3.32-2.8,5.49-2.8h0Z"/></g></g></g></g></g><polygon class="r" points="910.85 350.38 990.85 306.8 990.85 283.25 911.09 327.7 910.85 350.38"/><polygon class="r" points="911.33 305.52 990.33 269.47 990.33 273.92 911.33 319.7 911.33 305.52"/><polygon class="r" points="911.61 279.76 974.03 267.36 911.61 292.24 911.61 279.76"/></g></g></svg>