<?xml version="1.0" encoding="UTF-8"?><svg xmlns="http://www.w3.org/2000/svg" xmlns:xlink="http://www.w3.org/1999/xlink" viewBox="0 0 1366 543"><defs><style>.d,.e{fill:none;}.e,.f,.g,.h,.i,.j,.k,.l,.m{stroke:#6975cf;}.e,.j,.k,.l,.m{stroke-linejoin:round;}.n{fill:#fdf3ec;}.f,.g,.h,.i{stroke-miterlimit:10;}.f,.j{fill:#6975cf;}.g{fill:#fff;}.h,.l{fill:#ee8c3d;}.i,.m{fill:#edc883;}.o{clip-path:url(#c);}.k{fill:#8fbceb;}</style><clipPath id="c"><rect class="d" width="1366" height="543"/></clipPath></defs><g id="a"/><g id="b"><g class="o"><g><rect class="n" width="1366" height="543"/><path class="f" d="M380.35,475.8c6.69-.32,11.09-1.56,13.21-3.74,2.11-2.18,3.17-6.77,3.17-13.78v-60.8h-16.19v-6.34h16.19c0-9.97,1.36-18.4,4.08-25.28,5.18-13.19,14.7-19.79,28.55-19.79,5.56,0,10.54,1.11,14.94,3.31,4.39,2.21,6.59,5.18,6.59,8.9,0,2.08-.75,3.95-2.26,5.59-1.51,1.64-3.33,2.46-5.46,2.46-1.82,0-3.39-.55-4.71-1.66-1.32-1.1-2.89-3.05-4.71-5.82l-1.6-2.46c-.88-1.33-1.92-2.45-3.11-3.36-1.19-.91-2.86-1.37-4.99-1.37-4.77,0-8.01,2.37-9.71,7.1-.94,2.53-1.41,5.84-1.41,9.94v22.44h23.58v6.34h-23.58v60.8c0,7.13,.96,11.69,2.89,13.68,1.93,1.99,6.96,3.27,15.1,3.84v2.65h-50.57v-2.65Z"/><path class="i" d="M383.99,161.36h2.72c1.26,6.26,2.96,11.07,5.1,14.42,3.84,6.15,9.45,9.23,16.85,9.23,4.11,0,7.36-1.14,9.74-3.42,2.38-2.28,3.58-5.23,3.58-8.86,0-2.31-.69-4.53-2.06-6.67-1.37-2.14-3.79-4.23-7.25-6.26l-9.23-5.27c-6.76-3.63-11.73-7.28-14.91-10.96-3.19-3.68-4.78-8.02-4.78-13.02,0-6.15,2.2-11.21,6.59-15.16,4.39-3.95,9.91-5.93,16.56-5.93,2.91,0,6.11,.55,9.6,1.65,3.49,1.1,5.45,1.65,5.89,1.65,.99,0,1.7-.14,2.14-.41,.44-.27,.82-.71,1.15-1.32h1.98l.58,22.99h-2.55c-1.1-5.33-2.58-9.48-4.45-12.44-3.41-5.49-8.32-8.24-14.75-8.24-3.85,0-6.87,1.18-9.06,3.54-2.2,2.36-3.3,5.14-3.3,8.32,0,5.05,3.79,9.56,11.37,13.51l10.88,5.85c11.7,6.37,17.55,13.79,17.55,22.25,0,6.48-2.43,11.78-7.28,15.9-4.85,4.12-11.2,6.18-19.04,6.18-3.29,0-7.02-.55-11.19-1.65-4.17-1.1-6.64-1.65-7.4-1.65-.66,0-1.23,.23-1.73,.7-.49,.47-.88,1.03-1.15,1.69h-2.14v-26.61Z"/><path class="h" d="M297.34,134.03V65.42h44.22v14.51h-28.93v14.51h25.45v13.93h-25.35v25.64h-15.39Z"/><path class="k" d="M345.39,266.7c0,9.08,6.09,14.14,13.34,14.14,6.78,0,10.58-4.25,11.84-8.51l15.41,4.71c-2.53,10-11.96,19.89-27.25,19.89-17.02,0-30.7-12.53-30.7-30.24s13.34-30.35,30.12-30.35c15.75,0,24.95,9.66,27.48,19.89l-15.64,4.71c-1.26-4.37-4.71-8.51-11.5-8.51-7.24,0-13.11,5.06-13.11,14.26Z"/><path class="f" d="M28.69,328.11v-43.61h15.21v42.35c0,8.28,4.62,12.42,11.84,12.42s11.84-4.14,11.84-12.42v-42.35h15.21v43.61c0,17.13-12.03,26.18-27.05,26.18s-27.05-9.05-27.05-26.18Z"/><path class="m" d="M100.41,213.46c7.45-.69,12.09-2.14,13.92-4.34,1.83-2.2,2.75-7.32,2.75-15.36V109.77c0-6.82-1.03-11.28-3.08-13.4-2.05-2.11-6.58-3.46-13.59-4.03v-3.6h53.69c11.17,0,20.49,1.42,27.94,4.26,14.14,5.36,21.21,15.22,21.21,29.6,0,9.65-3.14,17.05-9.42,22.22-6.28,5.17-14.82,8.57-25.62,10.21l39.96,49.22c2.46,3.01,4.92,5.2,7.39,6.58,2.46,1.38,5.62,2.25,9.47,2.63v3.6h-31.23l-48.51-59.75-8.51,.47v38.22c0,7.17,1.09,11.72,3.27,13.64,2.18,1.92,6.93,3.19,14.25,3.82v3.6h-53.88v-3.6Zm66.29-67.24c10.29-4.22,15.44-12.16,15.44-23.82s-4.61-18.87-13.83-22.97c-4.92-2.2-11.46-3.31-19.6-3.31-5.49,0-8.85,.4-10.09,1.18-1.23,.79-1.85,2.63-1.85,5.53v47.74c13.95-.5,23.93-1.96,29.92-4.36Z"/><path class="h" d="M285.23,273.93c6.69,6.16,10.04,14.88,10.04,26.18h-60.13c.63,14.61,3.95,25.26,9.94,31.94,6,6.68,13.1,10.01,21.31,10.01,6.63,0,12.22-1.73,16.76-5.2,4.55-3.46,8.74-8.38,12.59-14.74l3.31,1.14c-2.59,8.03-7.43,15.46-14.54,22.29-7.1,6.83-15.8,10.24-26.09,10.24-11.87,0-21.04-4.48-27.51-13.45-6.47-8.96-9.71-19.29-9.71-30.97,0-12.69,3.75-23.64,11.27-32.86,7.51-9.22,17.3-13.83,29.36-13.83,8.9,0,16.7,3.08,23.39,9.23Zm-45.36,7.24c-2.02,3.41-3.47,7.7-4.36,12.88h39.96c-.7-6.31-1.89-11.02-3.6-14.11-3.09-5.56-8.27-8.33-15.53-8.33s-12.69,3.19-16.48,9.56Z"/><path class="m" d="M734.47,307.27h-53.14l-9.89,27.93h-32.19l51.78-137.5h35.49l51.2,137.5h-33.36l-9.89-27.93Zm-43.05-27.93h33.36l-16.49-47.52-16.87,47.52Z"/><path class="l" d="M893.7,366.14c.24,4.15,3.17,8.17,9.51,8.17,4.76,0,7.07-2.56,7.07-5.24,0-2.2-1.46-4.02-5.98-5l-6.95-1.59c-12.93-2.8-18.05-10.12-18.05-18.66,0-11.1,9.76-20.12,23.29-20.12,17.56,0,23.66,10.98,24.27,18.05l-15.37,2.8c-.49-4.02-3.05-7.44-8.66-7.44-3.54,0-6.59,2.07-6.59,5.24,0,2.56,2.07,4.02,4.76,4.51l8.05,1.59c12.56,2.56,18.66,10.12,18.66,19.02,0,10.37-7.93,20.49-24.15,20.49-19.02,0-25.12-12.32-25.61-19.02l15.73-2.81Z"/><path class="m" d="M1006.77,251.16c1.94,9.31,9.7,16.1,20.75,16.1,14.74,0,23.85-7.18,23.85-24.63v-4.46c-3.49,5.24-11.83,10.86-25.79,10.86-25.6,0-44.8-20.17-44.8-46.93s18.42-47.13,44.8-47.13c15.71,0,24.05,6.98,26.76,12.02v-10.28h28.12v84.36c0,27.73-15.52,51.78-51.59,51.78-27.73,0-45.38-17.07-48.1-34.33l25.99-7.37Zm44.8-49.07c0-13.19-9.5-21.33-20.56-21.33s-20.75,8.15-20.75,21.33,8.92,21.33,20.75,21.33,20.56-8.15,20.56-21.33Z"/><path class="f" d="M1120.69,328.11v-43.61h15.21v42.35c0,8.28,4.62,12.42,11.84,12.42s11.84-4.14,11.84-12.42v-42.35h15.21v43.61c0,17.13-12.03,26.18-27.05,26.18s-27.05-9.05-27.05-26.18Z"/><path class="k" d="M794.74,244.35h54.55l.52,16.39h-2.31c-1.13-5.15-2.57-8.5-4.31-10.06-1.74-1.55-5.41-2.33-11-2.33h-5.37v49.37c0,3.72,.58,6.02,1.74,6.91,1.16,.89,3.71,1.48,7.63,1.76v1.79h-28.12v-1.79c4.08-.31,6.63-.98,7.63-2.02,1-1.03,1.51-3.63,1.51-7.78v-48.24h-5.42c-5.34,0-8.97,.77-10.9,2.31-1.93,1.54-3.38,4.9-4.36,10.08h-2.36l.57-16.39Z"/><path class="m" d="M1192.41,213.46c7.45-.69,12.09-2.14,13.92-4.34,1.83-2.2,2.75-7.32,2.75-15.36V109.77c0-6.82-1.03-11.28-3.08-13.4-2.05-2.11-6.58-3.46-13.59-4.03v-3.6h53.69c11.17,0,20.49,1.42,27.94,4.26,14.14,5.36,21.21,15.22,21.21,29.6,0,9.65-3.14,17.05-9.42,22.22-6.28,5.17-14.82,8.57-25.62,10.21l39.96,49.22c2.46,3.01,4.92,5.2,7.39,6.58,2.46,1.38,5.62,2.25,9.47,2.63v3.6h-31.23l-48.51-59.75-8.51,.47v38.22c0,7.17,1.09,11.72,3.27,13.64,2.18,1.92,6.93,3.19,14.25,3.82v3.6h-53.88v-3.6Zm66.29-67.24c10.29-4.22,15.44-12.16,15.44-23.82s-4.61-18.87-13.83-22.97c-4.92-2.2-11.46-3.31-19.6-3.31-5.49,0-8.85,.4-10.09,1.18-1.23,.79-1.85,2.63-1.85,5.53v47.74c13.95-.5,23.93-1.96,29.92-4.36Z"/><path class="k" d="M906.77,95.4c2.52,1.33,4.96,3.16,7.29,5.49v-30.11c0-3.85-.43-6.5-1.28-7.95-.85-1.45-2.89-2.18-6.11-2.18-.76,0-1.42,.03-1.99,.1-.57,.06-1.83,.19-3.79,.38v-3.13l7.76-1.99c2.84-.76,5.68-1.55,8.52-2.37,2.84-.82,5.33-1.61,7.48-2.37,1.01-.31,2.68-.91,5.02-1.8l.57,.19-.19,9.94c-.06,3.6-.13,7.31-.19,11.13-.06,3.82-.09,7.59-.09,11.32l-.19,77.37c0,4.1,.5,6.98,1.52,8.62,1.01,1.64,3.69,2.46,8.05,2.46,.69,0,1.39-.01,2.08-.05,.69-.03,1.39-.11,2.08-.24v3.12c-.38,.13-4.96,1.71-13.73,4.74l-14.87,5.59-.66-.85v-11.65c-3.54,3.85-6.6,6.6-9.18,8.24-4.61,2.84-9.94,4.26-16,4.26-10.73,0-19.43-4.15-26.09-12.45-6.66-8.3-9.99-17.91-9.99-28.84,0-13.7,3.99-25.46,11.98-35.27,7.99-9.82,17.76-14.72,29.31-14.72,4.61,0,8.84,1.01,12.69,3.03Zm2.75,73.67c3.03-2.9,4.55-5.65,4.55-8.24v-40.62c0-8.21-2.19-14-6.58-17.38-4.39-3.38-8.66-5.07-12.83-5.07-7.95,0-14.14,3.52-18.56,10.56-4.42,7.04-6.63,15.71-6.63,25.99s2.35,19.22,7.05,27.18c4.7,7.95,11.73,11.93,21.07,11.93,4.92,0,8.9-1.45,11.93-4.36Z"/><path class="h" d="M1377.23,273.93c6.69,6.16,10.04,14.88,10.04,26.18h-60.13c.63,14.61,3.95,25.26,9.94,31.94,6,6.68,13.1,10.01,21.31,10.01,6.63,0,12.22-1.73,16.76-5.2,4.55-3.46,8.74-8.38,12.59-14.74l3.31,1.14c-2.59,8.03-7.43,15.46-14.54,22.29-7.1,6.83-15.8,10.24-26.09,10.24-11.87,0-21.04-4.48-27.51-13.45-6.47-8.96-9.71-19.29-9.71-30.97,0-12.69,3.75-23.64,11.27-32.86,7.51-9.22,17.3-13.83,29.36-13.83,8.9,0,16.7,3.08,23.39,9.23Zm-45.36,7.24c-2.02,3.41-3.47,7.7-4.36,12.88h39.96c-.7-6.31-1.89-11.02-3.6-14.11-3.09-5.56-8.27-8.33-15.53-8.33s-12.69,3.19-16.48,9.56Z"/><path class="l" d="M649.21,123.4c-22.43-8.97-37.81-15.38-44.22-33.32-6.41-17.94,7.69-44.86,32.04-41.01,0,0-.96-25.01,27.72-25.32,28.68-.31,41.5,25.32,62,25.32s26.92-5.13,38.45,10.25c0,0,17.94,.73,16.02,27.92-1.92,27.19-7.05,54.75-7.05,54.75l-85.87,13.46-39.09-32.04Z"/><path class="m" d="M642.81,90.29s-10.52,34.35-11.67,61.6c-1.15,27.25,0,61.86,0,61.86l162.91,11.53-9.99-69.21s12.59-23.95-6.03-31.4c-6.41-2.56-10.25,8.97-17.94,3.85s10.25-37.17-5.13-41.01c-15.38-3.85-45.44,33.95-70.78,31.07-25.34-2.87-41.36-28.29-41.36-28.29Z"/><path class="k" d="M453.49,312.73v-1.7c2.35-.27,4.12-1.15,5.3-2.66,1.18-1.51,3.2-5.63,6.06-12.37l19.08-44.95h1.82l22.82,51.93c1.52,3.44,2.74,5.57,3.64,6.38,.91,.82,2.44,1.37,4.58,1.67v1.7h-23.29v-1.7c2.68-.24,4.4-.53,5.18-.87,.77-.34,1.16-1.18,1.16-2.52,0-.44-.15-1.23-.45-2.36-.3-1.13-.72-2.31-1.25-3.56l-3.67-8.81h-24.14c-2.38,5.99-3.8,9.65-4.26,10.97-.46,1.32-.69,2.37-.69,3.14,0,1.54,.63,2.61,1.88,3.2,.77,.36,2.23,.62,4.37,.8v1.7h-18.15Zm39.45-23.53l-10.5-25.23-10.55,25.23h21.04Z"/><path class="m" d="M700.48,142.62h-3.85c0-4.59-3.74-8.33-8.33-8.33s-8.33,3.74-8.33,8.33h-3.85c0-6.71,5.46-12.18,12.18-12.18s12.18,5.46,12.18,12.18Z"/><polygon class="m" points="696 200.3 696 514.31 704.22 509.04 704.22 190.99 696 200.3"/><path class="j" d="M661.39,199.02l-151.43-53.31c-4.26-1.5-8.7,1.7-8.63,6.21l3.7,230.37-.64,35.25,.56,30.78c.05,2.69,1.75,5.07,4.28,5.98l152.16,54.74V199.02Z"/><path class="k" d="M646.8,203.55l-124.37-45.61c-6.36-2.33-13.01,2.65-12.9,9.68l3.23,209.87-.58,32.99,.45,26.04c.07,4.19,2.62,7.89,6.41,9.31l121.26,45.44c6.31,2.37,12.96-2.51,12.96-9.49V213.07c0-4.28-2.59-8.1-6.47-9.52Z"/><path class="m" d="M504.38,417.55s-30.76-30.76-29.48-78.18c1.28-47.42,17.3-60.88,39.09-72.42,21.79-11.54,67.93-34.61,67.93-34.61l1.41,9.38c1.49,9.97-2.75,19.92-10.98,25.74l-12.05,8.53,62.64-11.61v10.31c0,6.03-3.5,11.51-8.97,14.04h0l12.82,1.28-.26,1.23c-2.96,14.08-13.89,25.13-27.94,28.25h0c7.69,5.77,8,17.42,.36,23.24-1.89,1.44-4.13,2.72-6.77,3.68-14.1,5.13-87.16,35.89-87.16,35.89l-.64,35.25Z"/><polygon class="m" points="661.39 199.02 667.8 199.02 668.12 514.31 661.39 509.04 661.39 199.02"/><path class="j" d="M704.22,509.04l155.31-53.47c2.61-.9,4.37-3.36,4.37-6.13V151.68c0-4.44-4.37-7.57-8.57-6.13l-149.08,50.9-2.03,312.59Z"/><path class="k" d="M709.56,496.88l144.93-50.08c2.44-.84,4.08-3.15,4.08-5.74V162.15c0-4.16-4.08-7.09-8-5.74l-139.11,47.68-1.9,292.79Z"/><path class="m" d="M878,300.27l-5.13-52.55-8.97,3.85v38l-74.34-44.4-3.21,10.45c-3.3,10.75-1.27,22.43,5.47,31.44l.31,.41-52.86-8.71,.78,11.15c.45,6.48,4.13,12.31,9.79,15.51h0l-3.76,2.4c-5.96,3.79-8.29,11.34-5.51,17.83h0c1.8,4.2,5.49,7.3,9.95,8.35l14.71,3.46-.42,7c-.44,7.29,3.87,14.02,10.66,16.69l88.45,34.66v38.69s23.07-27.83,28.2-66.28c5.13-38.45-14.1-67.93-14.1-67.93Z"/><circle class="k" cx="642.81" cy="141.98" r="39.09"/><circle class="k" cx="735.09" cy="141.98" r="39.09"/><rect class="l" x="720.35" y="110.58" width="37.17" height="16.66" rx="8.33" ry="8.33" transform="translate(117.77 -298.61) rotate(24.77)"/><rect class="l" x="629.35" y="104.17" width="37.17" height="16.66" rx="8.33" ry="8.33"/><g><circle class="j" cx="724.19" cy="142.62" r="16.02"/><path class="m" d="M724.19,126.6c-8.85,0-16.02,7.17-16.02,16.02,0,3.62,1.21,6.94,3.24,9.63,.33-6.08,5.34-10.91,11.5-10.91s11.54,5.16,11.54,11.54c0,.76-.08,1.51-.22,2.23,3.65-2.94,5.99-7.43,5.99-12.48,0-8.85-7.17-16.02-16.02-16.02Z"/></g><g><circle class="j" cx="649.21" cy="139.42" r="16.02"/><path class="m" d="M649.21,123.4c-8.85,0-16.02,7.17-16.02,16.02,0,3.62,1.21,6.94,3.24,9.63,.33-6.08,5.34-10.91,11.5-10.91s11.54,5.16,11.54,11.54c0,.76-.08,1.51-.22,2.23,3.65-2.94,5.99-7.43,5.99-12.48,0-8.85-7.17-16.02-16.02-16.02Z"/></g><path class="g" d="M513.41,146.93l8.27-1.74,7.69,2.56v-5.13l12.33,5.13v-6.36s15.42-2.56,26.54,3.18c11.12,5.74,30.34,19.84,52.13,27.53,21.79,7.69,35.89,11.54,35.89,11.54v-60.74s37.17,28.7,43.58,54.33c0,0,15.38-3.85,44.86-10.25,29.48-6.41,52.55-15.38,64.08-21.79,11.54-6.41,20.51-12.82,20.51-12.82v6.92l6.41-4.35v10.28l4.77-2.59,14.46,3.85-148.68,49.99s-7.69,0-10.25,3.85c0,0-19.23-3.85-28.2-1.28h-6.41l-147.98-52.09Z"/><line class="e" x1="613.97" y1="288.73" x2="542.14" y2="296.94"/><line class="e" x1="598.59" y1="319.5" x2="528.89" y2="334.14"/><line class="e" x1="792.12" y1="287.45" x2="858.56" y2="310.25"/><line class="e" x1="749.83" y1="305.4" x2="858.56" y2="339.82"/><line class="e" x1="765.21" y1="337.44" x2="854.93" y2="361.62"/><path class="j" d="M696,514.31s-13.46,7.69-27.88,0l-.32-315.3s11.54-6.41,28.2,1.28v314.02Z"/></g></g></g></svg>