<?xml version="1.0" encoding="UTF-8"?><svg xmlns="http://www.w3.org/2000/svg" xmlns:xlink="http://www.w3.org/1999/xlink" viewBox="0 0 1366 543"><defs><style>.d,.e,.f{fill:none;}.g{fill:#fafbfe;}.h{fill:#fdf3ec;}.i{fill:#6975cf;}.i,.j,.k,.l,.m,.e{stroke:#6975cf;}.i,.j,.k,.l,.m,.e,.f{stroke-miterlimit:10;}.j{fill:#fff;}.k{fill:#ee8c3d;}.l{fill:#edc883;}.m{fill:#8fbceb;}.f{stroke:#fff;}.n{clip-path:url(#c);}</style><clipPath id="c"><rect class="d" width="1366" height="543"/></clipPath></defs><g id="a"/><g id="b"><g class="n"><g><rect class="h" width="1366" height="543"/><path class="i" d="M637.1,491.02h0c-10.56,12.43-13.92,29.45-8.87,44.96l1.87,5.74h147v-20.85l-88-29.85h-52Z"/><path class="i" d="M389.1,500.02h0c-10.59,8.23-14.24,22.6-8.87,34.89l2.97,6.8h143.89v-16.73l-92-21.96-46-3Z"/><path class="l" d="M637.1,491.02l15.05,9.47c6.53,4.11,14.83,4.15,21.4,.1l15.55-9.57h-52Z"/><path class="j" d="M234.1,408.02s-18-19-28.5-48.5l62.35-23.42,67.15,13.92-23,51-78,7Z"/><path class="i" d="M369.1,541.72H184.24c-9.72,0-17.63-7.91-17.63-17.63,0-7.76,5.2-14.71,12.63-16.91l172.04-52.78c2.9-.89,5.98,.74,6.87,3.64,.89,2.9-.74,5.98-3.64,6.87l-172.09,52.8c-2.85,.84-4.81,3.46-4.81,6.38,0,3.66,2.97,6.63,6.63,6.63h184.87c3.04,0,5.5,2.46,5.5,5.5s-2.46,5.5-5.5,5.5Z"/><path class="k" d="M308.1,372.02s-34,31-74,36l11.71,10.76c21.89,20.11,51.82,29.02,81.14,24.15,47.19-7.85,118.89-21.03,161.15-34.91,0,0-26,12-84,78.37h56.6l83.4-54.37,93,59h52l-107-107-.1-2.41c-1.06-25.47-22.04-45.55-47.53-45.51l-130.37,.24-96,35.68Z"/><path class="m" d="M350.1,182.02l-14.44-.3c-50.03-1.04-96.41,26.12-119.97,70.27h0c-13.68,25.64-18.58,55.06-13.94,83.76l3.85,23.77s42.5,25.5,96.5,18.5l12.11,7c19.79,11.43,44.59,9.41,62.26-5.08l7.79-6.39c11.3-9.27,18.44-22.66,19.84-37.21h0l4.91-1.1c28.09-6.31,48.08-31.21,48.16-60l.13-49.07-20.2,10.86h-33l-.54-7.44c-1.03-14.09-8.6-26.88-20.46-34.56h0l-33-13Z"/><path class="j" d="M0,121.45c26.73,2.43,55.35-1.86,85.1-16.43C232.1,33.02,370.1-81.98,470.1-56.98c163.32,40.83,17.14,250.51,17.14,250.51,0,0,28.36-172.01-116.75-152.41C226.36,60.58,191.38,295.35,0,350.92c-1.29,.38-2.59,.74-3.9,1.1"/><path class="l" d="M399.1,159.02c-8.83,0-16.31,5.73-18.96,13.66-12.37,8.65-30.04,9.34-30.04,9.34-1,11,1,28,17,33,14.95,4.67,22.91-15.09,23.89-17.71,2.48,1.1,5.22,1.71,8.11,1.71,11.05,0,20-8.95,20-20s-8.95-20-20-20Z"/><path class="k" d="M380.1,181.02s-2.21-12.08,4.39-19.54c6.61-7.46,27.61-9.46,29.61-1.46,0,0,7,0,7,3s-2,2.97-2,2.97c0,0,5,1.03,5,4.03s-9,3-9,3c0,0-7-12-16-8-5.6,2.49-6.17,7.3-5.8,10.58,.28,2.46-.62,4.9-2.33,6.69h0s.87-9.22-6.48-10.4c-5.39-.87-4.39,9.13-4.39,9.13Z"/><path class="l" d="M479.17,217.01c.57-2.13-.23-4.4-2-5.71l-3.06-2.27,.33-.44c2.81-3.75,1.18-9.15-3.24-10.7h0c-1.07-.38-2.23-.49-3.35-.32l-33.21,5.07c-1.68,.26-3.33,.63-4.96,1.13-12.63,3.84-22.07,14.41-24.48,27.39l-1.09,5.87h33l6.73,4.04c5,3,11.32,2.67,15.99-.82l4.28-3.21,.31,.1c2.8,.93,5.69-1.15,5.69-4.1l2.92,.42c2.39,.34,4.7-1.01,5.57-3.26,.88-2.28,.05-4.87-1.99-6.21l-4.49-2.95h1.85c2.45,0,4.59-1.65,5.21-4.01Z"/><path class="e" d="M470.1,233.02l-8.12-5.17c-1.72-1.09-2.54-3.16-2.05-5.14h0c.64-2.57,3.28-4.12,5.84-3.42l6.34,1.73-9.39-4.7c-2.58-1.29-3.69-4.38-2.52-7.01h0c1.09-2.46,3.83-3.74,6.42-2.99l7.82,2.26"/><path class="e" d="M464.1,237.02l-4.98-2.74c-1.35-.75-2.06-2.29-1.74-3.8h0c.4-1.91,2.27-3.12,4.18-2.71l.43,.09"/><path class="e" d="M458.35,241.19h0c-1.77-1.73-1.73-4.58,.07-6.26l.7-.65"/><path class="e" d="M436.1,224.02h3.29c4.89,0,9.32-2.9,11.27-7.39h0c1.54-3.54,4.64-6.14,8.39-7.05l1.14-.27"/><path class="k" d="M477.47,210.67l8.59,21.04c.63,1.55,2.14,2.57,3.82,2.57h8.43c1.65,0,3.13-.98,3.79-2.49l9.1-21.06c.94-2.18-.66-4.62-3.03-4.62h-27.63c-2.35,0-3.95,2.38-3.06,4.56Z"/><line class="e" x1="485.04" y1="229.22" x2="478.03" y2="225.37"/><path class="l" d="M450.93,259.62c-1.82-1.37-3.99-2.19-6.25-2.38l-14.58-1.21-12.74-5.95c-1.45-.68-3.1-.76-4.61-.25l-25.5,8.69c-10.35,3.53-18.89,10.99-23.77,20.76l-11.37,22.74h48.31l8.06-20.78c.61-1.59,2.83-1.66,3.55-.12l3.25,6.96c1.04,2.22,3.61,3.28,5.91,2.41,2.24-.84,3.49-3.22,2.91-5.54l-1.98-7.93,6.27,11.84c1.5,2.84,5.04,3.88,7.84,2.33,2.29-1.27,3.42-3.93,2.76-6.47l-2.86-10.86,7.86,15.06c1.19,2.28,3.99,3.19,6.29,2.04,2.18-1.09,3.17-3.67,2.28-5.94l-4.38-11.15,9.26,3.43c2.96,1.1,6.27,.76,8.95-.92l3.75-2.34-19.17-14.41Z"/><g><path class="e" d="M390.98,197.3c-4.49-2-8.1-5.59-10.12-10.07"/><g><path class="e" d="M430.1,256.02l8.07,4.84c1.27,.76,2.33,1.81,3.11,3.06l3.81,6.1"/><path class="e" d="M436.1,273.86l-2.13-4.18c-1.2-2.36-3.21-4.21-5.65-5.23l-8.21-3.42"/><path class="e" d="M411.1,268.62h.65c3.79,0,7.26,2.15,8.94,5.55l1.41,2.85"/></g><path class="e" d="M302.1,378.02l-2.26-2.47c-12.7-13.85-19.74-31.96-19.74-50.74v-57.37"/><line class="e" x1="352.1" y1="331.13" x2="352.1" y2="280.12"/></g><path class="l" d="M439.79,452.07l-21.42-19.26c-10.59-9.52-24.32-14.79-38.56-14.79H212.1l9.54,27.9c5.06,14.79,18.96,24.73,34.6,24.73h176.42c2.83,0,5.54-1.12,7.54-3.12,4.32-4.32,4.13-11.38-.41-15.46Z"/><path class="l" d="M212.1,418.02l-40-121h0c11.88,0,22.36,7.77,25.82,19.14l21.77,71.65c2.17,7.16,1.28,14.89-2.47,21.36l-5.13,8.85Z"/><path class="l" d="M404.1,486.4l-15,13.63,1.17,.66c13.75,7.77,30.35,8.64,44.83,2.34h0l25.6-16.63h-56.6Z"/><path class="i" d="M420.1,322.73v-23h16v-5.75h10.62v3.04l12.4-9.98v-4.55h-4.49v-3.47h14.5s4.96-11.58,19.96-11.58,20.53,8.32,20.53,8.32h3.2c0-6.48,5.25-11.74,11.74-11.74h20.77c9.82,0,17.78,7.96,17.78,17.78v40.93h-143.01Z"/><g><circle class="f" cx="537.6" cy="290.52" r="17.5"/><path class="f" d="M436.1,299.74s9,9.29,25.5,2.29,21.64-23.53,31.07-26.26c9.43-2.74,16.95,0,16.95,0"/></g><path class="j" d="M1367,163.73c-11.9-.57-26.46-2.1-41.9-4.71-101.2-17.08-227.22,154.72-361.11,147.36-133.89-7.36-166.4-98.88-262.48-90.65-38.41,3.29-42.75,49.29-90.58,48.29s-54.83-26.57-73.33-26.29c-12.86,.2-16.3,14.48-17.2,23.17-.32,3.08-3.63,4.88-6.41,3.51l-12.89-6.39s-1.4-22.58,21.8-42.29c23.2-19.71,53.2,17.29,82.2-1.71,17.13-11.22,20.41-34.05,32.3-49.57,15.31-19.97,42.27-30.63,66.93-31.23,107.04-2.6,162.51,84.97,278.62,45.4,3.1-1.06,6.14-2.27,9.13-3.61,57.6-25.82,124.56-90.08,177.39-148.25,8.66-9.53,17.82-19.47,27.43-27.78h170.1V163.73Z"/><g><path class="g" d="M1000.1,277.53c-4.08,0-7.84-2.64-9.09-6.75l-19.26-63.5c-1.52-5.02,1.31-10.33,6.33-11.85,5.02-1.53,10.33,1.31,11.85,6.33l19.26,63.5c1.52,5.02-1.31,10.33-6.33,11.85-.92,.28-1.85,.41-2.76,.41Z"/><path class="g" d="M1068.94,259.02c-2.93,0-5.83-1.35-7.69-3.91l-45.81-62.5c-3.09-4.24-2.16-10.18,2.08-13.27,4.24-3.09,10.18-2.16,13.27,2.08l45.81,62.5c3.09,4.24,2.16,10.18-2.08,13.27-1.69,1.23-3.65,1.82-5.59,1.82Z"/><path class="g" d="M1128.11,223.52c-2.61,0-5.21-1.07-7.08-3.17l-52.18-57.98c-3.5-3.91-3.16-9.92,.75-13.42,3.91-3.5,9.92-3.16,13.42,.75l52.18,57.98c3.5,3.91,3.16,9.92-.75,13.42-1.81,1.62-4.08,2.42-6.33,2.42Z"/><path class="g" d="M1252.7,134.52c-2.31,0-4.62-.83-6.44-2.52l-70.6-63c-3.85-3.56-4.09-9.57-.53-13.42,3.56-3.86,9.57-4.09,13.42-.53l70.6,63c3.85,3.56,4.09,9.57,.53,13.42-1.87,2.03-4.42,3.05-6.98,3.05Z"/><path class="g" d="M1308.11,118.52c-3.08,0-6.1-1.5-7.93-4.26l-60-88c-2.9-4.37-1.7-10.27,2.68-13.17,4.38-2.9,10.27-1.7,13.17,2.68l60,88c2.9,4.38,1.7,10.27-2.68,13.17-1.61,1.07-3.43,1.58-5.24,1.58Z"/><path class="g" d="M1361.2,118.53c-4.21,0-8.06-2.82-9.18-7.09l-27.36-122.52c-1.33-5.07,1.7-10.27,6.78-11.6,5.08-1.33,10.27,1.7,11.6,6.78l27.36,122.52c1.33,5.08-1.7,10.27-6.78,11.6-.81,.21-1.62,.31-2.42,.31Z"/></g><polygon class="l" points="677.64 170.39 670 148.9 647.83 143.56 669.32 135.92 674.66 113.75 682.3 135.24 704.47 140.58 682.98 148.22 677.64 170.39"/><polygon class="k" points="717.38 234.89 717.16 221.05 705.45 213.67 719.29 213.45 726.67 201.73 726.89 215.58 738.6 222.96 724.76 223.17 717.38 234.89"/><polygon class="m" points="658.17 202.84 657.38 190.39 646.53 184.25 658.97 183.47 665.11 172.61 665.9 185.06 676.75 191.2 664.31 191.98 658.17 202.84"/><g><rect class="l" x="400.26" y="322.52" width="181" height="14" rx="7" ry="7"/><path class="m" d="M413.53,337.02l143.45,199.84c2.55,3.55,6.65,5.66,11.02,5.66h0l-145.74-201.05c-2.03-2.8-5.27-4.45-8.73-4.45h0Z"/><path class="m" d="M568,337.02l-143.45,199.84c-2.55,3.55-6.65,5.66-11.02,5.66h0l145.74-201.05c2.03-2.8,5.27-4.45,8.73-4.45h0Z"/></g><rect class="d" width="1366" height="543"/></g></g></g></svg>