<?xml version="1.0" encoding="UTF-8"?><svg xmlns="http://www.w3.org/2000/svg" xmlns:xlink="http://www.w3.org/1999/xlink" viewBox="0 0 1366 543"><defs><style>.d,.e,.f,.g{fill:none;}.e,.h,.i,.j,.k,.l,.f,.m,.n,.o,.p,.q{stroke:#6975cf;}.e,.m,.n,.o,.p,.q,.g{stroke-linejoin:round;}.r,.h,.m{fill:#6975cf;}.s{fill:#fdf3ec;}.h,.i,.j,.k,.l,.f{stroke-miterlimit:10;}.i,.o{fill:#fff;}.j,.p{fill:#ee8c3d;}.k,.q{fill:#edc883;}.l,.n{fill:#8fbceb;}.t{clip-path:url(#c);}.g{stroke:#8fbceb;stroke-linecap:round;stroke-width:3px;}</style><clipPath id="c"><rect class="d" width="1366" height="543"/></clipPath></defs><g id="a"/><g id="b"><g class="t"><g><rect class="s" width="1366" height="543"/><ellipse class="h" cx="665" cy="168.17" rx="29.5" ry="15.5"/><ellipse class="l" cx="665" cy="163.17" rx="29.5" ry="15.5"/><polygon class="l" points="783.79 159.03 687.62 121.9 687.62 210.64 783.79 249.35 783.79 159.03"/><polygon class="j" points="783.79 159.03 859.5 107.67 859.5 197.73 783.79 249.35 783.79 159.03"/><path class="k" d="M225.5,412.67v7h.04c.47,5.01,7.87,9,16.96,9s16.49-3.99,16.96-9h.04v-7h-34Z"/><ellipse class="l" cx="242.5" cy="413.17" rx="17" ry="9.5"/><path class="k" d="M265.5,429.67v7h.04c.47,5.01,7.87,9,16.96,9s16.49-3.99,16.96-9h.04v-7h-34Z"/><ellipse class="l" cx="282.5" cy="430.17" rx="17" ry="9.5"/><path class="h" d="M819.96,212.6l20.03-50.77-9.63-2.8c-11.48-.23-23.19,11.97-26.14,27.24-.58,3-.78,5.89-.64,8.61,.25,4.89,2.9,9.33,7.05,11.92l9.32,5.8"/><polygon class="m" points="1097.5 226.67 1097.5 400.17 1228.5 305.43 1228.5 131.67 1097.5 226.67"/><path class="k" d="M1195.54,275.62c-7.74,25.08-22.04,47.47-45.73,47.47-17.55,0-25.44-18.27-17.69-43.35,7.74-25.08,22.38-47.47,45.73-47.47,17.55,0,25.44,18.27,17.69,43.35Z"/><ellipse class="l" cx="1166.83" cy="278.12" rx="42.42" ry="23.66" transform="translate(474.04 1257.35) rotate(-68.13)"/><polygon class="j" points="1097.5 226.67 918.5 155.67 918.5 334.67 935 338.17 939.94 255.67 995.39 232.66 1044.08 274.67 1059.5 385.78 1097.5 400.17 1097.5 226.67"/><path class="i" d="M126.71,0c-.7,25.56-8.21,49.67-8.21,49.67,0,0,3,82,0,0S49.5-25.33,51.59,40.28C53.34,94.91,82.62,165.6,0,172.15V0H126.71Z"/><path class="j" d="M141.5,49.2V203.08c0,12.71,6.89,24.42,18,30.59h0v48l-11.84-4.07c-31.21-10.73-52.16-40.08-52.16-73.08V50.2s4.38,6.97,25.19,6.97,20.81-7.97,20.81-7.97Z"/><rect class="j" x="166.5" y="-140.33" width="44" height="417"/><polygon class="k" points="334.5 433.67 159.5 362.6 159.5 151.14 210.5 169.46 210.5 210.69 334.5 258.78 334.5 433.67"/><polygon class="l" points="159.5 151.14 290.5 57.67 342.5 79.67 210.5 169.46 159.5 151.14"/><polygon class="j" points="210.5 210.69 342.5 116.96 342.5 79.67 210.5 169.46 210.5 210.69"/><g><path class="h" d="M185.5,137.17v7c0,5.8,8.51,10.5,19,10.5s19-4.7,19-10.5v-7h-38Z"/><ellipse class="k" cx="204.5" cy="137.17" rx="19" ry="10.5"/><ellipse class="j" cx="204.5" cy="137.17" rx="15.38" ry="8.5"/></g><g><path class="h" d="M229.5,105.17v7c0,5.8,8.51,10.5,19,10.5s19-4.7,19-10.5v-7h-38Z"/><ellipse class="k" cx="248.5" cy="105.17" rx="19" ry="10.5"/><ellipse class="j" cx="248.5" cy="105.17" rx="15.38" ry="8.5"/></g><g><path class="h" d="M271.5,76.17v7c0,5.8,8.51,10.5,19,10.5s19-4.7,19-10.5v-7h-38Z"/><ellipse class="k" cx="290.5" cy="76.17" rx="19" ry="10.5"/><ellipse class="j" cx="290.5" cy="76.17" rx="15.38" ry="8.5"/></g><polygon class="h" points="210.5 210.69 342.5 116.96 466.39 169.46 334.5 258.78 210.5 210.69"/><polygon class="k" points="254.5 212.67 275.11 220.97 383.18 145.18 361.5 135.67 254.5 212.67"/><polygon class="k" points="302.5 231.67 323.11 239.97 431.18 164.18 409.5 154.67 302.5 231.67"/><path class="j" d="M369.6,128.14c-.07-.96-.38-1.89-.92-2.69h0c-1.74-2.61-5.3-3.25-7.83-1.41l-91.07,65.98c-1.43,1.04-2.28,2.7-2.28,4.47v10.61c0,1.73,1.27,3.22,2.99,3.46,4.31,.6,5.01-2.89,5.01-2.89l-.38-10.06,86.38-61.94v5.57c0,.89,.54,1.72,1.37,2.04,2.95,1.12,5,.69,6.21,.15,.81-.37,1.27-1.22,1.22-2.11l-.7-11.18Z"/><path class="j" d="M414.88,142.22c-2.09-.96-4.54-.72-6.41,.62l-88.41,63.42c-2.87,2.06-4.57,5.37-4.57,8.89v11.52c6,4,8,0,8,0v-12l86-62v6c6,5,9.13-.52,9.13-.52v-10.1c0-2.51-1.46-4.79-3.75-5.84Z"/><g><path class="f" d="M440.89,164.96v1.49c0,1.24,1.82,2.24,4.05,2.24s4.05-1,4.05-2.24v-1.49h-8.11Z"/><ellipse class="f" cx="444.94" cy="164.96" rx="4.05" ry="2.24"/></g><g><path class="f" d="M327.89,244.96v1.49c0,1.24,1.82,2.24,4.05,2.24s4.05-1,4.05-2.24v-1.49h-8.11Z"/><ellipse class="f" cx="331.94" cy="244.96" rx="4.05" ry="2.24"/></g><polygon class="h" points="170.5 280.67 134.5 335.67 192.5 359.67 230.39 301.79 170.5 280.67"/><polygon class="k" points="134.5 335.67 134.5 393.72 192.5 416.67 192.5 359.67 134.5 335.67"/><polygon class="l" points="192.5 359.67 230.39 301.79 230.39 390.21 192.5 416.67 192.5 359.67"/><line class="g" x1="187.5" y1="342.67" x2="212.5" y2="303.67"/><line class="g" x1="171.5" y1="337.67" x2="196.5" y2="298.67"/><line class="g" x1="156.5" y1="331.67" x2="181.5" y2="292.67"/><g><polygon class="o" points="162.03 307.76 156.62 316.17 163.77 318.02 169.16 309.25 162.03 307.76"/><polygon class="q" points="156.62 316.17 158.83 319.02 164.96 320.58 163.77 318.02 156.62 316.17"/><polygon class="p" points="163.77 318.02 169.16 309.25 170.37 312.17 164.96 320.58 163.77 318.02"/></g><g><polygon class="o" points="186.29 300.7 180.55 308.9 187.62 311.03 193.35 302.48 186.29 300.7"/><polygon class="q" points="180.55 308.9 182.64 311.83 188.71 313.63 187.62 311.03 180.55 308.9"/><polygon class="p" points="187.62 311.03 193.35 302.48 194.44 305.44 188.71 313.63 187.62 311.03"/></g><g><polygon class="o" points="193.08 318.75 187.61 327.12 194.75 329.02 200.19 320.29 193.08 318.75"/><polygon class="q" points="187.61 327.12 189.8 329.98 195.91 331.59 194.75 329.02 187.61 327.12"/><polygon class="p" points="194.75 329.02 200.19 320.29 201.38 323.22 195.91 331.59 194.75 329.02"/></g><ellipse class="p" cx="287.11" cy="299.01" rx="23.81" ry="33.99" transform="translate(-125.04 254.58) rotate(-40.01)"/><ellipse class="n" cx="282.11" cy="303.01" rx="23.81" ry="33.99" transform="translate(-128.78 252.3) rotate(-40.01)"/><ellipse class="m" cx="282.11" cy="303.01" rx="21.21" ry="30.28" transform="translate(-128.78 252.3) rotate(-40.01)"/><polygon class="l" points="334.5 433.67 466.39 331.59 466.39 169.46 334.5 258.78 334.5 433.67"/><path class="m" d="M275.5,361.17c2.53,8.01-.57,14.5-6.92,14.5-2.38,0-4.88-.91-7.21-2.48-3.88-2.61-7.29-7.02-8.87-12.02-2.53-8.01,.57-14.5,6.92-14.5s13.55,6.49,16.08,14.5Z"/><polygon class="e" points="254.39 348.51 249.23 353.66 269.27 378.14 274.79 372.44 269.5 356.67 254.39 348.51"/><ellipse class="n" cx="259" cy="366.17" rx="10.46" ry="15.94" transform="translate(-158.71 202.83) rotate(-33.37)"/><path class="j" d="M265.48,362.15l-1.32-1.98c-2.26-3.39-6.19-5.27-10.25-4.9-2.84,.26-5.47,1.6-7.35,3.74l-7.79,8.88c-5.41,6.17-8.39,14.11-8.36,22.32l.07,24.46s-2,6,11,6,15-5,15-5l-.82-24.57c-.12-3.46,1.21-6.82,3.66-9.27l4.3-4.3c1.22-1.22,2.14-2.71,2.68-4.34l.45-1.36c1.08-3.25,.61-6.82-1.29-9.67Z"/><path class="m" d="M315.5,378.17c2.53,8.01-.57,14.5-6.92,14.5-2.38,0-4.88-.91-7.21-2.48-3.88-2.61-7.29-7.02-8.87-12.02-2.53-8.01,.57-14.5,6.92-14.5s13.55,6.49,16.08,14.5Z"/><polygon class="e" points="294.39 365.51 289.23 370.66 309.27 395.14 314.79 389.44 309.5 373.67 294.39 365.51"/><ellipse class="n" cx="299" cy="383.17" rx="10.46" ry="15.94" transform="translate(-161.47 227.64) rotate(-33.37)"/><path class="j" d="M305.48,379.15l-1.32-1.98c-2.26-3.39-6.19-5.27-10.25-4.9-2.84,.26-5.47,1.6-7.35,3.74l-7.79,8.88c-5.41,6.17-8.39,14.11-8.36,22.32l.07,24.46s-2,6,11,6,15-5,15-5l-.82-24.57c-.12-3.46,1.21-6.82,3.66-9.27l4.3-4.3c1.22-1.22,2.14-2.71,2.68-4.34l.45-1.36c1.08-3.25,.61-6.82-1.29-9.67Z"/><path class="q" d="M376.59,422.16l-18.09-7.07,1.94-89.42c.67-30.93,15.56-59.81,40.36-78.3l6.08-4.53c6.02-4.49,13.87-5.72,20.98-3.29l1.23,.42,19.41,8.51c3.31,1.45,6.32,3.5,8.87,6.06h0c4.62,4.62,7.55,10.67,8.3,17.16l.72,6.2v53.7l-17.2,13.31-19.69-8.23v-70s-18,11-26,28-10.66,28-10.66,52v70l-4.23,3.53c-3.35,2.8-7.95,3.55-12.02,1.96Z"/><path class="m" d="M455.5,340.02v-61.99c0-3.47-1.19-6.83-3.38-9.53h0c-4.57-5.64-12.5-7.25-18.9-3.82l-3.72,1.99v70l19.69,8.23,6.31-4.88Z"/><path class="m" d="M427.85,239.55c-7.11-2.43-14.96-1.2-20.98,3.29l-6.08,4.53c-24.8,18.49-39.69,47.38-40.36,78.3l-1.94,89.42,18.09,7.07c1.27,.5,2.59,.74,3.91,.79v-80.01c0-9.47,1.29-18.9,3.85-28.02l1.74-6.23c5.48-19.58,16.59-37.13,31.95-50.46h0c8.39-7.28,19.39-10.81,30.45-9.76l-19.41-8.51-1.23-.42Z"/><path class="i" d="M418.5,308.67l246.93,95.93c20.56,7.99,42.35,12.31,64.4,12.77h0c40.69,.85,80.56-11.48,113.67-35.15l184-131.54,28.27,53.23-23.85,41.01-140.63,95.02c-40.12,27.11-87.92,40.53-136.28,38.29l-40.32-1.88c-37.87-1.76-75.19-9.73-110.47-23.57l-211.33-82.94v-28.2l25.62-32.95Z"/><path class="m" d="M1057.61,298.84l-26.08,37.06-140.63,95.02c-40.12,27.11-87.92,40.54-136.28,38.29l-40.32-1.88c-37.87-1.76-75.19-9.73-110.47-23.57l-210.95-82.79v8.85l211.33,82.94c35.29,13.85,72.61,21.81,110.47,23.57l40.32,1.88c48.37,2.25,96.17-11.18,136.28-38.29l140.63-95.02,22.85-41.01,2.84-5.05Z"/><path class="j" d="M405.42,291.02c-.69,1.18-1.33,2.39-1.92,3.64-7.42,15.76-10.24,26.37-10.62,46.95,.54,.03,1.07,.05,1.62,.05,14.64,0,26.5-11.86,26.5-26.5,0-10.74-6.39-19.98-15.58-24.14Z"/><circle class="j" cx="471" cy="344.17" r="24.5"/><circle class="j" cx="544" cy="373.17" r="24.5"/><circle class="j" cx="616" cy="400.17" r="24.5"/><circle class="j" cx="700" cy="423.17" r="24.5"/><circle class="k" cx="825" cy="416.17" r="24.5"/><circle class="k" cx="881" cy="376.17" r="24.5"/><circle class="k" cx="988" cy="299.17" r="24.5"/><path class="l" d="M738.5,529.71v-132.04h61.51v132.04c0,2.74-2.22,4.96-4.96,4.96h-51.58c-2.74,0-4.96-2.22-4.96-4.96Z"/><path class="j" d="M738.5,397.67l-12.09-96.7c-.08-.6-.97-.55-.97,.06l-.94,116.15h3.52v-86.5l10.48,81.46v-14.46Z"/><polygon class="k" points="726.44 301.02 784.69 298.84 800 397.67 738.5 397.67 726.44 301.02"/><path class="j" d="M767.95,445.27c-12.62,1.3-21.96,11.28-20.83,22.25s12.31,18.84,24.93,17.54c12.62-1.3,21.96-11.28,20.83-22.25-1.13-10.97-12.31-18.84-24.93-17.54Zm19.14,14.76l-14.87,2.27-1.25-12.15c7.46,.1,13.87,4.09,16.12,9.88Zm-20.11-9.57l1.28,12.44-16.22,2.47c.19-7.15,6.47-13.45,14.94-14.91Zm-14.4,18.88l16.09-2.45,1.37,13.29c-8.29,.28-15.48-4.26-17.45-10.84Zm21.42,10.33l-1.38-13.39,15.3-2.33c.38,7.28-5.57,13.86-13.93,15.72Z"/><path class="m" d="M775.08,328.86c0,3.21-6.53,5.81-14.58,5.81s-14.58-2.6-14.58-5.81v-3.88h29.17v3.88Z"/><ellipse class="l" cx="760.5" cy="324.98" rx="14.58" ry="5.81"/><path class="k" d="M771.32,324.98c0,2.38-4.84,4.31-10.82,4.31s-10.82-1.93-10.82-4.31v-21.77c0-5.82,4.72-10.54,10.54-10.54h0c5.72,0,10.39,4.56,10.54,10.27l.56,22.04Z"/><path class="j" d="M768.66,324.54c0,1.8-3.65,3.25-8.16,3.25s-8.16-1.46-8.16-3.25v-16.42c0-4.39,3.56-7.95,7.95-7.95h0c4.31,0,7.84,3.44,7.95,7.75l.42,16.62Z"/><path class="m" d="M779.08,366.86c0,3.21-6.53,5.81-14.58,5.81s-14.58-2.6-14.58-5.81v-3.88h29.17v3.88Z"/><ellipse class="l" cx="764.5" cy="362.98" rx="14.58" ry="5.81"/><path class="k" d="M775.32,362.98c0,2.38-4.84,4.31-10.82,4.31s-10.82-1.93-10.82-4.31v-21.77c0-5.82,4.72-10.54,10.54-10.54h0c5.72,0,10.39,4.56,10.54,10.27l.56,22.04Z"/><path class="l" d="M772.66,362.54c0,1.8-3.65,3.25-8.16,3.25s-8.16-1.46-8.16-3.25v-16.42c0-4.39,3.56-7.95,7.95-7.95h0c4.31,0,7.84,3.44,7.95,7.75l.42,16.62Z"/><path class="l" d="M931.29,319.15v-44.71c0-22.57,13.52-42.94,34.32-51.7l4.89-2.06,5.27-.92c11.45-1.99,23.23,.13,33.27,5.98l7.81,4.56c23.15,13.5,38.86,36.85,42.65,63.38h0v92.11l-18,11.89-11.95-6v-77.3c0-15.38-5-30.35-14.26-42.63l-3.1-4.12c-10.51-13.96-27.25-21.8-44.7-20.95h0l-.23,.38c-3.78,6.3-5.77,13.5-5.77,20.84v29.91l-30.21,21.35Z"/><circle class="k" cx="935" cy="338.17" r="24.5"/><path class="m" d="M953.2,254.86h0c-5.16,4.99-8.07,11.87-8.07,19.05v35.46l16.37-11.57v-29.91c0-7.34,2-14.55,5.77-20.84l.23-.38-6.83,3.1c-2.76,1.26-5.29,2.97-7.47,5.08Z"/><path class="e" d="M1000.47,246.67s39.37,24.35,39.37,61.68,1.65,78.32,1.65,78.32"/><polygon class="k" points="918.5 155.67 1052.5 61.67 1228.5 131.67 1097.5 226.67 918.5 155.67"/><ellipse class="h" cx="1078" cy="139.67" rx="91.95" ry="43"/><path class="j" d="M1147.5,124.17c0,17.95-31.12,32.5-69.5,32.5s-69.5-14.55-69.5-32.5v-38h139v38Z"/><ellipse class="l" cx="1078" cy="86.17" rx="69.5" ry="32.5"/><ellipse class="k" cx="1078" cy="86.17" rx="55.5" ry="25.95"/><path class="k" d="M1039.5,129.67c-.46-1.38-1.77-2.13-3.05-2.53-1.6-.5-3.34-.2-4.71,.76l-3.02,2.11c-3.27,2.29-5.22,6.03-5.22,10.02v25.59c0,1.04,.27,2.07,.88,2.91,.62,.88,1.62,1.62,3.12,1.12,6.71-2.24,7-7,7-7v-19.55c0-2.21,.88-4.32,2.44-5.88l.56-.56s3-4,2-7Z"/><path class="k" d="M1120.5,124.67c.46-1.38,1.77-2.13,3.05-2.53,1.6-.5,3.34-.2,4.71,.76l3.02,2.11c3.27,2.29,5.22,6.03,5.22,10.02v25.59c0,1.04-.27,2.07-.88,2.91-.63,.87-1.63,1.62-3.13,1.12-6.71-2.24-7-7-7-7v-19.55c0-2.21-.88-4.32-2.44-5.88l-.56-.56s-3-4-2-7Z"/><path class="l" d="M1116.5,228.67l41.05,16.52c2.22,.89,3.68,3.04,3.7,5.44l.25,35.04-41.53-18.23c-2.11-.92-3.47-3.01-3.47-5.31v-33.46Z"/><path class="j" d="M1116.5,228.67l6-4,44.05,16.72c2.05,.78,3.4,2.74,3.4,4.93v32.73c0,1.6-.92,3.05-2.36,3.73l-6.09,2.88-.26-35.46c-.02-2.14-1.32-4.06-3.31-4.86l-41.44-16.68Z"/><path class="k" d="M845.27,188.98c-2.15,11.12-13.41,24.86-21.77,24.69-8.36-.16-10.65-14.17-8.5-25.29,2.15-11.12,15.14-26.71,23.5-26.71,9,0,8.92,16.19,6.77,27.31Z"/><polygon class="k" points="687.62 121.9 762.5 68.67 859.5 107.67 783.79 159.03 687.62 121.9"/><g><path class="j" d="M701.59,117.87v1.49c0,1.24,1.82,2.24,4.05,2.24s4.05-1,4.05-2.24v-1.49h-8.11Z"/><ellipse class="l" cx="705.64" cy="117.87" rx="4.05" ry="2.24"/></g><g><path class="j" d="M758.59,75.87v1.49c0,1.24,1.82,2.24,4.05,2.24s4.05-1,4.05-2.24v-1.49h-8.11Z"/><ellipse class="l" cx="762.64" cy="75.87" rx="4.05" ry="2.24"/></g><g><path class="j" d="M835.59,105.87v1.49c0,1.24,1.82,2.24,4.05,2.24s4.05-1,4.05-2.24v-1.49h-8.11Z"/><ellipse class="l" cx="839.64" cy="105.87" rx="4.05" ry="2.24"/></g><g><path class="l" d="M940.59,149.87v1.49c0,1.24,1.82,2.24,4.05,2.24s4.05-1,4.05-2.24v-1.49h-8.11Z"/><ellipse class="j" cx="944.64" cy="149.87" rx="4.05" ry="2.24"/></g><g><path class="j" d="M776.59,146.87v1.49c0,1.24,1.82,2.24,4.05,2.24s4.05-1,4.05-2.24v-1.49h-8.11Z"/><ellipse class="l" cx="780.64" cy="146.87" rx="4.05" ry="2.24"/></g><polygon class="l" points="716.66 119.74 766.69 84.75 828.61 109.6 780.64 144.63 716.66 119.74"/><polygon class="j" points="733.37 126.24 780.64 144.63 815.78 118.97 767.5 101.67 733.37 126.24"/><path class="k" d="M686.88,154.71h0c-8.13-4.25-12.84-13.02-11.91-22.14l.4-3.91c.68-6.63,5.34-12.16,11.75-13.96l3-.84-15.84-3.79c-3.8-.91-7.77-.85-11.54,.19h0c-11.6,3.18-19.64,13.72-19.64,25.75v17.41l12.39,12.26,25-3,6.39-7.96Z"/><path class="j" d="M643.11,163.17c0,6.35,9.8,11.5,21.89,11.5s21.89-5.15,21.89-11.5v-8.46s-7.39,6.36-21.89,6.36-21.89-7.66-21.89-7.66v9.76Z"/><path class="l" d="M690.13,113.85l6.31,1.78-8.82,6.27v30.77s.65,1.08-.74,2.04l-11.1-5.97h0c-2.06-1.92-3.06-4.73-2.67-7.52l1.96-14.17c.49-3.51,2.21-6.73,4.85-9.09h0c2.01-1.79,4.46-3,7.1-3.51l3.1-.6Z"/><path class="r" d="M747.23,191.52c-3.85-14.32-16.2-25.53-28.11-25.53-5.17,0-9.7,2.18-12.73,6.14-3.99,5.2-5.02,12.84-2.84,20.95,3.85,14.32,16.2,25.53,28.11,25.53,5.17,0,9.7-2.18,12.73-6.14,3.99-5.2,5.02-12.84,2.84-20.96Zm-5.79,1.56c.47,1.74,.73,3.45,.84,5.1l-14.74-7,.37-16.46c6.06,3.66,11.45,10.59,13.54,18.36Zm-22.31-21.09c1.58,0,3.21,.31,4.82,.87l-.37,16.45-14.92-7.09c.35-2.5,1.18-4.72,2.5-6.44,1.9-2.48,4.65-3.79,7.97-3.79Zm-9.77,19.53c-.45-1.69-.72-3.34-.83-4.94l14.96,7.11-.36,16.34c-6.16-3.62-11.65-10.64-13.77-18.51Zm22.31,21.09c-1.51,0-3.05-.29-4.59-.79l.36-16.25,14.67,6.97c-.37,2.44-1.18,4.61-2.47,6.29-1.9,2.48-4.65,3.79-7.97,3.79Z"/><circle class="k" cx="769.5" cy="168.67" r="3.5"/><circle class="j" cx="770" cy="182.17" r="3.5"/><polygon class="m" points="728.01 417.17 738.5 417.17 738.5 412.13 728.01 330.67 728.01 417.17"/><path class="l" d="M918.5,198.26l-75.51-29.82c-3.36-1.33-7.13-1.16-10.34,.49-3.99,2.04-8.94,5.67-11.15,11.74-2.09,5.76-3.37,11.25-3.53,15.89-.19,5.38,2.98,10.3,7.96,12.33l92.56,37.78v-48.41Z"/><ellipse class="h" cx="118.5" cy="49.67" rx="23" ry="12"/><ellipse class="l" cx="118.5" cy="49.67" rx="18" ry="9.39"/><g><path class="l" d="M1077.54,49.51s4.59,7.93,16.28,9.6c0,0-3.76,14.61-1.67,27.55,0,0-4.59-2.92-8.77-7.51-4.17-4.59-10.33-18.73-10.33-18.73l4.48-10.91Z"/><path class="k" d="M1083.38,79.15s-14.19-17.95,4.59-42.17l-16.28-6.26s-5.01,33.4,11.69,48.43Z"/></g><g><path class="l" d="M1168.37,44.29s6.86-6.08,6.18-17.86c0,0,15.07,.78,27.34-3.83,0,0-1.95,5.08-5.63,10.08-3.67,5-16.31,13.84-16.31,13.84l-11.58-2.23Z"/><path class="j" d="M1196.26,32.68s-14.78,17.47-42.24,3.87l-2.91,17.2s33.73-1.72,45.15-21.07Z"/></g><g><path class="k" d="M1266.37,32.05s6.86,6.08,6.18,17.86c0,0,15.07-.78,27.34,3.83,0,0-1.95-5.08-5.63-10.08-3.67-5-16.31-13.84-16.31-13.84l-11.58,2.23Z"/><path class="h" d="M1294.26,43.66s-14.78-17.47-42.24-3.87l-2.91-17.2s33.73,1.72,45.15,21.07Z"/></g><g><path class="l" d="M1100.47,28.55s4.87-3.41,15.31-.71c10.44,2.69,14.72,10.38,14.72,10.38l2.81-26.77s-35.35-12.83-36.48,1.51l3.64,15.59Z"/><path class="h" d="M1105.38,45.17s-3.39-16.03,4.66-30.73c0,0-11.1,.44-12.64-3.81,0,0-2.57,5.44,.22,15.6,2.79,10.16,7.76,18.93,7.76,18.93Z"/></g><g><path class="j" d="M1317.77,82.08s7.32-3.7,10.85-18.15c3.53-14.45-3.02-24.67-3.02-24.67l34.39,14.04s-7.46,51.36-25.64,43.38l-16.58-14.6Z"/><path class="l" d="M1300.76,65.27s17.28,14.58,40.41,14.38c0,0-7.77,13.21-3.62,17.86,0,0-8.3-.42-18.83-10.44-10.53-10.02-17.96-21.79-17.96-21.79Z"/></g><polygon class="j" points="900.59 312.42 891.65 301.65 877.74 303.25 888.52 294.31 886.92 280.4 895.86 291.18 909.77 289.57 898.99 298.51 900.59 312.42"/><polygon class="l" points="921.09 337.33 915.18 334.81 909.83 338.39 912.36 332.47 908.78 327.13 914.69 329.65 920.04 326.07 917.51 331.99 921.09 337.33"/><polygon class="k" points="868.54 341.81 866.95 334.56 860.01 331.94 867.26 330.35 869.88 323.41 871.47 330.66 878.41 333.28 871.17 334.87 868.54 341.81"/><polygon class="h" points="906.54 382.81 904.38 372.94 894.93 369.37 904.79 367.2 908.37 357.76 910.53 367.62 919.98 371.2 910.11 373.36 906.54 382.81"/><polygon class="l" points="835.95 363.42 835.66 357.42 830.47 354.39 836.47 354.09 839.5 348.9 839.8 354.9 844.99 357.93 838.99 358.23 835.95 363.42"/><rect class="d" width="1366" height="543"/></g></g></g></svg>